<?xml version="1.0" standalone="no"?><!DOCTYPE svg PUBLIC "-//W3C//DTD SVG 1.1//EN" "http://www.w3.org/Graphics/SVG/1.1/DTD/svg11.dtd"><svg t="1705456679666" class="icon" viewBox="0 0 1024 1024" version="1.1" xmlns="http://www.w3.org/2000/svg" p-id="9540" xmlns:xlink="http://www.w3.org/1999/xlink" width="200" height="200"><path d="M336 608a80 80 0 0 1 79.84 74.752L416 688V864a32 32 0 0 1-32 32h-32a32 32 0 0 1-32-32v-160H160a32 32 0 0 1-32-32v-32a32 32 0 0 1 32-32h176zM416 160v176a80 80 0 0 1-74.752 79.84L336 416H160a32 32 0 0 1-32-32v-32a32 32 0 0 1 32-32h160V160a32 32 0 0 1 32-32h32a32 32 0 0 1 32 32z m288 0v160h160a32 32 0 0 1 32 32v32a32 32 0 0 1-32 32h-176a80 80 0 0 1-79.84-74.752L608 336V160a32 32 0 0 1 32-32h32a32 32 0 0 1 32 32z m192 480v32a32 32 0 0 1-32 32h-160v160a32 32 0 0 1-32 32h-32a32 32 0 0 1-32-32v-176a80 80 0 0 1 74.752-79.84L688 608H864a32 32 0 0 1 32 32z" fill="#e6e6e6" p-id="9541"></path></svg>