<?xml version="1.0" standalone="no"?><!DOCTYPE svg PUBLIC "-//W3C//DTD SVG 1.1//EN" "http://www.w3.org/Graphics/SVG/1.1/DTD/svg11.dtd"><svg t="1705160279366" class="icon" viewBox="0 0 1024 1024" version="1.1" xmlns="http://www.w3.org/2000/svg" p-id="3418" xmlns:xlink="http://www.w3.org/1999/xlink" width="200" height="200"><path d="M768 277.418667v21.12a21.418667 21.418667 0 0 1-21.418667 21.461333H277.461333A21.418667 21.418667 0 0 1 256 298.581333v-21.12C256 265.6 265.6 256 277.461333 256h469.12c11.818667 0 21.418667 9.6 21.418667 21.418667z m0 448v21.12a21.418667 21.418667 0 0 1-21.418667 21.461333h-191.786666a21.418667 21.418667 0 0 1-21.461334-21.418667v-21.12c0-11.861333 9.6-21.461333 21.461334-21.461333h191.786666c11.818667 0 21.418667 9.6 21.418667 21.418667z m0-224v21.12a21.418667 21.418667 0 0 1-21.418667 21.461333h-191.786666a21.418667 21.418667 0 0 1-21.461334-21.461333v-21.12c0-11.818667 9.6-21.418667 21.461334-21.418667h191.786666c11.818667 0 21.418667 9.6 21.418667 21.418667z m-306.688 134.485333L290.261333 763.733333A21.461333 21.461333 0 0 1 256 746.538667v-255.744a21.461333 21.461333 0 0 1 34.261333-17.152l171.050667 127.914666a21.461333 21.461333 0 0 1 0 34.346667z" fill="#e6e6e6" p-id="3419"></path></svg>