<?xml version="1.0" standalone="no"?><!DOCTYPE svg PUBLIC "-//W3C//DTD SVG 1.1//EN" "http://www.w3.org/Graphics/SVG/1.1/DTD/svg11.dtd"><svg t="1705387039006" class="icon" viewBox="0 0 1024 1024" version="1.1" xmlns="http://www.w3.org/2000/svg" p-id="15943" xmlns:xlink="http://www.w3.org/1999/xlink" width="200" height="200"><path d="M905.75 626.35625a56.25 56.25 0 0 1 55.85625 49.66875l0.39375 6.58125V793.25a168.75 168.75 0 0 1-158.85 168.46875L793.25 962h-111.09375a56.25 56.25 0 0 1-6.58125-112.10625l6.58125-0.39375H793.25a56.25 56.25 0 0 0 55.85625-49.66875L849.5 793.25v-110.64375a56.25 56.25 0 0 1 56.25-56.25zM118.25 627.3125a56.25 56.25 0 0 1 55.85625 49.66875l0.39375 6.58125V793.25a56.25 56.25 0 0 0 49.66875 55.85625L230.75 849.5h113.90625a56.25 56.25 0 0 1 6.58125 112.10625L344.65625 962H230.75a168.75 168.75 0 0 1-168.46875-158.85L62 793.25v-109.6875a56.25 56.25 0 0 1 56.25-56.25zM341.675 62a56.25 56.25 0 0 1 6.58125 112.10625L341.675 174.5H230.75a56.25 56.25 0 0 0-55.85625 49.66875L174.5 230.75v113.2875a56.25 56.25 0 0 1-112.10625 6.58125L62 344.0375V230.75A168.75 168.75 0 0 1 220.85 62.28125L230.75 62h110.925zM793.25 62a168.75 168.75 0 0 1 168.46875 158.85L962 230.75v113.11875a56.25 56.25 0 0 1-112.10625 6.58125L849.5 343.8125V230.75a56.25 56.25 0 0 0-49.66875-55.85625L793.25 174.5h-113.625a56.25 56.25 0 0 1-6.58125-112.10625L679.56875 62H793.25z" fill="#2c2c2c" p-id="15944"></path></svg>