<?xml version="1.0" standalone="no"?><!DOCTYPE svg PUBLIC "-//W3C//DTD SVG 1.1//EN" "http://www.w3.org/Graphics/SVG/1.1/DTD/svg11.dtd"><svg height="1031" node-id="1" sillyvg="true" template-height="1031" template-width="1895" version="1.1" viewBox="0 0 1895 1031" width="1895" xmlns="http://www.w3.org/2000/svg" xmlns:xlink="http://www.w3.org/1999/xlink"><defs node-id="96"></defs><path d="M 362.50 361.50 L 368.00 344.50 L 451.00 332.50 L 504.50 297.00 L 504.50 307.50 L 504.50 352.00 L 522.00 392.00 L 539.00 435.00 L 546.00 485.00 L 522.00 524.00 L 469.00 539.50 L 410.50 539.50 L 399.00 552.00 L 373.50 580.00 L 362.50 599.50 L 307.50 603.00 L 324.50 566.00 L 336.50 528.00 C 345.17 517.83 361.50 497.50 357.50 497.50 C 353.50 497.50 350.50 486.17 349.50 480.50 L 324.50 470.00 L 343.50 420.00 L 336.50 392.00 L 346.00 369.00 L 362.50 361.50 Z" fill="#ffffff" fill-rule="nonzero" node-id="98" stroke="none" target-height="306" target-width="238.5" target-x="307.5" target-y="297"></path><path d="M 447.50 579.50 L 465.00 597.50 L 501.00 588.50 L 533.00 575.50 L 566.00 575.50 L 592.50 564.00 L 580.50 545.00 L 560.50 529.00 L 527.50 520.50 L 507.00 532.00 L 451.50 545.00 L 447.50 579.50 Z" fill="#ffffff" fill-rule="nonzero" node-id="100" stroke="none" target-height="77" target-width="145" target-x="447.5" target-y="520.5"></path><path d="M 126.00 702.50 L 209.50 622.50 L 281.50 622.50 L 311.50 594.50 L 364.50 594.50 L 388.00 605.50 L 404.00 594.50 L 440.00 594.50 L 510.00 651.50 L 568.00 712.50 L 542.00 574.50 L 559.00 574.50 L 593.50 562.50 L 690.50 702.50 L 728.50 830.00 L 630.50 889.00 L 559.00 916.00 L 486.00 916.00 L 510.00 954.00 L 527.00 1017.50 L 440.00 1007.50 L 219.50 997.50 L 87.00 977.50 L 36.00 954.00 L 42.00 864.00 L 71.00 784.00 L 126.00 702.50 Z" fill="#398cff" fill-rule="nonzero" node-id="102" stroke="none" target-height="455" target-width="692.5" target-x="36" target-y="562.5"></path><path d="M 532.74 225.10 C 530.47 217.59 524.97 211.22 516.70 209.79 C 509.56 208.56 502.38 211.08 499.51 218.23 C 499.07 219.32 498.78 220.42 498.60 221.52 C 495.29 217.27 492.29 212.17 488.93 208.44 C 475.83 193.90 456.57 186.04 437.58 183.00 C 417.09 179.72 396.01 179.77 375.37 181.51 C 351.83 183.49 329.16 189.37 309.83 203.43 C 291.33 216.89 276.81 234.16 262.77 252.01 C 255.45 258.74 248.60 265.98 242.47 273.93 C 232.67 286.65 225.46 300.86 221.03 315.82 C 217.37 318.40 215.23 322.64 214.75 327.65 C 213.24 343.34 212.74 358.61 216.71 373.47 C 216.93 381.18 217.78 388.88 219.26 396.53 C 218.91 399.28 219.38 402.34 220.94 405.54 C 225.06 414.01 228.34 422.73 231.03 431.76 C 231.85 434.52 233.46 436.95 235.57 438.80 C 236.00 440.05 236.44 441.28 236.89 442.51 C 238.06 445.70 240.06 448.44 242.61 450.35 C 242.71 452.18 242.93 453.99 243.26 455.76 C 239.28 454.22 234.72 454.21 231.10 456.80 C 212.17 470.36 194.37 486.84 181.82 506.30 C 181.08 506.53 180.34 506.82 179.60 507.17 C 167.75 512.76 161.79 530.35 159.82 542.34 C 157.45 556.78 159.10 571.20 165.78 584.33 C 171.58 595.75 182.00 605.37 193.64 610.59 C 194.88 611.14 196.17 611.66 197.49 612.15 C 196.91 620.04 203.06 628.17 211.95 628.26 C 222.91 628.38 234.38 628.16 245.52 626.53 C 248.78 628.32 252.75 628.89 256.65 628.08 C 279.78 623.28 301.91 612.60 314.47 591.72 C 324.89 574.39 327.39 553.79 328.73 533.90 C 329.72 533.48 330.69 533.04 331.64 532.58 C 349.70 523.75 358.25 504.04 347.84 485.85 C 340.42 472.86 327.52 467.63 313.84 465.40 C 326.80 463.66 337.35 452.52 340.54 439.38 C 342.63 430.79 341.58 422.29 340.01 413.71 C 339.33 410.00 338.37 406.30 338.00 402.55 C 337.65 398.98 337.89 395.36 338.38 393.20 C 341.26 380.46 350.49 370.56 361.18 361.92 C 366.92 357.27 366.53 349.38 362.83 343.73 C 369.27 342.47 376.94 342.71 383.53 342.61 C 402.05 342.30 420.60 339.26 438.12 333.19 C 455.24 327.27 471.60 319.06 486.38 308.59 C 501.84 297.64 517.09 284.70 527.91 269.01 C 536.93 255.94 539.42 238.60 532.74 225.10 Z" fill="#ff3f08" fill-rule="nonzero" node-id="104" stroke="none" target-height="449.17004" target-width="381.963" target-x="157.454" target-y="179.717"></path><path d="M 516.11 220.81 C 530.87 236.96 523.22 258.77 513.56 275.44 C 509.21 282.94 520.83 289.72 525.18 282.23 C 538.14 259.85 544.81 232.28 525.62 211.30 C 519.76 204.90 510.27 214.43 516.11 220.81 Z" fill="#ffffff" fill-rule="nonzero" node-id="106" stroke="none" target-height="84.82199" target-width="35.593018" target-x="509.213" target-y="204.901"></path><path d="M 331.96 421.91 C 326.10 433.77 322.30 446.43 317.02 458.53 C 313.59 466.39 325.18 473.24 328.63 465.32 C 333.91 453.23 337.73 440.53 343.58 428.70 C 347.40 420.97 335.81 414.14 331.96 421.91 Z" fill="#ffffff" fill-rule="nonzero" node-id="108" stroke="none" target-height="59.100006" target-width="33.815002" target-x="313.589" target-y="414.143"></path><path d="M 309.67 476.63 C 323.18 474.60 335.88 480.66 338.58 494.79 C 341.13 508.14 333.87 521.23 322.42 527.86 C 314.93 532.19 321.70 543.82 329.21 539.48 C 346.24 529.62 355.86 509.69 351.35 490.26 C 346.40 468.97 326.17 460.64 306.09 463.66 C 297.56 464.94 301.19 477.91 309.67 476.63 Z" fill="#ffffff" fill-rule="nonzero" node-id="110" stroke="none" target-height="83.17999" target-width="58.29898" target-x="297.561" target-y="460.643"></path><path d="M 180.57 488.55 C 163.98 505.32 158.29 530.26 160.20 553.23 C 162.10 576.05 170.97 600.18 189.53 614.65 C 196.28 619.91 205.87 610.45 199.04 605.13 C 169.22 581.89 162.84 525.60 190.08 498.07 C 196.17 491.90 186.67 482.39 180.57 488.55 Z" fill="#ffffff" fill-rule="nonzero" node-id="112" stroke="none" target-height="137.518" target-width="47.582" target-x="158.287" target-y="482.388"></path><path d="M 315.35 534.41 C 315.34 544.54 315.44 554.85 313.57 564.85 C 311.70 574.87 308.07 584.44 304.38 593.90 C 301.24 601.97 314.24 605.47 317.36 597.48 C 321.21 587.60 324.96 577.61 326.78 567.12 C 328.65 556.31 328.79 545.35 328.81 534.41 C 328.82 525.76 315.36 525.74 315.35 534.41 Z" fill="#ffffff" fill-rule="nonzero" node-id="114" stroke="none" target-height="79.724976" target-width="27.580017" target-x="301.236" target-y="525.744"></path><path d="M 295.75 681.85 C 306.99 705.97 295.52 729.53 292.75 754.12 C 291.94 761.28 303.16 761.22 303.96 754.12 C 305.45 740.88 309.74 728.18 311.51 714.99 C 313.34 701.35 311.23 688.64 305.43 676.19 C 302.39 669.66 292.73 675.34 295.75 681.85 Z" fill="#ffffff" fill-rule="nonzero" node-id="116" stroke="none" target-height="91.62402" target-width="21.402008" target-x="291.939" target-y="669.656"></path><path d="M 410.65 738.46 C 428.10 769.67 439.18 805.79 466.46 830.39 C 471.80 835.21 479.75 827.31 474.38 822.46 C 447.92 798.59 437.27 763.10 420.33 732.80 C 416.81 726.50 407.13 732.15 410.65 738.46 Z" fill="#ffffff" fill-rule="nonzero" node-id="118" stroke="none" target-height="108.709045" target-width="72.62799" target-x="407.127" target-y="726.501"></path><path d="M 587.77 575.92 C 602.35 597.16 619.94 616.15 634.29 637.57 C 638.28 643.53 647.99 637.93 643.97 631.91 C 629.62 610.49 612.03 591.50 597.45 570.26 C 593.39 564.35 583.67 569.95 587.77 575.92 Z" fill="#ffffff" fill-rule="nonzero" node-id="120" stroke="none" target-height="79.185" target-width="64.32599" target-x="583.668" target-y="564.35"></path><path d="M 507.21 222.76 C 485.84 194.32 455.79 176.08 419.72 175.24 C 382.46 174.38 346.09 189.61 314.22 207.61 C 296.55 217.58 278.47 228.52 263.37 242.18 C 248.77 255.39 236.65 271.61 227.58 289.07 C 218.65 306.26 212.56 324.84 210.34 344.11 C 209.11 354.82 211.02 365.28 213.07 375.79 C 216.33 392.46 220.63 409.00 226.07 425.10 C 230.76 438.97 236.09 453.78 245.63 465.14 C 250.27 470.67 258.17 462.71 253.56 457.22 C 246.19 448.45 241.99 436.63 238.22 425.99 C 233.40 412.37 229.54 398.39 226.32 384.31 C 224.04 374.30 221.63 363.99 221.05 353.70 C 220.20 338.72 225.38 322.44 230.83 308.70 C 237.73 291.32 247.89 274.98 260.38 261.08 C 273.13 246.90 288.61 236.34 304.70 226.31 C 334.49 207.74 367.98 190.88 403.37 187.15 C 420.53 185.34 438.01 186.84 454.11 193.37 C 471.67 200.50 486.24 213.39 497.53 228.42 C 501.81 234.12 511.55 228.54 507.21 222.76 Z" fill="#ffffff" fill-rule="nonzero" node-id="122" stroke="none" target-height="296.297" target-width="302.44" target-x="209.106" target-y="174.376"></path><path d="M 508.19 222.36 C 492.63 195.28 465.73 177.92 435.14 172.71 C 402.14 167.09 367.83 173.31 337.07 185.80 C 303.63 199.38 272.83 220.24 248.84 247.32 C 224.60 274.69 207.76 308.20 203.89 344.80 C 199.47 386.67 213.93 427.96 237.37 462.24 C 240.98 467.52 244.83 472.63 248.78 477.67 C 254.12 484.48 263.58 474.90 258.29 468.16 C 233.37 436.38 215.65 397.86 216.57 356.82 C 217.32 323.48 230.62 291.56 251.09 265.51 C 290.04 215.96 356.63 179.83 420.72 184.41 C 451.97 186.64 480.61 201.37 496.57 229.15 C 500.88 236.66 512.51 229.89 508.19 222.36 Z" fill="#000000" fill-rule="nonzero" node-id="124" stroke="none" target-height="317.38702" target-width="313.044" target-x="199.466" target-y="167.093"></path><path d="M 509.10 213.99 C 519.21 215.03 527.05 226.20 529.13 234.25 C 533.23 232.52 537.33 230.79 541.43 229.06 C 541.64 229.56 541.85 230.06 542.06 230.56 C 539.39 222.38 526.67 225.75 529.09 234.13 C 533.15 248.15 524.77 263.04 517.16 274.28 C 508.85 286.56 498.31 298.16 486.48 307.17 C 478.06 313.59 468.06 318.13 458.40 322.32 C 443.86 328.63 428.64 333.68 413.15 337.04 C 395.67 340.82 376.79 342.65 359.55 336.81 C 351.33 334.02 347.81 347.01 355.97 349.78 C 372.83 355.49 391.15 354.55 408.45 351.61 C 426.16 348.60 443.43 343.04 460.00 336.14 C 471.28 331.44 482.97 326.42 492.86 319.09 C 506.28 309.14 517.92 296.58 527.50 282.92 C 537.83 268.18 547.38 248.92 542.06 230.56 C 537.74 231.75 533.41 232.94 529.09 234.13 C 529.26 234.65 529.56 235.37 529.81 235.85 C 533.35 242.76 543.98 237.91 542.10 230.67 C 538.13 215.32 524.99 202.18 509.10 200.54 C 500.50 199.65 500.56 213.11 509.10 213.99 Z" fill="#000000" fill-rule="nonzero" node-id="126" stroke="none" target-height="155.834" target-width="199.57" target-x="347.805" target-y="199.654"></path><path d="M 392.72 384.73 C 387.64 373.75 380.15 361.44 368.04 357.30 C 359.18 354.26 349.97 357.40 343.52 363.87 C 328.60 378.82 327.31 405.15 337.21 423.04 C 344.65 436.48 358.21 444.69 372.79 448.42 C 381.18 450.56 384.76 437.60 376.37 435.45 C 357.11 430.53 343.63 416.20 344.35 396.20 C 344.61 388.97 346.63 381.86 350.94 375.80 C 352.33 373.85 354.39 371.90 356.73 370.58 C 357.19 370.33 357.85 369.98 359.66 369.59 C 360.73 369.36 358.82 369.57 360.69 369.52 C 361.17 369.51 363.18 369.78 361.80 369.54 C 365.49 370.19 367.90 371.94 370.88 375.07 C 375.35 379.76 378.40 385.69 381.10 391.52 C 384.73 399.37 396.33 392.55 392.72 384.73 Z" fill="#000000" fill-rule="nonzero" node-id="128" stroke="none" target-height="96.29999" target-width="69.022" target-x="327.306" target-y="354.265"></path><path d="M 336.16 425.74 C 332.23 436.84 327.81 447.65 321.71 457.76 C 317.23 465.19 328.85 471.96 333.32 464.55 C 340.00 453.47 344.82 441.47 349.13 429.31 C 352.03 421.14 339.04 417.62 336.16 425.74 Z" fill="#000000" fill-rule="nonzero" node-id="130" stroke="none" target-height="54.337006" target-width="34.806" target-x="317.226" target-y="417.621"></path><path d="M 509.39 292.18 C 489.37 313.23 493.50 342.72 502.20 367.95 C 511.74 395.61 527.55 421.10 535.30 449.36 C 541.34 471.37 537.69 496.52 520.92 512.89 C 504.88 528.54 481.21 534.61 459.46 536.25 C 433.40 538.23 406.30 534.88 381.97 525.13 C 373.94 521.91 370.44 534.91 378.39 538.10 C 400.75 547.05 425.65 550.66 449.65 550.18 C 473.72 549.69 499.46 544.96 519.66 531.13 C 540.59 516.80 551.61 494.10 551.40 468.85 C 551.17 440.01 535.78 413.65 524.52 387.91 C 513.66 363.07 496.56 325.18 518.90 301.69 C 524.87 295.43 515.37 285.90 509.39 292.18 Z" fill="#000000" fill-rule="nonzero" node-id="132" stroke="none" target-height="264.767" target-width="181.17102" target-x="370.443" target-y="285.897"></path><path d="M 257.97 461.19 C 267.83 466.26 279.41 467.98 290.18 470.08 C 303.52 472.67 317.03 474.87 330.10 478.68 C 340.84 481.81 351.23 486.82 350.75 500.15 C 350.21 515.41 332.47 525.10 319.11 526.72 C 310.62 527.75 310.52 541.22 319.11 540.17 C 333.79 538.39 347.91 531.96 356.98 519.93 C 365.59 508.51 366.53 493.51 358.56 481.45 C 352.58 472.39 343.79 468.66 333.67 465.71 C 321.89 462.27 309.74 460.18 297.70 457.87 C 287.11 455.83 273.82 454.24 264.75 449.58 C 257.07 445.62 250.26 457.23 257.97 461.19 Z" fill="#000000" fill-rule="nonzero" node-id="134" stroke="none" target-height="95.59299" target-width="116.27402" target-x="250.258" target-y="445.624"></path><path d="M 231.55 448.90 C 218.74 451.75 207.40 460.58 197.60 468.87 C 186.40 478.35 176.10 489.18 167.53 501.12 C 150.70 524.59 148.51 557.18 159.88 583.45 C 172.48 612.54 203.55 628.15 233.57 633.49 C 258.92 638.01 284.39 632.54 303.58 614.80 C 326.45 593.67 335.85 561.78 339.29 531.77 C 340.27 523.18 326.81 523.25 325.84 531.77 C 323.17 555.03 316.31 579.83 300.94 598.08 C 287.07 614.55 267.68 622.86 246.17 621.58 C 232.85 620.79 219.67 616.62 207.62 611.07 C 194.96 605.24 183.88 598.33 176.42 586.23 C 163.35 565.04 162.42 535.11 175.37 513.60 C 182.33 502.04 192.10 491.93 202.02 482.87 C 211.32 474.38 222.49 464.68 235.13 461.87 C 243.57 459.99 240.00 447.02 231.55 448.90 Z" fill="#000000" fill-rule="nonzero" node-id="136" stroke="none" target-height="190.986" target-width="191.76001" target-x="148.512" target-y="447.022"></path><path d="M 397.90 544.30 C 390.48 549.35 382.40 554.62 376.50 561.45 C 370.42 568.47 365.58 576.43 360.36 584.08 C 355.47 591.24 367.12 597.98 371.98 590.87 C 376.54 584.18 380.69 577.09 386.01 570.96 C 391.19 564.98 398.17 560.35 404.69 555.91 C 411.81 551.07 405.08 539.41 397.90 544.30 Z" fill="#000000" fill-rule="nonzero" node-id="138" stroke="none" target-height="58.567993" target-width="56.336" target-x="355.47" target-y="539.413"></path><path d="M 208.94 616.11 C 199.04 620.14 191.00 626.70 183.00 633.65 C 174.12 641.38 165.63 649.55 157.44 658.00 C 141.43 674.51 125.99 691.94 111.92 710.14 C 97.80 728.42 84.32 748.08 73.75 768.64 C 68.28 779.27 63.28 790.13 58.27 800.98 C 53.50 811.32 48.37 821.62 44.85 832.48 C 40.99 844.37 38.16 857.09 36.41 869.47 C 34.50 883.01 34.67 896.70 33.62 910.31 C 32.95 918.94 46.40 918.90 47.07 910.31 C 47.94 899.06 47.89 887.75 49.01 876.51 C 50.10 865.51 52.80 854.53 55.59 843.85 C 61.04 823.00 71.71 803.21 81.13 783.93 C 100.58 744.10 128.38 708.98 158.36 676.59 C 166.84 667.43 175.61 658.53 184.79 650.08 C 193.06 642.47 201.94 633.39 212.52 629.08 C 220.43 625.86 216.97 612.84 208.94 616.11 Z" fill="#000000" fill-rule="nonzero" node-id="140" stroke="none" target-height="306.102" target-width="187.4782" target-x="32.9498" target-y="612.841"></path><path d="M 34.93 957.92 C 44.94 964.42 54.47 971.79 65.37 976.80 C 77.25 982.25 90.05 985.96 102.76 988.89 C 129.12 994.96 156.31 997.45 183.21 999.80 C 210.53 1002.20 237.92 1003.79 265.32 1004.89 C 292.84 1005.99 320.44 1007.52 347.99 1007.51 C 379.86 1007.50 411.68 1004.83 443.53 1004.23 C 452.18 1004.07 452.21 990.62 443.53 990.78 C 416.08 991.29 388.67 993.19 361.22 993.88 C 334.00 994.57 306.79 992.90 279.60 991.97 C 252.55 991.04 225.51 989.69 198.52 987.61 C 171.88 985.56 145.00 983.39 118.72 978.49 C 104.25 975.78 89.83 972.18 76.10 966.80 C 63.55 961.89 52.93 953.59 41.72 946.30 C 34.44 941.57 27.69 953.21 34.93 957.92 Z" fill="#000000" fill-rule="nonzero" node-id="142" stroke="none" target-height="65.95001" target-width="424.5166" target-x="27.6894" target-y="941.57"></path><path d="M 238.30 834.17 C 257.92 838.62 278.03 840.28 297.62 844.88 C 317.35 849.52 336.93 855.22 356.27 861.26 C 395.78 873.61 434.36 888.76 472.08 905.79 C 479.91 909.33 486.76 897.74 478.87 894.18 C 440.75 876.96 401.79 861.51 361.88 848.93 C 342.53 842.83 322.93 837.15 303.20 832.39 C 282.96 827.51 262.17 825.80 241.87 821.20 C 233.44 819.29 229.84 832.26 238.30 834.17 Z" fill="#000000" fill-rule="nonzero" node-id="144" stroke="none" target-height="90.037964" target-width="256.911" target-x="229.845" target-y="819.291"></path><path d="M 457.27 894.66 C 469.79 907.13 481.44 920.71 492.71 934.31 C 498.15 940.88 501.75 948.29 504.74 956.23 C 507.91 964.63 511.77 973.33 512.47 982.38 C 513.12 990.95 526.58 991.02 525.92 982.38 C 525.16 972.55 521.77 963.59 518.37 954.43 C 515.08 945.58 511.52 936.86 505.79 929.26 C 499.82 921.36 492.70 914.42 486.44 906.76 C 480.25 899.18 473.72 892.06 466.78 885.15 C 460.64 879.03 451.13 888.53 457.27 894.66 Z" fill="#000000" fill-rule="nonzero" node-id="146" stroke="none" target-height="111.99701" target-width="75.45398" target-x="451.127" target-y="879.026"></path><path d="M 294.13 666.38 C 298.00 676.51 303.82 686.09 306.22 696.71 C 308.57 707.08 308.10 718.62 305.77 728.95 C 301.03 749.91 289.18 768.30 279.68 787.30 C 275.81 795.02 287.41 801.84 291.29 794.09 C 301.56 773.54 314.49 753.49 319.14 730.67 C 321.40 719.57 321.72 708.00 319.90 696.81 C 317.93 684.68 311.44 674.15 307.10 662.81 C 304.04 654.80 291.03 658.27 294.13 666.38 Z" fill="#000000" fill-rule="nonzero" node-id="148" stroke="none" target-height="147.04095" target-width="45.910004" target-x="275.814" target-y="654.801"></path><path d="M 399.51 602.51 C 403.26 598.82 408.32 596.51 412.62 596.12 C 419.40 595.49 424.39 596.65 431.01 598.95 C 446.98 604.51 461.69 615.44 474.70 626.29 C 505.11 651.64 532.21 682.11 555.10 714.38 C 559.49 720.56 563.76 726.87 567.53 733.46 C 568.83 735.73 570.05 738.03 571.13 740.41 C 571.55 741.33 570.68 739.04 571.20 740.60 C 571.33 741.03 571.49 741.45 571.64 741.87 C 572.12 743.30 571.97 743.69 571.87 742.35 C 572.52 750.93 583.98 751.00 583.32 742.35 C 582.51 731.79 576.03 721.13 570.31 712.74 C 559.22 696.50 546.87 681.05 533.95 666.24 C 519.30 649.45 503.70 633.35 486.73 618.89 C 471.71 606.11 455.42 593.93 436.87 586.82 C 420.97 580.72 402.84 580.39 390.00 592.99 C 383.81 599.07 393.33 608.58 399.51 602.51 Z" fill="#000000" fill-rule="nonzero" node-id="150" stroke="none" target-height="170.61499" target-width="200.164" target-x="383.812" target-y="580.387"></path><path d="M 384.68 659.55 C 384.61 664.37 384.09 669.49 385.60 674.16 C 386.36 676.53 387.85 678.65 388.76 680.97 C 389.82 683.66 390.37 686.44 391.08 689.24 C 393.67 699.45 397.01 709.46 400.65 719.34 C 407.75 738.65 415.36 758.09 423.95 776.79 C 432.48 795.40 443.59 811.72 456.59 827.45 C 469.84 843.49 479.89 861.65 489.85 879.84 C 494.00 887.44 505.62 880.65 501.46 873.05 C 491.93 855.65 482.31 838.27 469.95 822.68 C 463.99 815.15 457.46 808.07 452.16 800.03 C 446.61 791.61 441.65 782.75 437.28 773.66 C 428.59 755.60 421.35 736.50 414.35 717.72 C 410.68 707.89 407.26 697.93 404.60 687.77 C 403.36 683.06 402.36 678.64 400.38 674.18 C 398.07 669.01 398.05 665.15 398.13 659.55 C 398.26 650.89 384.81 650.89 384.68 659.55 Z" fill="#000000" fill-rule="nonzero" node-id="152" stroke="none" target-height="236.54797" target-width="121.53699" target-x="384.086" target-y="650.888"></path><path d="M 539.37 584.62 C 541.61 627.90 553.56 676.28 563.81 718.20 C 574.10 760.31 594.03 810.32 611.18 850.17 C 614.59 858.10 626.18 851.26 622.79 843.38 C 606.12 804.64 586.79 755.55 576.78 714.62 C 566.83 673.91 555.00 626.66 552.82 584.62 C 552.37 576.00 538.92 575.95 539.37 584.62 Z" fill="#000000" fill-rule="nonzero" node-id="154" stroke="none" target-height="282.15198" target-width="87.262024" target-x="538.919" target-y="575.948"></path><path d="M 591.78 573.51 C 614.50 595.75 630.94 622.87 647.76 649.58 C 665.43 677.65 680.21 707.26 694.97 736.92 C 698.83 744.68 710.43 737.87 706.59 730.13 C 691.52 699.85 676.33 669.76 658.31 641.10 C 641.27 613.99 624.32 586.54 601.29 564.00 C 595.10 557.94 585.58 567.45 591.78 573.51 Z" fill="#000000" fill-rule="nonzero" node-id="156" stroke="none" target-height="186.73303" target-width="124.85504" target-x="585.579" target-y="557.943"></path><path d="M 542.73 583.89 C 552.71 583.90 562.84 583.96 572.45 580.88 C 581.36 578.03 589.30 572.98 596.25 566.79 C 602.72 561.02 593.18 551.53 586.73 557.28 C 581.07 562.33 574.41 566.40 567.06 568.45 C 559.11 570.65 550.91 570.45 542.73 570.44 C 534.08 570.43 534.06 583.88 542.73 583.89 Z" fill="#000000" fill-rule="nonzero" node-id="158" stroke="none" target-height="32.422974" target-width="68.66101" target-x="534.061" target-y="551.533"></path><path d="M 534.32 530.09 C 539.18 530.07 544.29 529.92 548.96 531.46 C 553.26 532.87 557.11 535.65 561.03 537.86 C 568.55 542.09 575.88 552.89 581.00 559.50 C 583.32 562.50 589.14 559.81 591.50 557.50 C 594.37 554.70 589.21 548.36 587.00 545.50 C 584.79 542.64 581.00 537.86 578.49 535.37 C 573.78 530.73 571.06 528.10 566.26 525.37 C 561.56 522.70 556.95 519.71 551.68 518.26 C 546.08 516.71 540.10 516.61 534.32 516.64 C 525.67 516.68 525.65 530.13 534.32 530.09 Z" fill="#000000" fill-rule="nonzero" node-id="160" stroke="none" target-height="45.888977" target-width="68.712036" target-x="525.654" target-y="516.611"></path><path d="M 467.07 536.25 C 452.47 536.34 442.58 551.06 439.75 564.04 C 437.90 572.48 439.53 579.07 443.07 586.77 C 444.37 589.59 445.68 592.15 447.89 594.38 C 451.13 597.64 455.45 599.23 458.95 602.10 C 465.59 607.55 475.16 598.09 468.46 592.59 C 464.58 589.40 458.67 587.40 456.09 583.00 C 453.73 578.96 451.79 574.15 452.39 569.43 C 453.29 562.29 458.50 549.76 467.07 549.71 C 475.72 549.65 475.74 536.20 467.07 536.25 Z" fill="#000000" fill-rule="nonzero" node-id="162" stroke="none" target-height="71.349" target-width="37.839996" target-x="437.902" target-y="536.204"></path><path d="M 464.30 603.79 C 477.28 605.32 490.02 601.52 502.23 597.42 C 515.07 593.10 526.98 586.27 538.26 578.88 C 545.50 574.12 538.24 562.80 530.99 567.56 C 521.18 573.99 511.01 580.00 499.93 583.98 C 489.87 587.59 477.99 591.92 467.16 590.65 C 458.64 589.64 455.69 602.78 464.30 603.79 Z" fill="#000000" fill-rule="nonzero" node-id="164" stroke="none" target-height="42.516968" target-width="89.811005" target-x="455.691" target-y="562.802"></path><path d="M 493.92 922.12 C 505.49 924.51 547.00 921.05 556.50 919.05 C 566.00 917.05 575.50 913.05 587.29 909.15 C 590.91 908.66 592.82 904.05 591.98 900.88 C 590.96 896.98 587.58 896.01 584.00 896.50 C 573.79 898.37 564.50 902.45 554.00 905.00 C 543.63 907.52 507.93 911.30 497.50 909.15 C 489.05 907.41 485.44 920.37 493.92 922.12 Z" fill="#000000" fill-rule="nonzero" node-id="166" stroke="none" target-height="28.492004" target-width="107.382996" target-x="485.437" target-y="896.014"></path><path d="M 462.57 397.10 C 461.91 404.34 461.75 412.15 467.83 417.31 C 471.05 420.05 475.97 421.04 479.83 419.02 C 483.49 417.11 484.89 413.46 484.99 409.49 C 485.15 402.22 482.01 392.14 474.91 388.90 C 468.16 385.82 459.15 389.73 461.77 398.27 C 462.67 401.23 465.21 403.05 468.25 403.21 C 468.60 403.23 468.95 403.24 469.30 403.26 C 477.95 403.71 477.93 390.25 469.30 389.81 C 468.95 389.79 468.60 389.77 468.25 389.76 C 470.41 391.40 472.58 393.05 474.74 394.69 C 474.74 394.84 474.75 394.98 474.75 395.12 C 474.45 396.25 474.14 397.38 473.84 398.52 C 473.91 398.39 473.99 398.26 474.07 398.13 C 473.26 398.94 472.46 399.74 471.65 400.55 C 470.85 401.07 470.01 401.25 469.14 401.08 C 469.31 401.12 469.47 401.16 469.64 401.20 C 469.14 400.84 469.01 400.83 469.25 401.18 C 469.45 401.57 469.66 401.96 469.86 402.36 C 471.00 404.77 470.87 407.04 471.54 409.49 C 471.37 411.80 473.05 411.02 476.56 407.15 C 476.39 406.96 476.24 406.76 476.12 406.54 C 476.01 405.82 475.67 405.11 475.60 404.35 C 475.38 401.97 475.81 399.46 476.03 397.10 C 476.36 393.47 472.70 390.37 469.30 390.37 C 465.38 390.37 462.91 393.46 462.57 397.10 Z" fill="#000000" fill-rule="nonzero" node-id="168" stroke="none" target-height="35.21399" target-width="26.001007" target-x="459.151" target-y="385.825"></path><path d="M 523.67 474.44 C 531.78 473.93 538.57 470.61 544.11 464.62 C 550.00 458.28 540.50 448.75 534.60 455.11 C 531.52 458.44 528.10 460.71 523.67 460.99 C 520.04 461.22 516.94 463.92 516.94 467.72 C 516.94 471.18 520.02 474.67 523.67 474.44 Z" fill="#000000" fill-rule="nonzero" node-id="170" stroke="none" target-height="25.922028" target-width="33.054993" target-x="516.94" target-y="448.748"></path><path d="M 426.23 383.73 C 440.07 366.52 460.27 356.55 482.26 363.22 C 499.21 368.36 514.08 382.46 517.94 400.03 C 522.90 422.56 503.89 441.95 485.24 451.21 C 466.33 460.61 445.34 455.43 431.59 439.86 C 418.42 424.95 412.95 400.42 426.41 383.92 C 431.84 377.26 422.38 367.69 416.90 374.40 C 401.27 393.58 402.31 420.07 415.33 440.45 C 428.98 461.82 453.95 474.19 479.12 467.76 C 505.00 461.14 531.60 436.46 532.18 408.46 C 532.66 385.15 516.14 363.80 495.66 354.10 C 467.08 340.57 436.15 350.05 416.71 374.22 C 411.34 380.90 420.80 390.48 426.23 383.73 Z" fill="#000000" fill-rule="nonzero" node-id="172" stroke="none" target-height="133.625" target-width="131.393" target-x="401.266" target-y="340.567"></path><path d="M 542.72 327.60 C 494.90 328.21 511.57 397.53 545.39 408.32 C 556.18 411.76 566.79 407.49 574.38 399.61 C 580.39 393.38 570.89 383.85 564.87 390.10 C 562.67 392.38 559.72 394.65 557.31 395.46 C 554.75 396.31 552.61 396.29 550.68 395.83 C 545.16 394.50 540.38 390.47 536.48 385.50 C 528.81 375.76 522.98 360.21 527.44 349.09 C 528.14 347.34 530.10 344.80 531.93 343.64 C 534.97 341.71 538.75 341.10 542.72 341.05 C 551.37 340.94 551.39 327.49 542.72 327.60 Z" fill="#000000" fill-rule="nonzero" node-id="174" stroke="none" target-height="84.28003" target-width="85.49002" target-x="494.9" target-y="327.485"></path><path d="M 727.68 7.00 L 1549.35 7.00 C 1564.14 7.00 1576.25 19.11 1576.25 33.90 L 1576.25 585.42 C 1576.25 600.21 1564.14 612.32 1549.35 612.32 L 727.68 612.32 C 712.88 612.32 700.78 600.21 700.78 585.42 L 700.78 33.90 C 700.78 19.11 712.88 7.00 727.68 7.00 Z" fill="#ffffff" fill-rule="nonzero" node-id="176" stroke="#000000" stroke-linecap="butt" stroke-width="14" target-height="605.32" target-width="875.472" target-x="700.778" target-y="7"></path><path d="M 1575.69 95.00 L 700.22 95.00 L 700.22 108.45 L 1575.69 108.45 L 1575.69 95.00 Z" fill="#000000" fill-rule="nonzero" node-id="178" stroke="none" target-height="13.451897" target-width="875.4719" target-x="700.218" target-y="94.9961"></path><path d="M 754.82 71.07 C 762.38 71.07 768.50 64.94 768.50 57.38 C 768.50 49.82 762.38 43.70 754.82 43.70 C 747.26 43.70 741.13 49.82 741.13 57.38 C 741.13 64.94 747.26 71.07 754.82 71.07 Z" fill="#ff3f08" fill-rule="nonzero" node-id="180" stroke="none" target-height="27.3717" target-width="27.371033" target-x="741.133" target-y="43.6953"></path><path d="M 795.19 71.75 C 802.75 71.75 808.88 65.63 808.88 58.07 C 808.88 50.51 802.75 44.38 795.19 44.38 C 787.63 44.38 781.50 50.51 781.50 58.07 C 781.50 65.63 787.63 71.75 795.19 71.75 Z" fill="#ff3f08" fill-rule="nonzero" node-id="182" stroke="none" target-height="27.371601" target-width="27.37201" target-x="781.505" target-y="44.3809"></path><path d="M 838.98 71.75 C 846.54 71.75 852.67 65.63 852.67 58.07 C 852.67 50.51 846.54 44.38 838.98 44.38 C 831.42 44.38 825.30 50.51 825.30 58.07 C 825.30 65.63 831.42 71.75 838.98 71.75 Z" fill="#ff3f08" fill-rule="nonzero" node-id="184" stroke="none" target-height="27.371601" target-width="27.37201" target-x="825.297" target-y="44.3809"></path><path d="M 795.50 180.19 L 1135.15 180.19 C 1142.55 180.19 1148.60 186.24 1148.60 193.64 L 1148.60 401.02 C 1148.60 408.42 1142.55 414.47 1135.15 414.47 L 795.50 414.47 C 788.10 414.47 782.05 408.42 782.05 401.02 L 782.05 193.64 C 782.05 186.24 788.10 180.19 795.50 180.19 Z" fill="none" node-id="186" stroke="#315bf4" stroke-linecap="butt" stroke-width="12" target-height="234.28099" target-width="366.552" target-x="782.048" target-y="180.188"></path><path d="M 818.29 221.66 L 838.84 221.66 C 842.75 221.66 845.94 224.86 845.94 228.76 L 845.94 374.86 C 845.94 378.77 842.75 381.96 838.84 381.96 L 818.29 381.96 C 814.39 381.96 811.19 378.77 811.19 374.86 L 811.19 228.76 C 811.19 224.86 814.39 221.66 818.29 221.66 Z" fill="#d2e9fe" fill-rule="nonzero" node-id="188" stroke="none" target-height="160.297" target-width="34.749023" target-x="811.193" target-y="221.664"></path><path d="M 818.48 304.62 L 838.66 304.62 C 842.66 304.62 845.94 307.89 845.94 311.90 L 845.94 374.68 C 845.94 378.68 842.66 381.96 838.66 381.96 L 818.48 381.96 C 814.47 381.96 811.19 378.68 811.19 374.68 L 811.19 311.90 C 811.19 307.89 814.47 304.62 818.48 304.62 Z" fill="#315bf4" fill-rule="nonzero" node-id="190" stroke="none" target-height="77.347015" target-width="34.75" target-x="811.193" target-y="304.615"></path><path d="M 886.67 221.66 L 907.22 221.66 C 911.13 221.66 914.32 224.86 914.32 228.76 L 914.32 374.86 C 914.32 378.77 911.13 381.96 907.22 381.96 L 886.67 381.96 C 882.77 381.96 879.57 378.77 879.57 374.86 L 879.57 228.76 C 879.57 224.86 882.77 221.66 886.67 221.66 Z" fill="#d2e9fe" fill-rule="nonzero" node-id="192" stroke="none" target-height="160.297" target-width="34.748962" target-x="879.572" target-y="221.664"></path><path d="M 886.86 273.23 L 907.03 273.23 C 911.04 273.23 914.32 276.50 914.32 280.51 L 914.32 374.67 C 914.32 378.68 911.04 381.96 907.03 381.96 L 886.86 381.96 C 882.85 381.96 879.57 378.68 879.57 374.67 L 879.57 280.51 C 879.57 276.50 882.85 273.23 886.86 273.23 Z" fill="#315bf4" fill-rule="nonzero" node-id="194" stroke="none" target-height="108.733" target-width="34.75" target-x="879.572" target-y="273.227"></path><path d="M 955.05 221.66 L 975.60 221.66 C 979.50 221.66 982.70 224.86 982.70 228.76 L 982.70 374.86 C 982.70 378.77 979.50 381.96 975.60 381.96 L 955.05 381.96 C 951.14 381.96 947.95 378.77 947.95 374.86 L 947.95 228.76 C 947.95 224.86 951.14 221.66 955.05 221.66 Z" fill="#d2e9fe" fill-rule="nonzero" node-id="196" stroke="none" target-height="160.297" target-width="34.748962" target-x="947.95" target-y="221.664"></path><path d="M 955.24 233.99 L 975.41 233.99 C 979.42 233.99 982.70 237.27 982.70 241.28 L 982.70 374.68 C 982.70 378.68 979.42 381.96 975.41 381.96 L 955.24 381.96 C 951.23 381.96 947.95 378.68 947.95 374.68 L 947.95 241.28 C 947.95 237.27 951.23 233.99 955.24 233.99 Z" fill="#315bf4" fill-rule="nonzero" node-id="198" stroke="none" target-height="147.967" target-width="34.75" target-x="947.95" target-y="233.994"></path><path d="M 1023.43 221.66 L 1043.98 221.66 C 1047.88 221.66 1051.08 224.86 1051.08 228.76 L 1051.08 374.86 C 1051.08 378.77 1047.88 381.96 1043.98 381.96 L 1023.43 381.96 C 1019.52 381.96 1016.33 378.77 1016.33 374.86 L 1016.33 228.76 C 1016.33 224.86 1019.52 221.66 1023.43 221.66 Z" fill="#d2e9fe" fill-rule="nonzero" node-id="200" stroke="none" target-height="160.297" target-width="34.74994" target-x="1016.33" target-y="221.664"></path><path d="M 1023.62 296.77 L 1043.79 296.77 C 1047.80 296.77 1051.08 300.05 1051.08 304.05 L 1051.08 374.68 C 1051.08 378.68 1047.80 381.96 1043.79 381.96 L 1023.62 381.96 C 1019.61 381.96 1016.33 378.68 1016.33 374.68 L 1016.33 304.05 C 1016.33 300.05 1019.61 296.77 1023.62 296.77 Z" fill="#315bf4" fill-rule="nonzero" node-id="202" stroke="none" target-height="85.19299" target-width="34.74994" target-x="1016.33" target-y="296.768"></path><path d="M 1091.81 221.66 L 1112.36 221.66 C 1116.26 221.66 1119.46 224.86 1119.46 228.76 L 1119.46 374.86 C 1119.46 378.77 1116.26 381.96 1112.36 381.96 L 1091.81 381.96 C 1087.90 381.96 1084.71 378.77 1084.71 374.86 L 1084.71 228.76 C 1084.71 224.86 1087.90 221.66 1091.81 221.66 Z" fill="#d2e9fe" fill-rule="nonzero" node-id="204" stroke="none" target-height="160.297" target-width="34.75" target-x="1084.71" target-y="221.664"></path><path d="M 1091.99 279.95 L 1112.17 279.95 C 1116.18 279.95 1119.46 283.23 1119.46 287.24 L 1119.46 374.68 C 1119.46 378.68 1116.18 381.96 1112.17 381.96 L 1091.99 381.96 C 1087.99 381.96 1084.71 378.68 1084.71 374.68 L 1084.71 287.24 C 1084.71 283.23 1087.99 279.95 1091.99 279.95 Z" fill="#315bf4" fill-rule="nonzero" node-id="206" stroke="none" target-height="102.007996" target-width="34.75" target-x="1084.71" target-y="279.953"></path><path d="M 1132.91 501.90 L 797.74 501.90 C 786.03 501.90 776.44 492.32 776.44 480.61 C 776.44 468.89 786.03 459.31 797.74 459.31 L 1132.91 459.31 C 1144.62 459.31 1154.21 468.89 1154.21 480.61 C 1154.21 492.32 1144.62 501.90 1132.91 501.90 Z" fill="#d2e9fe" fill-rule="nonzero" node-id="208" stroke="none" target-height="42.59601" target-width="377.76697" target-x="776.443" target-y="459.309"></path><path d="M 1218.10 176.83 L 1497.22 176.83 C 1504.62 176.83 1510.67 182.88 1510.67 190.28 L 1510.67 509.75 C 1510.67 517.15 1504.62 523.20 1497.22 523.20 L 1218.10 523.20 C 1210.70 523.20 1204.65 517.15 1204.65 509.75 L 1204.65 190.28 C 1204.65 182.88 1210.70 176.83 1218.10 176.83 Z" fill="#398cff" fill-rule="nonzero" node-id="210" stroke="none" target-height="346.378" target-width="306.02002" target-x="1204.65" target-y="176.826"></path><path d="M 1255.09 214.94 L 1362.71 214.94 C 1370.11 214.94 1376.16 220.99 1376.16 228.39 L 1376.16 325.91 C 1376.16 333.31 1370.11 339.36 1362.71 339.36 L 1255.09 339.36 C 1247.70 339.36 1241.64 333.31 1241.64 325.91 L 1241.64 228.39 C 1241.64 220.99 1247.70 214.94 1255.09 214.94 Z" fill="#ffffff" fill-rule="nonzero" node-id="212" stroke="none" target-height="124.42601" target-width="134.52002" target-x="1241.64" target-y="214.938"></path><path d="M 1306.52 291.16 L 1313.52 291.16 C 1319.00 291.16 1323.47 295.64 1323.47 301.11 L 1323.47 310.36 C 1323.47 315.83 1319.00 320.31 1313.52 320.31 L 1306.52 320.31 C 1301.05 320.31 1296.57 315.83 1296.57 310.36 L 1296.57 301.11 C 1296.57 295.64 1301.05 291.16 1306.52 291.16 Z" fill="#315bf4" fill-rule="nonzero" node-id="214" stroke="none" target-height="29.14502" target-width="26.900024" target-x="1296.57" target-y="291.162"></path><path d="M 1308.90 302.37 C 1328.09 302.37 1343.65 286.81 1343.65 267.62 C 1343.65 248.43 1328.09 232.87 1308.90 232.87 C 1289.71 232.87 1274.15 248.43 1274.15 267.62 C 1274.15 286.81 1289.71 302.37 1308.90 302.37 Z" fill="#ff3f08" fill-rule="nonzero" node-id="216" stroke="none" target-height="69.499985" target-width="69.5" target-x="1274.15" target-y="232.873"></path><path d="M 1302.34 251.59 C 1310.06 248.51 1318.23 271.83 1307.95 269.79 C 1303.05 268.81 1301.45 262.33 1306.31 260.09 C 1309.05 258.82 1312.57 260.03 1315.03 261.42 C 1321.90 265.28 1324.84 272.82 1320.34 279.67 C 1319.15 281.48 1322.06 283.17 1323.24 281.36 C 1328.08 274.00 1326.09 265.52 1319.25 260.21 C 1314.27 256.34 1305.29 253.72 1301.20 260.23 C 1296.75 267.34 1303.28 274.83 1311.05 273.08 C 1317.35 271.66 1316.74 264.32 1315.01 259.56 C 1313.24 254.68 1307.94 245.75 1301.45 248.34 C 1299.46 249.14 1300.33 252.39 1302.34 251.59 Z" fill="#ffffff" fill-rule="nonzero" node-id="218" stroke="none" target-height="37.411987" target-width="31.329956" target-x="1296.75" target-y="245.754"></path><path d="M 1287.60 270.42 C 1287.74 278.00 1291.61 283.38 1298.93 285.50 C 1301.01 286.10 1301.90 282.85 1299.82 282.25 C 1293.95 280.55 1291.08 276.51 1290.97 270.42 C 1290.93 268.26 1287.56 268.25 1287.60 270.42 Z" fill="#ffffff" fill-rule="nonzero" node-id="220" stroke="none" target-height="17.843994" target-width="14.339966" target-x="1287.56" target-y="268.254"></path><path d="M 1298.25 304.33 C 1306.26 304.66 1314.09 310.47 1322.24 309.04 C 1324.37 308.66 1323.46 305.42 1321.35 305.79 C 1317.41 306.49 1312.49 304.40 1308.77 303.36 C 1305.36 302.40 1301.82 301.11 1298.25 300.97 C 1296.09 300.88 1296.09 304.25 1298.25 304.33 Z" fill="#ffffff" fill-rule="nonzero" node-id="222" stroke="none" target-height="9.587006" target-width="28.28003" target-x="1296.09" target-y="300.884"></path><path d="M 1296.68 310.16 C 1304.68 311.55 1312.37 316.72 1320.67 315.82 C 1322.80 315.60 1322.82 312.23 1320.67 312.46 C 1312.75 313.31 1305.24 308.25 1297.58 306.92 C 1295.46 306.55 1294.55 309.79 1296.68 310.16 Z" fill="#ffffff" fill-rule="nonzero" node-id="224" stroke="none" target-height="10.168976" target-width="28.269897" target-x="1294.55" target-y="306.549"></path><path d="M 1246.13 365.15 L 1473.68 365.15 C 1476.15 365.15 1478.17 367.17 1478.17 369.63 C 1478.17 372.10 1476.15 374.12 1473.68 374.12 L 1246.13 374.12 C 1243.66 374.12 1241.64 372.10 1241.64 369.63 C 1241.64 367.17 1243.66 365.15 1246.13 365.15 Z" fill="#ffffff" fill-rule="nonzero" node-id="226" stroke="none" target-height="8.967987" target-width="236.53003" target-x="1241.64" target-y="365.148"></path><path d="M 1246.13 402.14 L 1414.27 402.14 C 1416.74 402.14 1418.76 404.16 1418.76 406.62 C 1418.76 409.09 1416.74 411.11 1414.27 411.11 L 1246.13 411.11 C 1243.66 411.11 1241.64 409.09 1241.64 406.62 C 1241.64 404.16 1243.66 402.14 1246.13 402.14 Z" fill="#ffffff" fill-rule="nonzero" node-id="228" stroke="none" target-height="8.96698" target-width="177.12" target-x="1241.64" target-y="402.139"></path><path d="M 1246.13 438.01 L 1371.67 438.01 C 1374.14 438.01 1376.16 440.03 1376.16 442.49 C 1376.16 444.96 1374.14 446.98 1371.67 446.98 L 1246.13 446.98 C 1243.66 446.98 1241.64 444.96 1241.64 442.49 C 1241.64 440.03 1243.66 438.01 1246.13 438.01 Z" fill="#ffffff" fill-rule="nonzero" node-id="230" stroke="none" target-height="8.96698" target-width="134.52002" target-x="1241.64" target-y="438.01"></path><path d="M 1403.48 459.61 C 1403.50 459.50 1403.53 459.40 1403.55 459.30 C 1402.63 460.22 1401.72 461.13 1400.81 462.04 C 1403.68 461.16 1406.43 460.88 1407.10 464.35 C 1407.54 466.65 1406.48 470.00 1406.19 472.31 C 1405.70 476.28 1405.28 480.28 1405.12 484.28 C 1405.00 487.14 1405.17 490.44 1408.33 491.66 C 1411.69 492.94 1414.93 489.68 1417.24 487.68 C 1420.48 484.87 1422.99 479.98 1426.66 477.86 C 1428.19 476.98 1427.16 476.83 1428.34 477.52 C 1428.99 477.90 1429.67 479.69 1430.14 480.34 C 1431.17 481.75 1432.26 483.05 1433.80 483.91 C 1437.03 485.71 1440.61 484.88 1443.65 483.07 C 1447.57 480.74 1449.78 476.18 1453.56 474.04 C 1451.64 473.26 1449.72 472.48 1447.80 471.69 C 1448.92 477.69 1451.32 482.84 1457.57 484.77 C 1463.60 486.63 1467.39 481.07 1471.96 478.12 C 1470.17 477.65 1468.38 477.19 1466.59 476.71 C 1465.31 474.92 1467.08 477.35 1467.22 478.21 C 1467.48 479.83 1467.02 481.22 1467.77 482.80 C 1468.89 485.14 1471.68 486.91 1474.00 487.76 C 1481.14 490.39 1487.82 487.84 1492.52 482.26 C 1495.76 478.42 1490.23 472.84 1486.97 476.71 C 1485.52 478.44 1484.26 480.05 1482.00 480.72 C 1480.50 481.17 1476.05 481.16 1474.99 479.59 C 1474.56 478.95 1474.71 475.91 1474.39 474.88 C 1474.54 475.37 1473.67 473.19 1473.37 472.75 C 1472.18 471.09 1469.91 470.11 1468.00 471.35 C 1465.69 472.83 1463.73 475.16 1461.23 476.30 C 1459.39 477.14 1458.77 477.73 1456.94 475.15 C 1455.87 473.63 1455.69 471.36 1455.36 469.61 C 1454.88 467.05 1451.65 466.11 1449.60 467.26 C 1445.80 469.41 1443.28 475.91 1438.84 476.70 C 1435.70 477.25 1433.60 469.50 1429.36 468.83 C 1419.75 467.31 1416.44 481.79 1408.80 484.29 C 1410.07 484.62 1411.34 484.96 1412.62 485.29 C 1412.21 484.93 1413.56 476.76 1413.72 475.40 C 1414.19 471.21 1415.43 466.64 1414.77 462.42 C 1413.46 453.95 1406.01 452.23 1398.72 454.48 C 1397.45 454.87 1396.27 455.87 1395.98 457.22 C 1395.95 457.32 1395.93 457.42 1395.91 457.52 C 1394.85 462.44 1402.41 464.55 1403.48 459.61 Z" fill="#d2e9fe" fill-rule="nonzero" node-id="232" stroke="none" target-height="40.716003" target-width="100.910034" target-x="1394.85" target-y="452.225"></path><path d="M 1450.14 136.47 L 1759.53 136.47 C 1770.01 136.47 1778.58 145.05 1778.58 155.53 L 1778.58 263.14 C 1778.58 273.62 1770.01 282.20 1759.53 282.20 L 1450.14 282.20 C 1439.66 282.20 1431.09 273.62 1431.09 263.14 L 1431.09 155.53 C 1431.09 145.05 1439.66 136.47 1450.14 136.47 Z" fill="#d2e9fe" fill-rule="nonzero" node-id="234" stroke="none" target-height="145.72502" target-width="347.49" target-x="1431.09" target-y="136.471"></path><path d="M 1519.64 251.93 C 1545.64 251.93 1566.72 230.85 1566.72 204.85 C 1566.72 178.85 1545.64 157.77 1519.64 157.77 C 1493.64 157.77 1472.56 178.85 1472.56 204.85 C 1472.56 230.85 1493.64 251.93 1519.64 251.93 Z" fill="#315bf4" fill-rule="nonzero" node-id="236" stroke="none" target-height="94.15999" target-width="94.15991" target-x="1472.56" target-y="157.77"></path><path d="M 1519.64 211.58 C 1528.31 211.58 1535.34 204.55 1535.34 195.88 C 1535.34 187.22 1528.31 180.19 1519.64 180.19 C 1510.97 180.19 1503.95 187.22 1503.95 195.88 C 1503.95 204.55 1510.97 211.58 1519.64 211.58 Z" fill="#ffffff" fill-rule="nonzero" node-id="238" stroke="none" target-height="31.387009" target-width="31.390015" target-x="1503.95" target-y="180.189"></path><path d="M 1566.72 192.52 C 1573.53 192.52 1579.05 187.00 1579.05 180.19 C 1579.05 173.38 1573.53 167.86 1566.72 167.86 C 1559.91 167.86 1554.39 173.38 1554.39 180.19 C 1554.39 187.00 1559.91 192.52 1566.72 192.52 Z" fill="#ff3f08" fill-rule="nonzero" node-id="240" stroke="none" target-height="24.662003" target-width="24.660034" target-x="1554.39" target-y="167.857"></path><path d="M 1489.75 241.22 C 1489.75 241.22 1498.34 216.06 1518.52 213.82 C 1538.70 211.58 1548.79 241.84 1548.79 241.84 C 1548.79 241.84 1520.76 265.38 1489.75 241.22 Z" fill="#ffffff" fill-rule="nonzero" node-id="242" stroke="none" target-height="53.805008" target-width="59.04004" target-x="1489.75" target-y="211.576"></path><path d="M 1611.56 174.58 L 1722.54 174.58 C 1727.47 174.58 1731.50 178.62 1731.50 183.55 C 1731.50 188.48 1727.47 192.52 1722.54 192.52 L 1611.56 192.52 C 1606.63 192.52 1602.59 188.48 1602.59 183.55 C 1602.59 178.62 1606.63 174.58 1611.56 174.58 Z" fill="#315bf4" fill-rule="nonzero" node-id="244" stroke="none" target-height="17.934998" target-width="128.91003" target-x="1602.59" target-y="174.584"></path><path d="M 1611.56 223.91 L 1668.73 223.91 C 1673.66 223.91 1677.70 227.94 1677.70 232.87 C 1677.70 237.81 1673.66 241.84 1668.73 241.84 L 1611.56 241.84 C 1606.63 241.84 1602.59 237.81 1602.59 232.87 C 1602.59 227.94 1606.63 223.91 1611.56 223.91 Z" fill="#315bf4" fill-rule="nonzero" node-id="246" stroke="none" target-height="17.93599" target-width="75.109985" target-x="1602.59" target-y="223.906"></path><path d="M 1121.70 700.32 C 1117.99 700.32 1114.97 697.30 1114.97 693.59 L 1114.97 486.21 C 1114.97 482.50 1117.99 479.49 1121.70 479.49 L 1362.71 479.49 C 1366.42 479.49 1369.43 482.50 1369.43 486.21 L 1369.43 693.59 C 1369.43 697.30 1366.42 700.32 1362.71 700.32 L 1121.70 700.32 Z" fill="#ffffff" fill-rule="nonzero" node-id="248" stroke="none" target-height="220.82999" target-width="254.46008" target-x="1114.97" target-y="479.486"></path><path d="M 1362.68 486.21 C 1362.69 486.22 1362.70 486.22 1362.70 486.22 C 1362.71 486.22 1362.71 486.22 1362.71 486.21 L 1362.72 693.55 C 1362.71 693.56 1362.69 693.59 1362.71 693.59 L 1121.74 693.60 C 1121.73 693.60 1121.71 693.58 1121.71 693.58 C 1121.70 693.58 1121.70 693.58 1121.70 693.59 L 1121.69 486.25 C 1121.70 486.24 1121.72 486.21 1121.70 486.21 L 1362.68 486.21 M 1362.71 472.76 L 1121.70 472.76 C 1114.30 472.76 1108.25 478.81 1108.25 486.21 L 1108.25 693.59 C 1108.25 700.99 1114.30 707.04 1121.70 707.04 L 1362.71 707.04 C 1370.11 707.04 1376.16 700.99 1376.16 693.59 L 1376.16 486.21 C 1376.16 478.81 1370.11 472.76 1362.71 472.76 Z" fill="#000000" fill-rule="nonzero" node-id="250" stroke="none" target-height="234.281" target-width="267.91003" target-x="1108.25" target-y="472.76"></path><path d="M 1178.87 575.89 C 1184.42 575.89 1188.96 580.43 1188.96 585.98 L 1188.96 652.58 C 1188.96 653.56 1188.16 654.36 1187.18 654.36 L 1170.28 654.36 C 1169.45 654.36 1168.78 653.68 1168.78 652.86 L 1168.78 585.98 C 1168.78 580.43 1173.32 575.89 1178.87 575.89 Z" fill="#315bf4" fill-rule="nonzero" node-id="252" stroke="none" target-height="78.46704" target-width="20.179932" target-x="1168.78" target-y="575.889"></path><path d="M 1148.60 531.42 C 1148.60 573.27 1148.60 615.12 1148.60 656.97 C 1148.60 661.30 1155.33 661.31 1155.33 656.97 C 1155.33 615.12 1155.33 573.27 1155.33 531.42 C 1155.33 527.10 1148.60 527.09 1148.60 531.42 Z" fill="#000000" fill-rule="nonzero" node-id="254" stroke="none" target-height="134.21698" target-width="6.7299805" target-x="1148.6" target-y="527.09"></path><path d="M 1152.53 660.52 C 1206.35 660.52 1260.17 660.52 1313.99 660.52 C 1322.19 660.52 1330.40 660.52 1338.61 660.52 C 1342.93 660.52 1342.94 653.80 1338.61 653.80 C 1285.37 653.80 1232.13 653.80 1178.89 653.80 C 1170.10 653.80 1161.31 653.80 1152.53 653.80 C 1148.20 653.80 1148.19 660.52 1152.53 660.52 Z" fill="#000000" fill-rule="nonzero" node-id="256" stroke="none" target-height="6.726013" target-width="194.75" target-x="1148.19" target-y="653.797"></path><path d="M 1227.07 518.72 C 1232.62 518.72 1237.16 523.26 1237.16 528.81 L 1237.16 652.58 C 1237.16 653.56 1236.36 654.36 1235.38 654.36 L 1218.48 654.36 C 1217.66 654.36 1216.98 653.68 1216.98 652.86 L 1216.98 528.81 C 1216.98 523.26 1221.52 518.72 1227.07 518.72 Z" fill="#ff3f08" fill-rule="nonzero" node-id="258" stroke="none" target-height="135.63599" target-width="20.180054" target-x="1216.98" target-y="518.719"></path><path d="M 1275.27 571.40 C 1280.82 571.40 1285.36 575.94 1285.36 581.49 L 1285.36 652.58 C 1285.36 653.56 1284.56 654.36 1283.59 654.36 L 1266.68 654.36 C 1265.86 654.36 1265.18 653.68 1265.18 652.86 L 1265.18 581.49 C 1265.18 575.94 1269.72 571.40 1275.27 571.40 Z" fill="#315bf4" fill-rule="nonzero" node-id="260" stroke="none" target-height="82.95203" target-width="20.179932" target-x="1265.18" target-y="571.404"></path><path d="M 1316.75 612.88 C 1322.30 612.88 1326.84 617.42 1326.84 622.97 L 1326.84 652.58 C 1326.84 653.56 1326.04 654.36 1325.06 654.36 L 1308.15 654.36 C 1307.33 654.36 1306.66 653.68 1306.66 652.86 L 1306.66 622.97 C 1306.66 617.42 1311.20 612.88 1316.75 612.88 Z" fill="#315bf4" fill-rule="nonzero" node-id="262" stroke="none" target-height="41.475037" target-width="20.179932" target-x="1306.66" target-y="612.881"></path><path d="M 1502.83 740.67 L 1621.65 635.30" fill="none" node-id="264" stroke="#d2e9fe" stroke-linecap="butt" stroke-width="12" target-height="105.369995" target-width="118.82007" target-x="1502.83" target-y="635.301"></path><path d="M 1639.58 638.66 L 1731.50 721.61" fill="none" node-id="266" stroke="#d2e9fe" stroke-linecap="butt" stroke-width="12" target-height="82.95099" target-width="91.920044" target-x="1639.58" target-y="638.662"></path><path d="M 1748.32 712.65 L 1860.41 607.27" fill="none" node-id="268" stroke="#d2e9fe" stroke-linecap="butt" stroke-width="12" target-height="105.37097" target-width="112.09009" target-x="1748.32" target-y="607.275"></path><path d="M 1489.38 769.82 C 1501.76 769.82 1511.80 759.78 1511.80 747.40 C 1511.80 735.01 1501.76 724.98 1489.38 724.98 C 1476.99 724.98 1466.96 735.01 1466.96 747.40 C 1466.96 759.78 1476.99 769.82 1489.38 769.82 Z" fill="#315bf4" fill-rule="nonzero" node-id="270" stroke="none" target-height="44.838013" target-width="44.840088" target-x="1466.96" target-y="724.977"></path><path d="M 1625.01 659.96 C 1644.20 659.96 1659.76 644.40 1659.76 625.21 C 1659.76 606.02 1644.20 590.46 1625.01 590.46 C 1605.82 590.46 1590.26 606.02 1590.26 625.21 C 1590.26 644.40 1605.82 659.96 1625.01 659.96 Z" fill="#315bf4" fill-rule="nonzero" node-id="272" stroke="none" target-height="69.5" target-width="69.5" target-x="1590.26" target-y="590.461"></path><path d="M 1739.35 744.03 C 1753.59 744.03 1765.13 732.49 1765.13 718.25 C 1765.13 704.01 1753.59 692.47 1739.35 692.47 C 1725.11 692.47 1713.57 704.01 1713.57 718.25 C 1713.57 732.49 1725.11 744.03 1739.35 744.03 Z" fill="#315bf4" fill-rule="nonzero" node-id="274" stroke="none" target-height="51.564026" target-width="51.56006" target-x="1713.57" target-y="692.469"></path><path d="M 1869.38 618.49 C 1883.00 618.49 1894.04 607.45 1894.04 593.83 C 1894.04 580.21 1883.00 569.16 1869.38 569.16 C 1855.76 569.16 1844.72 580.21 1844.72 593.83 C 1844.72 607.45 1855.76 618.49 1869.38 618.49 Z" fill="#315bf4" fill-rule="nonzero" node-id="276" stroke="none" target-height="49.32202" target-width="49.32007" target-x="1844.72" target-y="569.164"></path><path d="M 671.07 737.31 L 1024.18 737.31 C 1031.57 737.31 1037.63 743.36 1037.63 750.76 L 926.65 1004.10 C 926.65 1011.49 920.60 1017.55 913.20 1017.55 L 560.10 1017.55 C 552.70 1017.55 546.65 1011.49 546.65 1004.10 L 657.62 750.76 C 660.98 741.79 663.67 737.31 671.07 737.31 Z" fill="#d2e9fe" fill-rule="nonzero" node-id="278" stroke="none" target-height="280.24298" target-width="490.984" target-x="546.646" target-y="737.307"></path><path d="M 792.14 894.24 C 801.42 894.24 808.95 886.71 808.95 877.43 C 808.95 868.14 801.42 860.61 792.14 860.61 C 782.85 860.61 775.32 868.14 775.32 877.43 C 775.32 886.71 782.85 894.24 792.14 894.24 Z" fill="#ffffff" fill-rule="nonzero" node-id="280" stroke="none" target-height="33.62903" target-width="33.628967" target-x="775.322" target-y="860.613"></path><path d="M 13.45 1004.10 L 1849.03 1004.10 C 1856.43 1004.10 1862.48 1010.15 1862.48 1017.55 C 1862.48 1024.95 1856.43 1031.00 1849.03 1031.00 L 13.45 1031.00 C 6.05 1031.00 0.00 1024.95 0.00 1017.55 C 0.00 1010.15 6.05 1004.10 13.45 1004.10 Z" fill="#000000" fill-rule="nonzero" node-id="282" stroke="none" target-height="26.900024" target-width="1862.48" target-x="0" target-y="1004.1"></path></svg>