<?xml version="1.0" standalone="no"?><!DOCTYPE svg PUBLIC "-//W3C//DTD SVG 1.1//EN" "http://www.w3.org/Graphics/SVG/1.1/DTD/svg11.dtd"><svg t="1688967510790" class="icon" viewBox="0 0 1111 1024" version="1.1" xmlns="http://www.w3.org/2000/svg" p-id="5654" xmlns:xlink="http://www.w3.org/1999/xlink" width="216.9921875" height="200"><path d="M1081.948491 847.426121L802.969163 569.088771c57.096021-31.239917 122.619749-49.0243 192.372331-49.024301 5.018826 0 9.889657 0.652977 14.849485 0.859971V164.595794c0-32.702866-26.607078-59.210947-59.377942-59.210947H338.128278l-89.096911-88.888919h731.429642c65.592726 0 118.765883 53.055161 118.765883 118.508892v651.61041c0 22.358225-6.421777 43.066507-17.279401 60.810891z m-264.79082-623.590381c41.000579 0 74.227427 33.146851 74.227426 74.079432 0 40.882583-33.226848 74.049433-74.227426 74.049433-41.002579 0-74.228427-33.17685-74.228427-74.049433 0.01-40.932581 33.225848-74.079432 74.227427-74.079432z m226.190158 773.557182c-17.399397 17.359398-45.605419 17.359398-63.004816 0L56.601038 75.85487c-17.399397-17.349399-17.399397-45.498423 0-62.857821 17.398397-17.329399 45.605419-17.329399 63.003816 0l923.742975 921.560052c17.369398 17.369398 17.369398 45.477423 0 62.835821zM89.736889 253.456713v592.459461-325.850704c67.963644-36.248743 145.333962-57.007024 227.376117-58.646966l533.841493 532.577536H119.42786C53.834134 993.99504 0.660977 940.909881 0.660977 875.485149V223.83574c0-22.329226 6.559773-43.008509 17.339399-60.840891l74.316424 74.13843c-1.511948 5.216819-2.578911 10.631631-2.578911 16.322434z m0 0" fill="#333333" p-id="5655"></path></svg>