<?xml version="1.0" standalone="no"?><!DOCTYPE svg PUBLIC "-//W3C//DTD SVG 1.1//EN" "http://www.w3.org/Graphics/SVG/1.1/DTD/svg11.dtd"><svg t="1705655742457" class="icon" viewBox="0 0 1024 1024" version="1.1" xmlns="http://www.w3.org/2000/svg" p-id="10750" xmlns:xlink="http://www.w3.org/1999/xlink" width="200" height="200"><path d="M513 338.6c95.7 0 173.5 77.8 173.5 173.5S608.7 685.6 513 685.6s-173.5-77.8-173.5-173.5c0-95.6 77.9-173.5 173.5-173.5m0-55.5c-126.5 0-229 102.5-229 229s102.5 229.1 229 229.1 229.1-102.6 229.1-229.1-102.6-229-229.1-229z" fill="#3574F0" p-id="10751"></path><path d="M512.1 238.1c-15.3 0-27.8-12.4-27.8-27.8V92.5c0-15.3 12.4-27.8 27.8-27.8 15.3 0 27.8 12.4 27.8 27.8v117.8c0 15.3-12.5 27.8-27.8 27.8zM512.1 959.6c-15.3 0-27.8-12.4-27.8-27.8V814c0-15.3 12.4-27.8 27.8-27.8 15.3 0 27.8 12.4 27.8 27.8v117.8c0 15.3-12.5 27.8-27.8 27.8zM298.7 326.5c-7.1 0-14.2-2.7-19.6-8.1L195.7 235c-10.9-10.8-10.9-28.4 0-39.3 10.9-10.9 28.4-10.9 39.3 0l83.3 83.3c10.9 10.8 10.9 28.4 0 39.3-5.4 5.5-12.5 8.2-19.6 8.2zM808.8 836.7c-7.1 0-14.2-2.7-19.6-8.1l-83.3-83.3a27.704 27.704 0 0 1 0-39.3c10.9-10.9 28.4-10.9 39.3 0l83.3 83.3c10.9 10.9 10.9 28.4 0 39.3-5.5 5.3-12.6 8.1-19.7 8.1z" fill="#4C4F54" p-id="10752"></path><path d="M210.3 539.9H92.4c-15.3 0-27.8-12.4-27.8-27.8s12.4-27.8 27.8-27.8h117.8c15.3 0 27.8 12.4 27.8 27.8s-12.4 27.8-27.7 27.8zM931.8 539.9H813.9c-15.3 0-27.8-12.4-27.8-27.8s12.4-27.8 27.8-27.8h117.8c15.3 0 27.8 12.4 27.8 27.8s-12.4 27.8-27.7 27.8z" fill="#4C4F54" p-id="10753"></path><path d="M215.4 836.7c-7.1 0-14.2-2.7-19.6-8.1a27.704 27.704 0 0 1 0-39.3l83.3-83.3c10.9-10.9 28.4-10.9 39.3 0 10.9 10.9 10.9 28.4 0 39.3L235 828.5c-5.4 5.4-12.5 8.2-19.6 8.2zM725.5 326.5c-7.1 0-14.2-2.7-19.6-8.1-10.9-10.8-10.9-28.4 0-39.3l83.3-83.3c10.9-10.9 28.4-10.9 39.3 0 10.9 10.8 10.9 28.4 0 39.3l-83.3 83.3c-5.5 5.4-12.6 8.1-19.7 8.1z" fill="#4C4F54" p-id="10754"></path></svg>