<?xml version="1.0" standalone="no"?><!DOCTYPE svg PUBLIC "-//W3C//DTD SVG 1.1//EN" "http://www.w3.org/Graphics/SVG/1.1/DTD/svg11.dtd"><svg height="1309" node-id="1" sillyvg="true" template-height="1309" template-width="1326" version="1.1" viewBox="0 0 1326 1309" width="1326" xmlns="http://www.w3.org/2000/svg" xmlns:xlink="http://www.w3.org/1999/xlink"><defs node-id="92"><linearGradient gradientUnits="userSpaceOnUse" id="paint0_linear_1702_19063" node-id="43" spreadMethod="pad" x1="387.878" x2="387.878" y1="331.053" y2="1020"><stop offset="0.02" stop-color="#bfd1ff"></stop><stop offset="1" stop-color="#ffffff"></stop></linearGradient><linearGradient gradientUnits="userSpaceOnUse" id="paint1_linear_1702_19063" node-id="46" spreadMethod="pad" x1="503.878" x2="503.878" y1="365.824" y2="937.614"><stop offset="0.02" stop-color="#2575f2"></stop><stop offset="1" stop-color="#6a11c1"></stop></linearGradient><linearGradient gradientUnits="userSpaceOnUse" id="paint2_linear_1702_19063" node-id="49" spreadMethod="pad" x1="623.391" x2="623.391" y1="465.836" y2="1106.82"><stop offset="0.02" stop-color="#bfd1ff"></stop><stop offset="1" stop-color="#ffffff"></stop></linearGradient><linearGradient gradientUnits="userSpaceOnUse" id="paint3_linear_1702_19063" node-id="52" spreadMethod="pad" x1="441.598" x2="441.598" y1="1216.26" y2="911.045"><stop offset="0" stop-color="#a278de"></stop><stop offset="1" stop-color="#80a8f6"></stop></linearGradient><linearGradient gradientUnits="userSpaceOnUse" id="paint4_linear_1702_19063" node-id="55" spreadMethod="pad" x1="709.965" x2="526.192" y1="1126.4" y2="1091.45"><stop offset="0.02" stop-color="#2575f2"></stop><stop offset="1" stop-color="#b881ff"></stop></linearGradient><linearGradient gradientUnits="userSpaceOnUse" id="paint5_linear_1702_19063" node-id="58" spreadMethod="pad" x1="299.418" x2="954.779" y1="592.28" y2="238.587"><stop offset="0.02" stop-color="#2575f2"></stop><stop offset="1" stop-color="#b881ff"></stop></linearGradient><linearGradient gradientUnits="userSpaceOnUse" id="paint6_linear_1702_19063" node-id="61" spreadMethod="pad" x1="1113.11" x2="1113.11" y1="960.529" y2="1096.71"><stop offset="0.02" stop-color="#bfd1ff"></stop><stop offset="1" stop-color="#ffffff"></stop></linearGradient><linearGradient gradientUnits="userSpaceOnUse" id="paint7_linear_1702_19063" node-id="64" spreadMethod="pad" x1="1113.56" x2="1113.56" y1="977.731" y2="1059.15"><stop offset="0.02" stop-color="#bfd1ff"></stop><stop offset="1" stop-color="#ffffff"></stop></linearGradient><linearGradient gradientUnits="userSpaceOnUse" id="paint8_linear_1702_19063" node-id="67" spreadMethod="pad" x1="1112.2" x2="1112.2" y1="991.498" y2="1027.84"><stop offset="0.02" stop-color="#bfd1ff"></stop><stop offset="1" stop-color="#ffffff"></stop></linearGradient><linearGradient gradientUnits="userSpaceOnUse" id="paint9_linear_1702_19063" node-id="70" spreadMethod="pad" x1="1034.33" x2="1034.33" y1="954.11" y2="472.384"><stop offset="0" stop-color="#a278de"></stop><stop offset="1" stop-color="#80a8f6"></stop></linearGradient><linearGradient gradientUnits="userSpaceOnUse" id="paint10_linear_1702_19063" node-id="73" spreadMethod="pad" x1="1242.44" x2="876.912" y1="731.906" y2="628.141"><stop offset="0.02" stop-color="#2575f2"></stop><stop offset="1" stop-color="#b881ff"></stop></linearGradient><linearGradient gradientUnits="userSpaceOnUse" id="paint11_linear_1702_19063" node-id="76" spreadMethod="pad" x1="1128.9" x2="1128.9" y1="680.247" y2="776.524"><stop offset="0.02" stop-color="#bfd1ff"></stop><stop offset="1" stop-color="#ffffff"></stop></linearGradient><linearGradient gradientUnits="userSpaceOnUse" id="paint12_linear_1702_19063" node-id="79" spreadMethod="pad" x1="1093.7" x2="1093.7" y1="754.07" y2="872.962"><stop offset="0.02" stop-color="#bfd1ff"></stop><stop offset="1" stop-color="#ffffff"></stop></linearGradient><linearGradient gradientUnits="userSpaceOnUse" id="paint13_linear_1702_19063" node-id="82" spreadMethod="pad" x1="1093.7" x2="1093.7" y1="792.883" y2="911.775"><stop offset="0.02" stop-color="#bfd1ff"></stop><stop offset="1" stop-color="#ffffff"></stop></linearGradient><linearGradient gradientUnits="userSpaceOnUse" id="paint14_linear_1702_19063" node-id="85" spreadMethod="pad" x1="1093.7" x2="1093.7" y1="831.697" y2="950.589"><stop offset="0.02" stop-color="#bfd1ff"></stop><stop offset="1" stop-color="#ffffff"></stop></linearGradient><linearGradient gradientUnits="userSpaceOnUse" id="paint15_linear_1702_19063" node-id="88" spreadMethod="pad" x1="1163.65" x2="1163.65" y1="848.305" y2="910.335"><stop offset="0.02" stop-color="#bfd1ff"></stop><stop offset="1" stop-color="#ffffff"></stop></linearGradient></defs><path d="M 32.00 483.99 C 32.00 468.64 42.83 450.59 55.47 443.37 L 720.27 65.16 C 732.91 57.94 743.74 63.36 743.74 78.70 L 743.74 602.44 C 743.74 617.78 732.91 635.84 720.27 643.06 L 55.47 1021.26 C 42.83 1028.49 32.00 1023.07 32.00 1007.73 L 32.00 483.99 Z" fill="url(#paint0_linear_1702_19063)" fill-opacity="0.6" fill-rule="nonzero" node-id="191" stroke="none" target-height="970.55" target-width="711.74" target-x="32" target-y="57.94"></path><path d="M 148.00 531.99 C 148.00 516.64 158.83 498.59 171.47 491.37 L 836.27 113.16 C 848.91 105.94 859.74 111.36 859.74 126.70 L 859.74 650.44 C 859.74 665.78 848.91 683.84 836.27 691.06 L 171.47 1069.26 C 158.83 1076.49 148.00 1071.07 148.00 1055.73 L 148.00 531.99 Z" fill="url(#paint1_linear_1702_19063)" fill-rule="nonzero" node-id="193" stroke="none" target-height="970.55" target-width="711.74" target-x="148" target-y="105.94"></path><path d="M 274.51 637.50 C 274.51 622.16 285.35 604.10 297.98 596.88 L 948.79 218.67 C 961.42 211.45 972.26 216.87 972.26 232.21 L 972.26 688.95 C 972.26 704.30 961.42 722.35 948.79 729.57 L 297.98 1107.78 C 285.35 1115.00 274.51 1109.58 274.51 1094.24 L 274.51 637.50 Z" fill="url(#paint2_linear_1702_19063)" fill-rule="nonzero" node-id="195" stroke="none" target-height="903.55" target-width="697.75" target-x="274.51" target-y="211.45"></path><path d="M 271.00 619.13 C 271.00 614.83 273.30 610.87 277.02 608.73 L 464.17 501.16 C 476.80 493.94 487.63 499.36 487.63 514.70 L 487.63 971.44 C 487.63 986.78 476.80 1004.84 464.17 1012.06 L 288.98 1112.75 C 280.98 1117.35 271.00 1111.57 271.00 1102.34 L 271.00 619.13 Z" fill="#ffffff" fill-rule="nonzero" node-id="197" stroke="none" target-height="623.41" target-width="216.63" target-x="271" target-y="493.94"></path><path d="M 923.75 408.70 C 923.75 399.06 913.31 393.03 904.96 397.85 L 801.99 457.31 C 798.02 459.60 795.57 463.84 795.57 468.43 C 795.57 478.34 806.33 484.52 814.89 479.51 L 917.54 419.51 C 921.38 417.26 923.75 413.15 923.75 408.70 Z" fill="#8b87ff" fill-rule="nonzero" node-id="199" stroke="none" target-height="91.48999" target-width="128.18" target-x="795.57" target-y="393.03"></path><path d="M 923.75 458.36 C 923.75 448.72 913.30 442.71 904.97 447.55 L 723.43 552.98 C 719.48 555.28 717.04 559.51 717.04 564.09 C 717.04 574.01 727.81 580.18 736.37 575.17 L 917.56 469.15 C 921.39 466.91 923.75 462.80 923.75 458.36 Z" fill="#5c52e1" fill-rule="nonzero" node-id="201" stroke="none" target-height="137.47" target-width="206.71002" target-x="717.04" target-y="442.71"></path><path d="M 923.75 507.98 C 923.75 498.36 913.31 492.35 904.99 497.18 L 671.81 632.52 C 667.96 634.75 665.59 638.87 665.59 643.32 C 665.59 652.95 676.02 658.96 684.35 654.12 L 917.53 518.79 C 921.38 516.55 923.75 512.43 923.75 507.98 Z" fill="#0fd3ff" fill-rule="nonzero" node-id="203" stroke="none" target-height="166.61002" target-width="258.15997" target-x="665.59" target-y="492.35"></path><path d="M 923.75 607.29 C 923.75 597.65 913.30 591.64 904.97 596.48 L 671.99 731.71 C 668.03 734.00 665.59 738.24 665.59 742.82 C 665.59 752.74 676.36 758.92 684.92 753.92 L 917.55 618.09 C 921.39 615.84 923.75 611.73 923.75 607.29 Z" fill="#f68bc6" fill-rule="nonzero" node-id="205" stroke="none" target-height="167.27997" target-width="258.15997" target-x="665.59" target-y="591.64"></path><path d="M 692.67 593.44 C 692.67 583.53 681.94 577.34 673.36 582.29 L 594.25 627.99 C 590.36 630.23 587.96 634.38 587.96 638.88 C 587.96 648.52 598.38 654.58 606.76 649.81 L 686.16 604.63 C 690.19 602.34 692.67 598.07 692.67 593.44 Z" fill="#8b87ff" fill-rule="nonzero" node-id="207" stroke="none" target-height="77.23999" target-width="104.70996" target-x="587.96" target-y="577.34"></path><path d="M 781.13 491.69 C 781.13 482.07 770.71 476.05 762.37 480.85 L 538.27 609.95 C 534.39 612.19 532.00 616.32 532.00 620.80 C 532.00 630.42 542.42 636.45 550.76 631.64 L 774.86 502.54 C 778.74 500.31 781.13 496.17 781.13 491.69 Z" fill="#0fd3ff" fill-rule="nonzero" node-id="209" stroke="none" target-height="160.40002" target-width="249.13" target-x="532" target-y="476.05"></path><path d="M 382.80 650.81 C 419.80 630.04 449.59 647.20 449.59 689.62 C 449.59 732.04 419.80 784.40 382.80 805.16 C 345.79 826.82 316.00 808.77 316.00 766.34 C 316.00 723.92 346.69 672.47 382.80 650.81 Z" fill="#f68bc6" fill-rule="nonzero" node-id="211" stroke="none" target-height="196.78003" target-width="133.59" target-x="316" target-y="630.04"></path><path d="M 446.88 820.54 C 446.88 810.89 436.44 804.87 428.09 809.69 L 325.13 869.15 C 321.15 871.44 318.71 875.68 318.71 880.27 C 318.71 890.18 329.47 896.36 338.03 891.35 L 440.68 831.35 C 444.52 829.11 446.88 824.99 446.88 820.54 Z" fill="#8b87ff" fill-rule="nonzero" node-id="213" stroke="none" target-height="91.48999" target-width="128.17001" target-x="318.71" target-y="804.87"></path><path d="M 446.88 872.63 C 446.88 862.70 436.13 856.50 427.54 861.46 L 325.16 920.58 C 321.17 922.89 318.71 927.14 318.71 931.75 C 318.71 941.68 329.46 947.89 338.06 942.92 L 440.44 883.80 C 444.43 881.50 446.88 877.24 446.88 872.63 Z" fill="#0fd3ff" fill-rule="nonzero" node-id="215" stroke="none" target-height="91.390015" target-width="128.17001" target-x="318.71" target-y="856.5"></path><path d="M 446.88 924.34 C 446.88 914.70 436.44 908.67 428.09 913.49 L 325.13 972.95 C 321.15 975.25 318.71 979.49 318.71 984.07 C 318.71 993.99 329.47 1000.16 338.03 995.16 L 440.68 935.15 C 444.52 932.91 446.88 928.79 446.88 924.34 Z" fill="#8b87ff" fill-rule="nonzero" node-id="217" stroke="none" target-height="91.48999" target-width="128.17001" target-x="318.71" target-y="908.67"></path><g node-id="289"><path d="M 677.78 829.27 C 671.46 823.85 662.43 822.04 655.21 826.56 L 239.09 1066.66 C 232.78 1070.27 227.36 1079.30 227.36 1087.42 L 227.36 1126.24 L 204.79 1175.88 C 202.09 1182.20 206.60 1189.42 213.82 1189.42 L 227.36 1189.42 L 227.36 1261.63 C 227.36 1268.85 231.87 1275.17 238.19 1276.98 C 240.90 1277.88 241.80 1276.98 244.51 1276.07 L 666.04 1032.36 C 672.36 1028.75 678.68 1019.72 678.68 1012.50 L 678.68 832.88 C 679.59 831.97 678.68 830.17 677.78 829.27 Z" fill="url(#paint3_linear_1702_19063)" fill-opacity="0.6" fill-rule="nonzero" group-id="1" node-id="221" stroke="none" target-height="455.84003" target-width="477.50003" target-x="202.09" target-y="822.04"></path></g><path d="M 716.59 868.49 C 716.59 861.27 711.17 857.65 704.85 861.27 L 285.12 1104.08 C 278.80 1107.69 273.39 1116.71 273.39 1124.84 L 273.39 1163.65 L 250.82 1213.30 C 248.11 1219.62 252.63 1226.84 259.85 1226.84 L 273.39 1226.84 L 273.39 1299.95 C 273.39 1307.17 278.80 1310.78 285.12 1307.17 L 704.85 1064.36 C 711.17 1060.75 716.59 1051.72 716.59 1043.60 L 716.59 868.49 Z" fill="#ffffff" fill-rule="nonzero" node-id="224" stroke="none" target-height="453.13" target-width="468.48004" target-x="248.11" target-y="857.65"></path><path d="M 419.62 1069.02 C 419.62 1084.51 436.46 1094.12 449.79 1086.23 L 533.46 1036.77 C 539.54 1033.17 543.28 1026.63 543.28 1019.55 L 543.28 1015.69 C 543.28 1000.16 526.34 990.55 513.01 998.53 L 429.34 1048.61 C 423.31 1052.22 419.62 1058.74 419.62 1065.77 L 419.62 1069.02 Z" fill="#f68bc6" fill-rule="nonzero" node-id="226" stroke="none" target-height="103.57001" target-width="123.660034" target-x="419.62" target-y="990.55"></path><path d="M 407.88 1197.31 C 407.88 1202.43 413.40 1205.65 417.86 1203.13 L 539.71 1134.08 C 541.91 1132.83 543.28 1130.49 543.28 1127.96 C 543.28 1122.55 537.43 1119.16 532.74 1121.85 L 411.24 1191.51 C 409.16 1192.70 407.88 1194.92 407.88 1197.31 Z" fill="#f68bc6" fill-rule="nonzero" node-id="228" stroke="none" target-height="86.48999" target-width="135.40002" target-x="407.88" target-y="1119.16"></path><path d="M 300.47 1227.98 C 300.47 1233.10 306.00 1236.31 310.44 1233.76 L 539.74 1102.49 C 541.93 1101.24 543.28 1098.91 543.28 1096.39 C 543.28 1090.98 537.42 1087.59 532.73 1090.29 L 303.80 1222.21 C 301.74 1223.40 300.47 1225.60 300.47 1227.98 Z" fill="#f68bc6" fill-rule="nonzero" node-id="230" stroke="none" target-height="148.7201" target-width="242.81003" target-x="300.47" target-y="1087.59"></path><path d="M 300.47 1192.10 C 300.47 1197.51 306.32 1200.90 311.01 1198.19 L 539.94 1066.28 C 542.00 1065.09 543.28 1062.89 543.28 1060.51 C 543.28 1055.39 537.75 1052.18 533.30 1054.73 L 304.00 1186.00 C 301.82 1187.25 300.47 1189.58 300.47 1192.10 Z" fill="#f68bc6" fill-rule="nonzero" node-id="232" stroke="none" target-height="148.71997" target-width="242.81003" target-x="300.47" target-y="1052.18"></path><path d="M 558.62 946.12 L 704.85 862.17 C 711.17 858.56 716.59 861.27 716.59 869.39 L 716.59 1045.41 C 716.59 1052.63 711.17 1061.65 704.85 1066.17 L 558.62 1149.21 L 558.62 946.12 Z" fill="url(#paint4_linear_1702_19063)" fill-rule="nonzero" node-id="234" stroke="none" target-height="290.64996" target-width="157.97003" target-x="558.62" target-y="858.56"></path><path d="M 703.57 382.06 L 270.00 628.00 L 270.00 586.62 C 270.00 575.53 277.95 562.05 287.75 556.47 L 954.25 178.40 C 964.06 172.83 972.00 177.28 972.00 188.37 L 972.00 229.74" fill="url(#paint5_linear_1702_19063)" fill-rule="nonzero" node-id="236" stroke="none" target-height="455.16998" target-width="702" target-x="270" target-y="172.83"></path><path d="M 316.21 572.66 C 316.21 578.75 311.91 586.17 306.61 589.24 C 301.31 592.31 297.00 589.85 297.00 583.78 C 297.00 577.70 301.30 570.27 306.61 567.21 C 311.92 564.15 316.21 566.57 316.21 572.66 Z" fill="#ffffff" fill-rule="nonzero" node-id="238" stroke="none" target-height="28.159973" target-width="19.209991" target-x="297" target-y="564.15"></path><path d="M 341.22 558.22 C 341.22 564.31 336.91 571.73 331.61 574.80 C 326.31 577.87 322.00 575.41 322.00 569.34 C 322.00 563.26 326.30 555.82 331.61 552.76 C 336.93 549.70 341.22 552.13 341.22 558.22 Z" fill="#ffffff" fill-rule="nonzero" node-id="240" stroke="none" target-height="28.169983" target-width="19.220001" target-x="322" target-y="549.7"></path><path d="M 366.23 543.78 C 366.23 549.88 361.92 557.30 356.62 560.37 C 351.32 563.42 347.00 560.98 347.00 554.90 C 347.00 548.82 351.31 541.38 356.62 538.32 C 361.93 535.26 366.23 537.70 366.23 543.78 Z" fill="#ffffff" fill-rule="nonzero" node-id="242" stroke="none" target-height="28.159973" target-width="19.230011" target-x="347" target-y="535.26"></path><path d="M 1113.56 1097.58 C 1155.08 1097.58 1197.50 1088.55 1229.09 1070.50 C 1259.78 1052.45 1276.93 1028.98 1276.93 1002.80 C 1276.93 977.53 1259.78 953.16 1229.09 935.11 C 1165.91 898.10 1062.10 898.10 998.02 935.11 C 966.42 953.16 949.27 976.63 949.27 1002.80 C 949.27 1028.08 966.42 1052.45 998.02 1070.50 C 1029.61 1088.55 1071.13 1097.58 1113.56 1097.58 Z M 1113.56 910.73 C 1155.08 910.73 1195.70 919.76 1227.29 937.81 C 1257.08 954.96 1273.32 977.53 1273.32 1001.90 C 1273.32 1026.27 1257.08 1048.84 1227.29 1065.99 C 1165.01 1102.09 1063.01 1102.09 999.82 1065.99 C 970.03 1048.84 952.88 1026.27 952.88 1001.90 C 952.88 977.53 969.13 954.96 999.82 937.81 C 1030.51 919.76 1072.03 910.73 1113.56 910.73 Z" fill="url(#paint6_linear_1702_19063)" fill-opacity="0.6" fill-rule="nonzero" node-id="244" stroke="none" target-height="203.98999" target-width="327.66003" target-x="949.27" target-y="898.1"></path><path d="M 1113.56 1059.67 C 1138.83 1059.67 1164.10 1054.25 1183.06 1043.42 C 1202.01 1032.59 1211.94 1018.15 1211.94 1002.80 C 1211.94 987.46 1202.01 973.02 1183.06 962.18 C 1145.15 940.52 1082.87 940.52 1044.05 962.18 C 1025.10 973.02 1015.17 987.46 1015.17 1002.80 C 1015.17 1018.15 1025.10 1032.59 1044.05 1043.42 C 1063.01 1054.25 1088.28 1059.67 1113.56 1059.67 Z M 1113.56 948.64 C 1137.93 948.64 1162.30 954.06 1181.25 964.89 C 1198.40 974.82 1208.33 988.36 1208.33 1002.80 C 1208.33 1017.25 1198.40 1030.79 1181.25 1040.71 C 1144.25 1062.38 1083.77 1062.38 1045.86 1040.71 C 1027.80 1030.79 1018.78 1017.25 1018.78 1002.80 C 1018.78 988.36 1028.71 974.82 1045.86 964.89 C 1063.91 954.06 1088.28 948.64 1113.56 948.64 Z" fill="url(#paint7_linear_1702_19063)" fill-opacity="0.6" fill-rule="nonzero" node-id="246" stroke="none" target-height="121.859985" target-width="196.76996" target-x="1015.17" target-y="940.52"></path><path d="M 1112.65 1028.08 C 1123.48 1028.08 1134.32 1025.37 1142.44 1020.86 C 1150.56 1016.34 1155.08 1009.12 1155.08 1002.80 C 1155.08 995.58 1150.56 989.26 1142.44 984.75 C 1126.19 974.82 1099.11 974.82 1081.96 984.75 C 1073.84 989.26 1069.33 996.49 1069.33 1002.80 C 1069.33 1010.02 1073.84 1016.34 1081.96 1020.86 C 1090.99 1025.37 1101.82 1028.08 1112.65 1028.08 Z M 1112.65 980.24 C 1122.58 980.24 1133.41 982.04 1140.63 987.46 C 1147.86 991.97 1151.47 997.39 1151.47 1002.80 C 1151.47 1008.22 1147.86 1013.64 1140.63 1018.15 C 1125.29 1027.17 1099.11 1027.17 1083.77 1018.15 C 1076.55 1013.64 1072.94 1008.22 1072.94 1002.80 C 1072.94 997.39 1076.55 991.97 1083.77 987.46 C 1092.79 982.95 1102.72 980.24 1112.65 980.24 Z" fill="url(#paint8_linear_1702_19063)" fill-opacity="0.6" fill-rule="nonzero" node-id="248" stroke="none" target-height="53.25995" target-width="85.75" target-x="1069.33" target-y="974.82"></path><path d="M 1188.63 336.22 C 1194.05 333.51 1198.56 335.32 1198.56 341.63 L 1198.56 852.53 C 1198.56 858.85 1194.05 866.07 1188.63 869.68 L 1085.73 929.25 L 1059.56 974.39 C 1057.75 977.10 1055.04 978.00 1052.33 976.19 L 1029.77 961.75 L 879.93 1049.31 C 874.51 1052.01 870.00 1050.21 870.00 1043.89 L 870.90 534.80 C 870.90 528.48 875.42 521.26 880.83 517.65 L 1188.63 336.22 Z" fill="url(#paint9_linear_1702_19063)" fill-opacity="0.6" fill-rule="nonzero" group-id="2" node-id="252" stroke="none" target-height="718.5" target-width="328.56006" target-x="870" target-y="333.51"></path><path d="M 1246.24 363.73 C 1251.66 361.02 1256.17 362.83 1256.17 369.15 L 1256.17 880.04 C 1256.17 886.36 1251.66 893.58 1246.24 897.19 L 1143.34 955.87 L 1117.17 1001.00 C 1115.36 1003.71 1112.65 1004.61 1109.94 1002.80 L 1087.38 988.36 L 937.54 1075.92 C 932.12 1078.63 927.61 1076.82 927.61 1070.50 L 928.51 561.41 C 928.51 555.09 933.03 547.87 938.44 544.26 L 1246.24 363.73 Z" fill="#ffffff" fill-rule="nonzero" node-id="255" stroke="none" target-height="717.61" target-width="328.56006" target-x="927.61" target-y="361.02"></path><path d="M 928.51 763.60 L 928.51 562.31 C 928.51 556.00 933.03 548.77 938.44 545.16 L 1246.24 363.73 C 1251.66 361.02 1256.17 362.83 1256.17 369.15 L 1256.17 570.44 L 928.51 763.60 Z" fill="url(#paint10_linear_1702_19063)" fill-rule="nonzero" node-id="257" stroke="none" target-height="402.58" target-width="327.66003" target-x="928.51" target-y="361.02"></path><path d="M 1174.03 445.87 C 1189.38 436.85 1201.11 444.07 1201.11 462.12 C 1201.11 479.27 1188.47 500.93 1174.03 509.96 C 1158.69 518.99 1146.95 511.76 1146.95 493.71 C 1146.95 476.56 1159.59 454.90 1174.03 445.87 Z" fill="#ffffff" fill-opacity="0.17" fill-rule="nonzero" group-id="3" node-id="261" stroke="none" target-height="82.139984" target-width="54.160034" target-x="1146.95" target-y="436.85"></path><path d="M 1255.27 570.44 L 1121.68 525.30 L 1071.13 611.06 L 977.25 584.88 L 927.61 661.60 L 928.51 763.60 L 1255.27 570.44 Z" fill="#231f20" fill-opacity="0.17" fill-rule="nonzero" group-id="4" node-id="266" stroke="none" target-height="238.29999" target-width="327.66003" target-x="927.61" target-y="525.3"></path><path d="M 1182.16 554.19 L 1179.45 562.31 L 1146.95 559.61 L 1121.68 525.30 L 1234.51 563.22 L 1182.16 554.19 Z" fill="#231f20" fill-opacity="0.17" fill-rule="nonzero" group-id="5" node-id="271" stroke="none" target-height="37.919983" target-width="112.829956" target-x="1121.68" target-y="525.3"></path><path d="M 1005.24 608.35 L 1005.24 617.38 L 977.26 584.88 L 1071.13 611.06 L 1040.44 628.21 L 1005.24 608.35 Z" fill="#231f20" fill-opacity="0.17" fill-rule="nonzero" group-id="6" node-id="276" stroke="none" target-height="43.330017" target-width="93.869995" target-x="977.26" target-y="584.88"></path><path d="M 1226.39 642.65 L 1031.41 755.48 L 1031.41 777.14 L 1226.39 664.31 L 1226.39 642.65 Z" fill="url(#paint11_linear_1702_19063)" fill-opacity="0.6" fill-rule="nonzero" node-id="279" stroke="none" target-height="134.48999" target-width="194.97998" target-x="1031.41" target-y="642.65"></path><path d="M 1226.39 707.64 L 961.01 861.99 L 961.01 873.73 L 1226.39 719.37 L 1226.39 707.64 Z" fill="url(#paint12_linear_1702_19063)" fill-opacity="0.6" fill-rule="nonzero" node-id="281" stroke="none" target-height="166.08997" target-width="265.38" target-x="961.01" target-y="707.64"></path><path d="M 1226.39 746.45 L 961.01 900.80 L 961.01 912.54 L 1226.39 758.19 L 1226.39 746.45 Z" fill="url(#paint13_linear_1702_19063)" fill-opacity="0.6" fill-rule="nonzero" node-id="283" stroke="none" target-height="166.08997" target-width="265.38" target-x="961.01" target-y="746.45"></path><path d="M 1226.39 785.27 L 961.01 939.62 L 961.01 951.35 L 1226.39 797.00 L 1226.39 785.27 Z" fill="url(#paint14_linear_1702_19063)" fill-opacity="0.6" fill-rule="nonzero" node-id="285" stroke="none" target-height="166.07996" target-width="265.38" target-x="961.01" target-y="785.27"></path><path d="M 1226.39 824.08 L 1100.92 898.10 L 1100.92 910.73 L 1226.39 835.81 L 1226.39 824.08 Z" fill="url(#paint15_linear_1702_19063)" fill-opacity="0.6" fill-rule="nonzero" node-id="287" stroke="none" target-height="86.64996" target-width="125.46997" target-x="1100.92" target-y="824.08"></path></svg>