<?xml version="1.0" standalone="no"?><!DOCTYPE svg PUBLIC "-//W3C//DTD SVG 1.1//EN" "http://www.w3.org/Graphics/SVG/1.1/DTD/svg11.dtd"><svg t="1705655588592" class="icon" viewBox="0 0 1024 1024" version="1.1" xmlns="http://www.w3.org/2000/svg" p-id="9635" xmlns:xlink="http://www.w3.org/1999/xlink" width="200" height="200"><path d="M662.72 125.6a416 416 0 0 1-124.48 801.28c-9.92 0-20.16 1.12-30.08 1.12A416 416 0 0 1 121.12 664.96a457.28 457.28 0 0 0 80 7.04h1.12a464 464 0 0 0 329.76-137.44 464 464 0 0 0 137.44-329.92 481.92 481.92 0 0 0-6.56-79.04M593.6 8a48 48 0 0 0-44.48 64.8 368 368 0 0 1 24.16 132A372.96 372.96 0 0 1 202.08 576h-0.96a368 368 0 0 1-132.48-24.8 50.56 50.56 0 0 0-17.12-3.2 48 48 0 0 0-46.88 57.12A512 512 0 0 0 508.16 1024c12.16 0 24.48 0 36.8-1.28A512 512 0 0 0 602.4 8.8 40.96 40.96 0 0 0 593.6 8z" fill="#021408" p-id="9636"></path><path d="M316.64 141.92c-13.44-13.44-49.6 0-88.16 30.24C189.76 141.92 153.6 128 140.16 141.92s0 49.6 30.08 88.32c-30.24 38.56-43.52 74.72-30.08 88.16s49.6 0 88.32-30.08c38.56 30.24 74.72 43.68 88.16 30.08s0-49.6-30.08-88.16c30.24-38.24 43.52-74.88 30.08-88.32z" fill="#3574F0" p-id="9637"></path></svg>