<?xml version="1.0" standalone="no"?><!DOCTYPE svg PUBLIC "-//W3C//DTD SVG 1.1//EN" "http://www.w3.org/Graphics/SVG/1.1/DTD/svg11.dtd"><svg t="1705150978710" class="icon" viewBox="0 0 1024 1024" version="1.1" xmlns="http://www.w3.org/2000/svg" p-id="11789" xmlns:xlink="http://www.w3.org/1999/xlink" width="200" height="200"><path d="M768 277.333333V298.666667a21.333333 21.333333 0 0 1-21.333333 21.333333h-469.333334A21.333333 21.333333 0 0 1 256 298.666667v-21.333334a21.333333 21.333333 0 0 1 21.333333-21.333333h469.333334a21.333333 21.333333 0 0 1 21.333333 21.333333zM490.666667 725.333333v21.333334a21.333333 21.333333 0 0 1-21.333334 21.333333H277.333333a21.333333 21.333333 0 0 1-21.333333-21.333333V725.333333a21.333333 21.333333 0 0 1 21.333333-21.333333H469.333333a21.333333 21.333333 0 0 1 21.333334 21.333333z m0-224v21.333334a21.333333 21.333333 0 0 1-21.333334 21.333333H277.333333a21.333333 21.333333 0 0 1-21.333333-21.333333v-21.333334a21.333333 21.333333 0 0 1 21.333333-21.333333H469.333333a21.333333 21.333333 0 0 1 21.333334 21.333333z m72.789333 134.485334l171.306667 128a21.333333 21.333333 0 0 0 34.090666-17.066667v-256.170667a21.333333 21.333333 0 0 0-34.133333-17.066666L563.498667 601.6a21.333333 21.333333 0 0 0 0 34.133333z" fill="#333333" p-id="11790"></path></svg>