<?xml version="1.0" standalone="no"?><!DOCTYPE svg PUBLIC "-//W3C//DTD SVG 1.1//EN" "http://www.w3.org/Graphics/SVG/1.1/DTD/svg11.dtd"><svg t="1705379824207" class="icon" viewBox="0 0 1024 1024" version="1.1" xmlns="http://www.w3.org/2000/svg" p-id="3469" xmlns:xlink="http://www.w3.org/1999/xlink" width="200" height="200"><path d="M309.993739 236.877913v60.215652l-71.791304 5.787826a110.636522 110.636522 0 0 0-100.296348 92.582957c-1.78087 10.930087-3.383652 21.871304-4.830609 32.834782-0.723478 5.431652 2.181565 10.696348 7.134609 13.04487l3.272348 1.558261c230.066087 108.933565 505.58887 108.933565 735.666087 0l3.261217-1.558261c4.964174-2.337391 7.858087-7.613217 7.145739-13.04487-1.446957-10.963478-3.06087-21.904696-4.830608-32.834782a110.636522 110.636522 0 0 0-100.307479-92.582957l-71.791304-5.787826v-60.215652c0-36.719304-26.857739-67.895652-63.165217-73.349565l-51.70087-7.757913a582.711652 582.711652 0 0 0-172.889043 0l-51.70087 7.757913a74.173217 74.173217 0 0 0-63.176348 73.349565z m278.338783-18.231652a519.15687 519.15687 0 0 0-154.045218 0l-51.689739 7.757913a10.596174 10.596174 0 0 0-9.026782 10.462609v55.741217a2408.013913 2408.013913 0 0 1 275.47826 0v-55.730087a10.596174 10.596174 0 0 0-9.015652-10.48487l-51.700869-7.746782z" fill="#000000" p-id="3470"></path><path d="M897.758609 517.008696a8.492522 8.492522 0 0 0-11.965218-7.234783c-236.109913 104.537043-512.857043 104.537043-748.966956 0a8.503652 8.503652 0 0 0-11.965218 7.234783 1139.2 1139.2 0 0 0 13.03374 242.676869 110.636522 110.636522 0 0 0 100.307478 92.582957l79.337739 6.41113c128.968348 10.406957 258.57113 10.406957 387.539478 0l79.337739-6.41113a110.636522 110.636522 0 0 0 100.307479-92.582957 1139.122087 1139.122087 0 0 0 13.033739-242.676869z" fill="#000000" p-id="3471"></path></svg>