<?xml version="1.0" standalone="no"?><!DOCTYPE svg PUBLIC "-//W3C//DTD SVG 1.1//EN" "http://www.w3.org/Graphics/SVG/1.1/DTD/svg11.dtd"><svg t="1705379888242" class="icon" viewBox="0 0 1024 1024" version="1.1" xmlns="http://www.w3.org/2000/svg" p-id="6322" xmlns:xlink="http://www.w3.org/1999/xlink" width="200" height="200"><path d="M510.497391 413.573565a95.354435 95.354435 0 1 0 0 190.70887 95.354435 95.354435 0 0 0 0-190.70887z" fill="#000000" p-id="6323"></path><path d="M510.497391 233.449739c-110.948174 0-210.721391 44.55513-282.624 99.728696-35.984696 27.63687-65.52487 58.323478-86.249739 88.175304-20.324174 29.295304-33.758609 60.093217-33.758609 87.574261 0 27.492174 13.434435 58.278957 33.758609 87.574261 20.72487 29.862957 50.253913 60.549565 86.26087 88.164174 71.891478 55.184696 171.664696 99.739826 282.601739 99.739826 110.959304 0 210.732522-44.55513 282.624-99.728696 35.995826-27.63687 65.536-58.323478 86.260869-88.175304 20.324174-29.295304 33.747478-60.093217 33.747479-87.574261 0-27.492174-13.423304-58.278957-33.747479-87.574261-20.72487-29.862957-50.265043-60.549565-86.260869-88.164174-71.891478-55.184696-171.664696-99.739826-282.61287-99.739826z m-158.942608 275.478261c0-87.774609 71.168-158.942609 158.942608-158.942609 87.774609 0 158.931478 71.168 158.931479 158.942609 0 87.774609-71.15687 158.931478-158.942609 158.931478-87.763478 0-158.920348-71.15687-158.920348-158.942608z" fill="#000000" p-id="6324"></path></svg>