<?xml version="1.0" standalone="no"?><!DOCTYPE svg PUBLIC "-//W3C//DTD SVG 1.1//EN" "http://www.w3.org/Graphics/SVG/1.1/DTD/svg11.dtd"><svg t="1705379838072" class="icon" viewBox="0 0 1024 1024" version="1.1" xmlns="http://www.w3.org/2000/svg" p-id="4105" xmlns:xlink="http://www.w3.org/1999/xlink" width="200" height="200"><path d="M615.501075 146.71828H364.158624a31.44671 31.44671 0 0 0 0 62.893419h10.900645v213.278279a303.962839 303.962839 0 0 1-52.631398 170.963957L192.699183 784.538151c-32.944172 48.42529-2.576516 114.511828 55.626322 121.052215l3.622538 0.407397 0.704688 0.077076a2309.901763 2309.901763 0 0 0 516.481377 0l0.715698-0.077076 3.611527-0.407397c58.202839-6.551398 88.559484-72.626925 55.626323-121.052215l-129.706667-190.684216a303.962839 303.962839 0 0 1-52.631398-170.963957v-213.278279h10.889635a31.44671 31.44671 0 0 0 0-62.893419H615.501075zM419.862022 536.631054H601.957849a366.812215 366.812215 0 0 1-18.079655-113.741076v-213.278279H437.941677v213.278279c0 38.845935-6.166022 77.218409-18.079655 113.741076z m7.190021 186.577204a41.928946 41.928946 0 1 0 0 83.846882 41.928946 41.928946 0 0 0 0-83.846882z m83.846882-41.928946a41.928946 41.928946 0 1 1 83.857892 0 41.928946 41.928946 0 0 1-83.857892 0z" fill="#000000" p-id="4106"></path></svg>