<?xml version="1.0" standalone="no"?><!DOCTYPE svg PUBLIC "-//W3C//DTD SVG 1.1//EN" "http://www.w3.org/Graphics/SVG/1.1/DTD/svg11.dtd"><svg t="1705379872013" class="icon" viewBox="0 0 1035 1024" version="1.1" xmlns="http://www.w3.org/2000/svg" p-id="5687" xmlns:xlink="http://www.w3.org/1999/xlink" width="202.1484375" height="200"><path d="M420.229565 174.714435c46.280348-67.706435 146.16487-67.706435 192.445218 0l18.309565 26.790956a3218.67687 3218.67687 0 0 1 294.288695 532.457739l3.81774 8.793044c28.571826 65.680696-14.58087 140.265739-85.771131 148.212869a2942.820174 2942.820174 0 0 1-653.723826 0c-71.190261-7.94713-114.342957-82.532174-85.782261-148.212869l3.82887-8.793044a3218.777043 3218.777043 0 0 1 294.288695-532.457739l18.298435-26.790956z m138.607305 212.224a42.384696 42.384696 0 1 1-84.758261 0 42.384696 42.384696 0 0 1 84.758261 0zM516.452174 503.485217a31.788522 31.788522 0 0 1 31.788522 31.788522V747.186087a31.788522 31.788522 0 0 1-63.565913 0V535.262609a31.788522 31.788522 0 0 1 31.777391-31.788522z" fill="#000000" p-id="5688"></path></svg>