<?xml version="1.0" standalone="no"?><!DOCTYPE svg PUBLIC "-//W3C//DTD SVG 1.1//EN" "http://www.w3.org/Graphics/SVG/1.1/DTD/svg11.dtd"><svg t="1705379891953" class="icon" viewBox="0 0 1024 1024" version="1.1" xmlns="http://www.w3.org/2000/svg" p-id="6481" xmlns:xlink="http://www.w3.org/1999/xlink" width="200" height="200"><path d="M54.060522 508.93913c0-134.589217 109.111652-243.70087 243.700869-243.700869 92.416 0 172.755478 51.44487 214.060522 127.142956H891.102609a74.173217 74.173217 0 0 1 74.173217 74.173218v105.961739a31.788522 31.788522 0 0 1-31.788522 31.777391h-95.354434v74.162087a31.788522 31.788522 0 0 1-31.788522 31.788522h-105.961739a31.788522 31.788522 0 0 1-31.777392-31.777391v-74.173218H522.084174c-37.10887 87.173565-123.536696 148.335304-224.322783 148.335305-134.589217 0-243.70087-109.100522-243.700869-243.68974z m243.700869-84.769391a84.769391 84.769391 0 1 0 0 169.527652 84.769391 84.769391 0 0 0 0-169.516521z" fill="#000000" p-id="6482"></path></svg>