<?xml version="1.0" standalone="no"?><!DOCTYPE svg PUBLIC "-//W3C//DTD SVG 1.1//EN" "http://www.w3.org/Graphics/SVG/1.1/DTD/svg11.dtd"><svg t="1705379882679" class="icon" viewBox="0 0 1024 1024" version="1.1" xmlns="http://www.w3.org/2000/svg" p-id="6164" xmlns:xlink="http://www.w3.org/1999/xlink" width="200" height="200"><path d="M194.427871 419.98314c0-168.904946 141.466151-304.623484 314.445075-304.623484 172.978925 0 314.445075 135.718538 314.445076 304.623484 0 98.700387-40.794839 187.733333-117.176431 243.888172-5.274151 3.886796-8.467269 8.698495-9.579354 13.411097-2.246194 9.557333-4.712602 20.502022-7.267097 32.239483-1.244215 5.813677-6.386237 9.964731-12.321032 9.964732H340.782796c-5.945806 0-11.065806-4.151054-12.332043-9.964732-2.532473-11.737462-5.009892-22.682151-7.256086-32.239483-1.112086-4.723613-4.294194-9.524301-9.579355-13.400086-76.370581-56.154839-117.17643-145.198796-117.17643-243.888172zM357.95957 782.380043c-7.828645 0-13.75243 7.090925-12.442151 14.809462 3.930839 23.342796 6.804645 44.17514 7.674495 58.577205 2.642581 43.657634 34.793978 79.607742 77.790968 88.900817l8.225032 1.772731c45.881806 9.909677 93.459269 9.909677 139.341075 0l8.214022-1.772731c42.996989-9.293075 75.148387-45.254194 77.790967-88.900817 0.88086-14.402065 3.743656-35.234409 7.685506-58.577205a12.673376 12.673376 0 0 0-12.442151-14.809462H357.95957z" fill="#000000" p-id="6165"></path></svg>