<?xml version="1.0" standalone="no"?><!DOCTYPE svg PUBLIC "-//W3C//DTD SVG 1.1//EN" "http://www.w3.org/Graphics/SVG/1.1/DTD/svg11.dtd"><svg t="1705379864850" class="icon" viewBox="0 0 1035 1024" version="1.1" xmlns="http://www.w3.org/2000/svg" p-id="5371" xmlns:xlink="http://www.w3.org/1999/xlink" width="202.1484375" height="200"><path d="M318.352696 329.149217L332.911304 460.02087l-29.428869 2.337391a89.488696 89.488696 0 0 0-81.185392 74.740869 874.829913 874.829913 0 0 0 0 282.724174 89.488696 89.488696 0 0 0 81.185392 74.74087l63.410087 5.064348c100.10713 7.991652 200.704 7.991652 300.81113 0l63.410087-5.064348a89.488696 89.488696 0 0 0 81.185391-74.74087 874.829913 874.829913 0 0 0 0-282.713043 89.488696 89.488696 0 0 0-81.185391-74.74087l-29.428869-2.348521 14.547478-130.860522a210.16487 210.16487 0 0 0 0-46.413913l-0.968348-8.681739a199.17913 199.17913 0 0 0-395.931826 0l-0.968348 8.681739a210.16487 210.16487 0 0 0 0 46.413913zM533.147826 161.357913a135.613217 135.613217 0 0 0-150.628174 119.707826l-0.968348 8.681739a146.621217 146.621217 0 0 0 0 32.389565l14.781218 133.042087a1889.925565 1889.925565 0 0 1 241.93113 0L653.022609 322.114783c1.190957-10.752 1.190957-21.615304 0-32.378435l-0.968348-8.681739A135.613217 135.613217 0 0 0 533.147826 161.357913z m-15.849739 453.520696a63.577043 63.577043 0 1 0 0 127.142956 63.577043 63.577043 0 0 0 0-127.142956z" fill="#000000" p-id="5372"></path></svg>