<?xml version="1.0" standalone="no"?><!DOCTYPE svg PUBLIC "-//W3C//DTD SVG 1.1//EN" "http://www.w3.org/Graphics/SVG/1.1/DTD/svg11.dtd"><svg t="1705376721843" class="icon" viewBox="0 0 1024 1024" version="1.1" xmlns="http://www.w3.org/2000/svg" p-id="4946" xmlns:xlink="http://www.w3.org/1999/xlink" width="200" height="200"><path d="M853.333333 213.333333v362.666667a21.333333 21.333333 0 0 1-21.333333 21.333333h-42.666667a21.333333 21.333333 0 0 1-21.333333-21.333333V316.586667L237.226667 846.933333a21.248 21.248 0 0 1-30.293334 0l-29.866666-29.866666a21.333333 21.333333 0 0 1 0-30.293334L707.84 256H448a21.333333 21.333333 0 0 1-21.333333-21.333333v-42.666667a21.333333 21.333333 0 0 1 21.333333-21.333333H810.666667c8.490667 0 16.64 3.413333 22.613333 9.386666l11.52 11.52c5.504 5.930667 8.533333 13.653333 8.533333 21.76z" fill="#000000" p-id="4947"></path></svg>