<?xml version="1.0" standalone="no"?><!DOCTYPE svg PUBLIC "-//W3C//DTD SVG 1.1//EN" "http://www.w3.org/Graphics/SVG/1.1/DTD/svg11.dtd"><svg t="1705379831977" class="icon" viewBox="0 0 1024 1024" version="1.1" xmlns="http://www.w3.org/2000/svg" p-id="3787" xmlns:xlink="http://www.w3.org/1999/xlink" width="200" height="200"><path d="M511.724731 157.200516c-196.817204 0-356.374022 159.556817-356.374021 356.374022S314.907527 869.95957 511.724731 869.95957c185.211871 0 337.402495-141.267957 354.73342-321.954409a20.964473 20.964473 0 0 0-34.07828-18.277849 208.664774 208.664774 0 0 1-131.985893 46.751656c-115.778065 0-209.63372-93.855656-209.63372-209.633721 0-68.762151 33.087312-129.794753 84.298323-168.057118a20.964473 20.964473 0 0 0-9.392172-37.513634 358.994581 358.994581 0 0 0-53.941678-4.062968z" fill="#000000" p-id="3788"></path></svg>