<?xml version="1.0" standalone="no"?><!DOCTYPE svg PUBLIC "-//W3C//DTD SVG 1.1//EN" "http://www.w3.org/Graphics/SVG/1.1/DTD/svg11.dtd"><svg t="1705379868467" class="icon" viewBox="0 0 1024 1024" version="1.1" xmlns="http://www.w3.org/2000/svg" p-id="5529" xmlns:xlink="http://www.w3.org/1999/xlink" width="200" height="200"><path d="M551.223652 132.641391a42.384696 42.384696 0 1 0-84.758261 0v31.788522h-23.629913c-94.297043 0-172.343652 73.316174-178.231652 167.43513l-9.371826 149.76a312.653913 312.653913 0 0 1-55.418435 159.076174c-29.529043 42.418087-3.238957 101.019826 48.083478 107.186087l144.395131 17.318957v45.545739c0 64.367304 52.190609 116.546783 116.557913 116.546783 64.367304 0 116.535652-52.179478 116.535652-116.546783v-45.545739l144.406261-17.330087c51.322435-6.15513 77.612522-64.75687 48.083478-107.186087a312.653913 312.653913 0 0 1-55.418435-159.065044l-9.360695-149.76c-5.89913-94.118957-83.945739-167.43513-178.242783-167.43513h-23.629913v-31.788522z m-95.354435 678.110609a52.98087 52.98087 0 0 0 105.96174 0v-31.788522h-105.96174v31.788522z" fill="#000000" p-id="5530"></path></svg>