<?xml version="1.0" standalone="no"?><!DOCTYPE svg PUBLIC "-//W3C//DTD SVG 1.1//EN" "http://www.w3.org/Graphics/SVG/1.1/DTD/svg11.dtd"><svg t="1705376661692" class="icon" viewBox="0 0 1024 1024" version="1.1" xmlns="http://www.w3.org/2000/svg" p-id="2907" xmlns:xlink="http://www.w3.org/1999/xlink" width="200" height="200"><path d="M426.666667 853.333333h170.666666a85.333333 85.333333 0 0 1-170.666666 0z m414.293333-183.04l-35.413333-35.413333a128 128 0 0 1-37.546667-90.453333V426.666667a256 256 0 0 0-51.2-153.6l-38.4-51.2A128 128 0 0 0 576 170.666667H554.666667V106.666667a21.333333 21.333333 0 0 0-21.333334-21.333334h-42.666666a21.333333 21.333333 0 0 0-21.333334 21.333334V170.666667h-21.333333a128 128 0 0 0-102.4 51.2l-38.4 51.2A256 256 0 0 0 256 426.666667v117.76a128 128 0 0 1-37.546667 90.453333l-35.413333 35.413333a42.666667 42.666667 0 0 0-12.373333 29.866667V725.333333a42.666667 42.666667 0 0 0 42.666666 42.666667h597.333334a42.666667 42.666667 0 0 0 42.666666-42.666667v-25.173333a42.666667 42.666667 0 0 0-12.373333-29.866667z" fill="#000000" p-id="2908"></path></svg>