<?xml version="1.0" standalone="no"?><!DOCTYPE svg PUBLIC "-//W3C//DTD SVG 1.1//EN" "http://www.w3.org/Graphics/SVG/1.1/DTD/svg11.dtd"><svg t="1705379849607" class="icon" viewBox="0 0 1024 1024" version="1.1" xmlns="http://www.w3.org/2000/svg" p-id="4736" xmlns:xlink="http://www.w3.org/1999/xlink" width="200" height="200"><path d="M520.973763 115.392688C301.067011 110.074495 118.475699 284.033376 113.135484 503.940129c-5.329204 219.906753 168.629677 402.498065 388.53643 407.83828 14.148817 0.330323 26.954323-3.633548 37.656774-11.726452 10.38314-7.850667 17.573161-18.652215 22.594065-30.202495 9.865634-22.660129 13.179871-52.36714 13.356043-82.999053 0.594581-110.768172 97.764473-206.947097 207.409548-202.796043 30.169462 1.145118 59.270882-0.473462 81.699785-7.861678 11.341075-3.743656 22.38486-9.414194 30.841118-18.266839a50.935742 50.935742 0 0 0 14.269936-34.683871c5.329204-219.906753-168.618667-402.498065-388.52542-407.838279zM380.939011 656.24086a41.928946 41.928946 0 1 0 10.173935 83.241291 41.928946 41.928946 0 0 0-10.184946-83.241291zM240.805161 546.661849a41.928946 41.928946 0 1 1 83.241291-10.184946 41.928946 41.928946 0 0 1-83.241291 10.184946zM340.232258 323.308731a41.928946 41.928946 0 1 0 10.173936 83.241291 41.928946 41.928946 0 0 0-10.173936-83.241291z m326.116473 76.282495a41.928946 41.928946 0 1 1 83.23028-10.184946 41.928946 41.928946 0 0 1-83.241291 10.184946zM511.009032 466.569634a41.928946 41.928946 0 1 0 10.173936 83.23028 41.928946 41.928946 0 0 0-10.173936-83.24129z m-25.137548-161.06529a41.928946 41.928946 0 1 1 83.24129-10.184946 41.928946 41.928946 0 0 1-83.24129 10.184946z" fill="#000000" p-id="4737"></path></svg>