<?xml version="1.0" standalone="no"?><!DOCTYPE svg PUBLIC "-//W3C//DTD SVG 1.1//EN" "http://www.w3.org/Graphics/SVG/1.1/DTD/svg11.dtd"><svg t="1705379879551" class="icon" viewBox="0 0 1024 1024" version="1.1" xmlns="http://www.w3.org/2000/svg" p-id="6003" xmlns:xlink="http://www.w3.org/1999/xlink" width="200" height="200"><path d="M267.620174 237.779478c0-76.065391 61.662609-137.73913 137.73913-137.73913a137.46087 137.46087 0 0 1 105.950609 49.730782 137.46087 137.46087 0 0 1 105.961739-49.730782c76.065391 0 137.728 61.662609 137.728 137.73913 0 31.966609-10.885565 61.395478-29.161739 84.769392h39.757913a105.961739 105.961739 0 0 1 105.961739 105.961739v52.969739a31.788522 31.788522 0 0 1-31.788522 31.788522H555.809391c-7.012174 0-12.710957-5.698783-12.710956-12.722087V353.869913a138.496 138.496 0 0 1-31.788522-28.070956 138.462609 138.462609 0 0 1-31.788522 28.070956v146.67687c0 7.023304-5.687652 12.722087-12.710956 12.722087H182.850783a31.788522 31.788522 0 0 1-31.788522-31.788522v-52.98087a105.961739 105.961739 0 0 1 105.961739-105.961739h39.757913a137.149217 137.149217 0 0 1-29.161739-84.758261z m211.901217 0a74.162087 74.162087 0 1 0-148.335304 0 74.162087 74.162087 0 0 0 148.335304 0z m63.577044 0a74.173217 74.173217 0 1 0 148.335304 0 74.173217 74.173217 0 0 0-148.335304 0z" fill="#000000" p-id="6004"></path><path d="M479.521391 583.201391c0-7.023304-5.687652-12.722087-12.710956-12.722087H242.142609a35.294609 35.294609 0 0 0-34.782609 29.339826 491.297391 491.297391 0 0 0 0 165.954783l9.505391 55.474087a85.081043 85.081043 0 0 0 74.406957 70.188522l45.133913 5.042087c43.27513 4.830609 86.694957 7.869217 130.148174 9.104695a12.633043 12.633043 0 0 0 12.966956-12.655304V583.190261zM556.076522 905.583304a12.633043 12.633043 0 0 1-12.978087-12.655304V583.190261c0-7.012174 5.687652-12.710957 12.710956-12.710957h224.667826a35.294609 35.294609 0 0 1 34.782609 29.339826 491.297391 491.297391 0 0 1 0 165.954783l-9.505391 55.474087a85.081043 85.081043 0 0 1-74.406957 70.188522l-45.133913 5.042087c-43.27513 4.830609-86.694957 7.869217-130.148174 9.104695z" fill="#000000" p-id="6005"></path></svg>