<?xml version="1.0" standalone="no"?><!DOCTYPE svg PUBLIC "-//W3C//DTD SVG 1.1//EN" "http://www.w3.org/Graphics/SVG/1.1/DTD/svg11.dtd"><svg t="1705379904976" class="icon" viewBox="0 0 1024 1024" version="1.1" xmlns="http://www.w3.org/2000/svg" p-id="6799" xmlns:xlink="http://www.w3.org/1999/xlink" width="200" height="200"><path d="M328.41772 188.724301a31.44671 31.44671 0 0 1 28.716043 26.161548l75.47871 449.976431 93.877678-327.657979a31.44671 31.44671 0 0 1 60.460043 0.022022l63.653161 222.791569 36.522667-62.342881a31.44671 31.44671 0 0 1 27.130494-15.547183h77.846022a104.855398 104.855398 0 0 1 100.021677-73.364645 104.822366 104.822366 0 1 1-100.010667 136.258064h-59.83243l-64.578064 110.217635a31.44671 31.44671 0 0 1-57.366022-7.245076l-53.655398-187.810408-101.871483 355.537204a31.44671 31.44671 0 0 1-61.230796-3.468387L316.449032 352.520258l-55.053763 170.699699a31.44671 31.44671 0 0 1-29.938237 21.80129H95.52929a31.44671 31.44671 0 1 1 0-62.893419h113.047398L296.189247 210.437505a31.44671 31.44671 0 0 1 32.217463-21.702193z" fill="#000000" p-id="6800"></path></svg>