<?xml version="1.0" standalone="no"?><!DOCTYPE svg PUBLIC "-//W3C//DTD SVG 1.1//EN" "http://www.w3.org/Graphics/SVG/1.1/DTD/svg11.dtd"><svg t="1705379827900" class="icon" viewBox="0 0 1024 1024" version="1.1" xmlns="http://www.w3.org/2000/svg" p-id="3628" xmlns:xlink="http://www.w3.org/1999/xlink" width="200" height="200"><path d="M411.548903 193.899355a31.44671 31.44671 0 0 0-54.470193-31.44671L287.490753 282.976344h-49.922753a83.857892 83.857892 0 0 0-44.362323 155.020387c2.422366 1.508473 5.230108 2.202151 8.081893 2.202151h617.61514c2.840774 0 5.659527-0.693677 8.070881-2.202151a83.857892 83.857892 0 0 0-44.373333-155.020387h-49.900731l-69.587957-120.53471a31.44671 31.44671 0 0 0-54.470194 31.435699l51.431226 89.099011H360.106667l51.442236-89.099011z" fill="#000000" p-id="3629"></path><path d="M817.614452 512.935914a8.390194 8.390194 0 0 0-8.258065-9.843613H210.833892a8.390194 8.390194 0 0 0-8.258064 9.843613l41.950968 238.911312a116.273548 116.273548 0 0 0 98.491182 95.055828c110.845247 15.426065 223.298065 15.426065 334.154323 0a116.273548 116.273548 0 0 0 98.491183-95.055828l41.950968-238.911312z m-359.930495 84.496516a31.44671 31.44671 0 1 0-62.893419 0v83.846882a31.44671 31.44671 0 0 0 62.893419 0V597.443441z m136.258065-31.44671a31.44671 31.44671 0 0 1 31.446709 31.44671v83.846882a31.44671 31.44671 0 0 1-62.893419 0V597.443441a31.44671 31.44671 0 0 1 31.44671-31.44671z" fill="#000000" p-id="3630"></path></svg>