<?xml version="1.0" standalone="no"?><!DOCTYPE svg PUBLIC "-//W3C//DTD SVG 1.1//EN" "http://www.w3.org/Graphics/SVG/1.1/DTD/svg11.dtd"><svg t="1705376724770" class="icon" viewBox="0 0 1024 1024" version="1.1" xmlns="http://www.w3.org/2000/svg" p-id="5102" xmlns:xlink="http://www.w3.org/1999/xlink" width="200" height="200"><path d="M256 128a64 64 0 0 0-64 64v640a64 64 0 0 0 64 64h64V128H256z" fill="#000000" p-id="5103"></path><path d="M384 128v768h256V128H384z m128 704a64 64 0 1 0 0-128 64 64 0 0 0 0 128z" fill="#000000" p-id="5104"></path><path d="M704 128v768h64a64 64 0 0 0 64-64V192a64 64 0 0 0-64-64h-64z" fill="#000000" p-id="5105"></path></svg>