<?xml version="1.0" standalone="no"?><!DOCTYPE svg PUBLIC "-//W3C//DTD SVG 1.1//EN" "http://www.w3.org/Graphics/SVG/1.1/DTD/svg11.dtd"><svg t="1705385377154" class="icon" viewBox="0 0 1024 1024" version="1.1" xmlns="http://www.w3.org/2000/svg" p-id="3328" xmlns:xlink="http://www.w3.org/1999/xlink" width="200" height="200"><path d="M716.983885 735.44894a390.577403 390.577403 0 0 1-66.942935 219.295823 381.574732 381.574732 0 0 1-59.786967 69.251313H69.484112a31.163091 31.163091 0 0 1-13.850262-3.00089 215.140745 215.140745 0 0 1-17.774504-17.774504 32.317279 32.317279 0 0 1-2.770052-13.388587V470.908926a382.728921 382.728921 0 0 1 69.251312-60.017805 392.424105 392.424105 0 0 1 612.874117 324.557819z" fill="#FFD000" p-id="3329"></path><path d="M734.527551 1023.996076H69.484112a34.625656 34.625656 0 0 1-34.625656-34.625657V254.84483a253.92148 253.92148 0 0 1 253.92148-253.921479h664.812601a34.625656 34.625656 0 0 1 34.625656 34.625656v734.525589a253.92148 253.92148 0 0 1-253.690642 253.92148zM104.109769 954.744763h630.417782a184.670167 184.670167 0 0 0 184.670167-184.670167V69.251313h-630.186945a185.824355 185.824355 0 0 0-184.670167 184.670167z" fill="#000000" p-id="3330"></path><path d="M739.605981 635.265374H284.624857a34.625656 34.625656 0 0 1 0-69.251312h454.981124a34.625656 34.625656 0 0 1 0 69.251312zM739.605981 365.416093H284.624857a34.625656 34.625656 0 0 1 0-69.251313h454.981124a34.625656 34.625656 0 0 1 0 69.251313z" fill="#000000" p-id="3331"></path></svg>