<?xml version="1.0" standalone="no"?><!DOCTYPE svg PUBLIC "-//W3C//DTD SVG 1.1//EN" "http://www.w3.org/Graphics/SVG/1.1/DTD/svg11.dtd"><svg t="1705385441601" class="icon" viewBox="0 0 1024 1024" version="1.1" xmlns="http://www.w3.org/2000/svg" p-id="6541" xmlns:xlink="http://www.w3.org/1999/xlink" width="200" height="200"><path d="M755.022595 722.911167a390.129159 390.129159 0 0 1-123.92338 285.023773 442.911339 442.911339 0 0 1-119.104137 16.064142A452.779312 452.779312 0 0 1 59.904229 571.908234a436.026707 436.026707 0 0 1 13.080802-107.400263 388.293257 388.293257 0 0 1 291.908405-131.725963 390.129159 390.129159 0 0 1 390.129159 390.129159z" fill="#FFD000" p-id="6542"></path><path d="M511.995078 1023.769594a452.090848 452.090848 0 1 1 452.090848-451.86136 452.549824 452.549824 0 0 1-452.090848 451.86136z m0-835.105887a383.244526 383.244526 0 1 0 383.244526 383.244527 383.703502 383.703502 0 0 0-383.244526-383.244527z" fill="#000000" p-id="6543"></path><path d="M762.366203 235.479206a33.964186 33.964186 0 0 1-17.211581-4.589755 34.423161 34.423161 0 0 1-12.392338-47.044986L828.917647 17.236365a34.423161 34.423161 0 1 1 59.666813 34.423161l-96.384851 166.6081a33.734698 33.734698 0 0 1-29.833406 17.21158zM261.623953 235.479206a34.193673 34.193673 0 0 1-29.833406-17.21158L135.635184 51.659526A34.423161 34.423161 0 0 1 195.301996 17.236365l96.155363 166.6081a34.193673 34.193673 0 0 1-12.621825 47.044986 32.816747 32.816747 0 0 1-17.211581 4.589755zM511.995078 795.429293a34.423161 34.423161 0 0 1-34.423161-34.423161V465.884898a34.423161 34.423161 0 0 1 68.846322 0v295.121234a34.423161 34.423161 0 0 1-34.423161 34.423161z" fill="#000000" p-id="6544"></path></svg>