<?xml version="1.0" standalone="no"?><!DOCTYPE svg PUBLIC "-//W3C//DTD SVG 1.1//EN" "http://www.w3.org/Graphics/SVG/1.1/DTD/svg11.dtd"><svg t="1705384564919" class="icon" viewBox="0 0 1024 1024" version="1.1" xmlns="http://www.w3.org/2000/svg" p-id="3232" xmlns:xlink="http://www.w3.org/1999/xlink" width="200" height="200"><path d="M346.29 483.58h-190c-55.14 0-100-44.86-100-100v-190c0-55.14 44.86-100 100-100h190c55.14 0 100 44.86 100 100v190c0 55.14-44.86 100-100 100z m-190-350c-33.08 0-60 26.92-60 60v190c0 33.08 26.92 60 60 60h190c33.08 0 60-26.92 60-60v-190c0-33.08-26.92-60-60-60h-190zM351.29 973.58h-200c-55.14 0-100-44.86-100-100v-200c0-55.14 44.86-100 100-100h200c55.14 0 100 44.86 100 100v200c0 55.14-44.86 100-100 100z m-200-360c-33.08 0-60 26.92-60 60v200c0 33.08 26.92 60 60 60h200c33.08 0 60-26.92 60-60v-200c0-33.08-26.92-60-60-60h-200z" fill="#333333" p-id="3233"></path><path d="M731.29 535c-26.71 0-51.82-10.4-70.71-29.29L519.16 364.29c-18.89-18.89-29.29-44-29.29-70.71s10.4-51.82 29.29-70.71L660.58 81.44c38.99-38.99 102.43-38.99 141.42 0l141.42 141.42c18.89 18.89 29.29 44 29.29 70.71 0 26.71-10.4 51.82-29.29 70.71L802 505.71C783.11 524.6 758 535 731.29 535z" fill="#FF743E" p-id="3234"></path><path d="M831.29 973.58h-200c-55.14 0-100-44.86-100-100v-200c0-55.14 44.86-100 100-100h200c55.14 0 100 44.86 100 100v200c0 55.14-44.86 100-100 100z m-200-360c-33.08 0-60 26.92-60 60v200c0 33.08 26.92 60 60 60h200c33.08 0 60-26.92 60-60v-200c0-33.08-26.92-60-60-60h-200z" fill="#333333" p-id="3235"></path></svg>