<?xml version="1.0" standalone="no"?><!DOCTYPE svg PUBLIC "-//W3C//DTD SVG 1.1//EN" "http://www.w3.org/Graphics/SVG/1.1/DTD/svg11.dtd"><svg t="1705385438643" class="icon" viewBox="0 0 1024 1024" version="1.1" xmlns="http://www.w3.org/2000/svg" p-id="6378" xmlns:xlink="http://www.w3.org/1999/xlink" width="200" height="200"><path d="M705.570151 764.61573a385.46557 385.46557 0 0 1-45.110073 180.44029l-147.509937 75.108271a32.704803 32.704803 0 0 1-15.337424 3.608805 34.734756 34.734756 0 0 1-16.239627-4.059906l-383.435616-210.889589a33.381454 33.381454 0 0 1-17.367378-29.547098V467.791452a363.812735 363.812735 0 0 1 67.665109-45.110072 377.120206 377.120206 0 0 1 175.027081-42.403468A383.435617 383.435617 0 0 1 705.570151 764.61573z" fill="#FFD000" p-id="6379"></path><path d="M497.838267 497.112999a34.058105 34.058105 0 0 1-16.239626-4.059906L97.035272 282.389054a33.832554 33.832554 0 1 1 32.479253-59.319745l368.774843 202.995326 397.870839-202.995326a33.90022 33.90022 0 0 1 30.67485 60.447497l-413.659365 210.664039a34.058105 34.058105 0 0 1-15.337425 2.932154z" fill="#000000" p-id="6380"></path><path d="M497.838267 1023.998647a31.802601 31.802601 0 0 1-16.239626-4.285457L97.035272 809.049151A33.832554 33.832554 0 0 1 79.442344 779.502054V244.722144a33.832554 33.832554 0 0 1 17.592928-29.772648L481.598641 5.187658a33.381454 33.381454 0 0 1 31.577051 0l413.659365 210.664039a34.058105 34.058105 0 0 1 18.49513 30.223749v534.77991a33.607004 33.607004 0 0 1-18.49513 29.998198l-413.659365 209.310737a37.21581 37.21581 0 0 1-15.337425 3.834356zM147.107453 759.428071l351.181915 193.071111 379.37571-193.071111v-493.955294L498.289368 72.852767 147.107453 265.472777z m764.390179 20.073983z" fill="#000000" p-id="6381"></path><path d="M500.093771 1017.908787a33.832554 33.832554 0 0 1-33.832555-33.832555v-257.127413a33.832554 33.832554 0 0 1 67.665109 0v257.127413a33.832554 33.832554 0 0 1-33.832554 33.832555zM770.754206 679.583243a33.832554 33.832554 0 0 1-33.832555-33.832555v-166.907268a33.832554 33.832554 0 0 1 67.665109 0v166.005067a33.832554 33.832554 0 0 1-33.832554 34.734756z" fill="#000000" p-id="6382"></path></svg>