<?xml version="1.0" standalone="no"?><!DOCTYPE svg PUBLIC "-//W3C//DTD SVG 1.1//EN" "http://www.w3.org/Graphics/SVG/1.1/DTD/svg11.dtd"><svg t="1705385407412" class="icon" viewBox="0 0 1080 1024" version="1.1" xmlns="http://www.w3.org/2000/svg" p-id="4610" xmlns:xlink="http://www.w3.org/1999/xlink" width="210.9375" height="200"><path d="M735.051545 843.62807a412.618636 412.618636 0 0 1-14.753377 108.984623 399.055048 399.055048 0 0 1-27.603092 71.387307H182.989702a84.712938 84.712938 0 0 1-84.47498-84.712938V512.390964a404.528075 404.528075 0 0 1 636.536823 331.237106z" fill="#FFD000" p-id="4611"></path><path d="M896.862775 1023.286127h-713.873073a84.950896 84.950896 0 0 1-84.712938-84.712938V489.309068A84.950896 84.950896 0 0 1 182.989702 404.59613h713.873073a84.950896 84.950896 0 0 1 84.712938 84.712938v449.977994A84.950896 84.950896 0 0 1 896.862775 1023.286127z m-713.873073-547.302689a13.325631 13.325631 0 0 0-13.32563 13.32563v449.977994a13.325631 13.325631 0 0 0 13.32563 13.325631h713.873073a13.325631 13.325631 0 0 0 13.325631-13.325631V489.309068a13.325631 13.325631 0 0 0-13.325631-13.32563z" fill="#000000" p-id="4612"></path><path d="M995.377259 473.841819H84.475218A84.47498 84.47498 0 0 1 0.000238 389.366838v-149.675387a84.47498 84.47498 0 0 1 84.47498-84.712938h910.902041a84.712938 84.712938 0 0 1 84.712938 84.712938v149.675387a84.712938 84.712938 0 0 1-84.712938 84.474981zM84.475218 226.36582a13.325631 13.325631 0 0 0-13.087673 13.325631v149.675387a13.087673 13.087673 0 0 0 13.087673 13.087673h910.902041a13.087673 13.087673 0 0 0 13.325631-13.087673v-149.675387a13.325631 13.325631 0 0 0-13.325631-13.325631z" fill="#000000" p-id="4613"></path><path d="M512.561104 212.564274a36.407527 36.407527 0 0 1-25.223515-10.470138l-141.108911-141.108911a35.931611 35.931611 0 0 1 0-50.447031 35.455696 35.455696 0 0 1 50.447031 0l141.346868 141.108911a35.931611 35.931611 0 0 1 0 50.447031 36.407527 36.407527 0 0 1-25.461473 10.470138z" fill="#000000" p-id="4614"></path><path d="M567.291373 212.564274a35.931611 35.931611 0 0 1-25.223515-10.470138 35.455696 35.455696 0 0 1 0-50.447031L683.176769 10.538194a35.693654 35.693654 0 0 1 50.44703 50.447031L592.514888 202.094136a35.931611 35.931611 0 0 1-25.223515 10.470138zM539.926239 853.384336a35.693654 35.693654 0 0 1-35.693654-35.693654V324.642346a35.693654 35.693654 0 0 1 71.387307 0v493.048336a35.693654 35.693654 0 0 1-35.693653 35.693654z" fill="#000000" p-id="4615"></path></svg>