<?xml version="1.0" standalone="no"?><!DOCTYPE svg PUBLIC "-//W3C//DTD SVG 1.1//EN" "http://www.w3.org/Graphics/SVG/1.1/DTD/svg11.dtd"><svg t="1705385444169" class="icon" viewBox="0 0 1274 1024" version="1.1" xmlns="http://www.w3.org/2000/svg" p-id="6703" xmlns:xlink="http://www.w3.org/1999/xlink" width="248.828125" height="200"><path d="M752.4535353 728.74939255a384.04072101 384.04072101 0 0 1-24.8429902 136.75040469 360.56523533 360.56523533 0 0 1-33.95968423 68.37520276H194.28396408A102.79072129 102.79072129 0 0 1 91.49324363 831.08427871V454.33691211a393.15741503 393.15741503 0 0 1 68.37520192-54.24432743A387.45948147 387.45948147 0 0 1 752.4535353 728.74939255z" fill="#FFD000" p-id="6704"></path><path d="M1036.43854324 933.875h-843.2941657a103.01863843 103.01863843 0 0 1-103.01863843-102.79072129v-638.16855742A103.24655557 103.24655557 0 0 1 193.14437754 90.125h843.2941657a103.01863843 103.01863843 0 0 1 102.79072129 102.79072129v638.16855742A102.79072129 102.79072129 0 0 1 1036.43854324 933.875z m-843.2941657-774.91896294a34.64343567 34.64343567 0 0 0-34.64343567 34.41551852v638.16855825a34.64343567 34.64343567 0 0 0 34.64343567 34.41551852h843.2941657a34.64343567 34.64343567 0 0 0 34.41551853-34.41551852v-638.16855825A34.64343567 34.64343567 0 0 0 1036.43854324 158.95603706z" fill="#000000" p-id="6705"></path><path d="M1104.813746 409.66511383h-980.04457122a34.18760138 34.18760138 0 0 1 0-68.37520276h980.04457122a34.18760138 34.18760138 0 1 1 0 68.37520276zM694.56253028 730.11689624a36.23885733 36.23885733 0 0 1-17.0938007-4.55834701 34.18760138 34.18760138 0 0 1-12.53545368-46.72305506l68.37520195-118.51701746a34.18760138 34.18760138 0 0 1 59.25850954 34.18760138l-68.37520275 118.51701747a34.18760138 34.18760138 0 0 1-29.62925437 17.09380068zM854.10466922 730.11689624a36.23885733 36.23885733 0 0 1-17.09380069-4.55834701 34.18760138 34.18760138 0 0 1-12.53545368-46.72305506l68.37520276-118.51701746a34.18760138 34.18760138 0 0 1 59.25850874 34.18760138l-68.37520276 118.51701747a34.18760138 34.18760138 0 0 1-29.62925437 17.09380068z" fill="#000000" p-id="6706"></path></svg>