<?xml version="1.0" standalone="no"?><!DOCTYPE svg PUBLIC "-//W3C//DTD SVG 1.1//EN" "http://www.w3.org/Graphics/SVG/1.1/DTD/svg11.dtd"><svg t="1705385433277" class="icon" viewBox="0 0 1024 1024" version="1.1" xmlns="http://www.w3.org/2000/svg" p-id="6056" xmlns:xlink="http://www.w3.org/1999/xlink" width="200" height="200"><path d="M678.187725 636.959099a393.756534 393.756534 0 0 1-277.945789 376.616544 97.281026 97.281026 0 0 1-25.478364-18.298098L28.952686 649.235038a97.975891 97.975891 0 0 1 0-138.972894l266.596336-266.827957a392.366805 392.366805 0 0 1 382.638703 393.756534z" fill="#FFD000" p-id="6057"></path><path d="M444.250019 1023.99861a97.281026 97.281026 0 0 1-69.486447-28.721065L28.952686 649.46666a98.207512 98.207512 0 0 1 0-138.972895L510.262144 29.184308A99.133998 99.133998 0 0 1 596.425338 1.62135l298.560102 50.956728a98.439134 98.439134 0 0 1 80.372657 81.299144l47.714027 294.622536a99.133998 99.133998 0 0 1-27.562957 85.236708l-481.772701 481.772701a97.744269 97.744269 0 0 1-69.486447 28.489443zM579.980213 69.486447a29.184308 29.184308 0 0 0-20.614313 8.569995L78.056442 559.597521a28.721065 28.721065 0 0 0 0 40.765383L423.867328 946.173789a29.184308 29.184308 0 0 0 40.765382 0l481.772701-481.7727a29.415929 29.415929 0 0 0 8.106752-25.015121L906.798136 144.763432a28.489443 28.489443 0 0 0-23.162149-23.162149l-298.560102-50.956728z" fill="#000000" p-id="6058"></path><path d="M730.30256 407.190581a113.49453 113.49453 0 1 1 113.494531-113.494531 113.726152 113.726152 0 0 1-113.494531 113.494531z m0-157.502614a44.008083 44.008083 0 1 0 44.008083 44.008083 44.008083 44.008083 0 0 0-44.008083-44.008083zM419.003277 759.718489a35.438088 35.438088 0 0 1-24.551878-10.191345 34.974845 34.974845 0 0 1 0-49.103756l205.679883-205.679884a34.81271 34.81271 0 0 1 49.335378 49.103756l-205.679884 205.679884a35.438088 35.438088 0 0 1-24.783499 10.191345zM299.023344 638.812071a35.438088 35.438088 0 0 1-24.551878-10.191345 34.974845 34.974845 0 0 1 0-49.103756l205.679884-205.679884a34.81271 34.81271 0 0 1 49.335378 49.103756l-205.679884 205.679884a35.438088 35.438088 0 0 1-24.7835 10.191345z" fill="#000000" p-id="6059"></path></svg>