<?xml version="1.0" standalone="no"?><!DOCTYPE svg PUBLIC "-//W3C//DTD SVG 1.1//EN" "http://www.w3.org/Graphics/SVG/1.1/DTD/svg11.dtd"><svg t="1705385363964" class="icon" viewBox="0 0 1090 1024" version="1.1" xmlns="http://www.w3.org/2000/svg" p-id="2684" xmlns:xlink="http://www.w3.org/1999/xlink" width="212.890625" height="200"><path d="M833.993483 708.883595a423.767185 423.767185 0 0 1-100.836927 278.562011 490.571649 490.571649 0 0 1-186.800407 36.553386A498.386511 498.386511 0 0 1 48.473823 526.116666a453.766171 453.766171 0 0 1 3.2772-55.712402 428.556939 428.556939 0 0 1 782.24246 238.479331z" fill="#FFD000" p-id="2685"></path><path d="M545.095688 1023.998992a497.882326 497.882326 0 1 1 497.882326-497.882326 498.386511 498.386511 0 0 1-497.882326 497.882326z m0-920.136957a422.254631 422.254631 0 1 0 422.254631 422.254631A423.010908 423.010908 0 0 0 545.095688 103.862035zM1052.30543 182.76693a38.570125 38.570125 0 0 1-26.721786-11.092062l-106.887142-107.139235a37.561755 37.561755 0 0 1 0-53.443571 38.06594 38.06594 0 0 1 53.443571 0l106.887142 107.139235a37.813848 37.813848 0 0 1-26.721785 64.535633zM37.885946 182.76693a38.06594 38.06594 0 0 1-26.721786-11.092062 37.561755 37.561755 0 0 1 0-53.443571L118.051303 11.092062a38.06594 38.06594 0 0 1 53.443571 0 37.561755 37.561755 0 0 1 0 53.443571L64.607732 171.422776a38.06594 38.06594 0 0 1-26.721786 11.344154z" fill="#000000" p-id="2686"></path><path d="M556.691934 658.465132a126.046158 126.046158 0 1 1 126.046159-126.046159 126.046158 126.046158 0 0 1-126.046159 126.046159z m0-176.464622a50.418463 50.418463 0 1 0 50.418464 50.418463 50.418463 50.418463 0 0 0-50.418464-50.418463z" fill="#000000" p-id="2687"></path><path d="M648.70563 491.83211a37.309663 37.309663 0 0 1-26.721786-11.092061 38.06594 38.06594 0 0 1 0-53.443572l145.70936-145.709359a37.889475 37.889475 0 1 1 53.443571 53.695664l-145.709359 145.457267a36.553386 36.553386 0 0 1-26.721786 11.092061z" fill="#000000" p-id="2688"></path></svg>