<?xml version="1.0" standalone="no"?><!DOCTYPE svg PUBLIC "-//W3C//DTD SVG 1.1//EN" "http://www.w3.org/Graphics/SVG/1.1/DTD/svg11.dtd"><svg t="1705385436155" class="icon" viewBox="0 0 1024 1024" version="1.1" xmlns="http://www.w3.org/2000/svg" p-id="6218" xmlns:xlink="http://www.w3.org/1999/xlink" width="200" height="200"><path d="M720.961695 783.318065a366.006385 366.006385 0 0 1-21.46665 121.286573 334.665076 334.665076 0 0 1-26.833313 58.389289l-158.209211-69.33728a20.178651 20.178651 0 0 0-16.529321 0L228.087407 1015.372553a84.793268 84.793268 0 0 1-119.569241-77.27994V514.770271a337.885074 337.885074 0 0 1 64.39995-47.22663 359.351724 359.351724 0 0 1 182.25186-48.943963 364.933053 364.933053 0 0 1 365.791719 364.718387z" fill="#FFD000" p-id="6219"></path><path d="M829.797612 1023.959213a85.866601 85.866601 0 0 1-34.131974-7.083994l-280.354451-123.003906a20.178651 20.178651 0 0 0-16.529321 0L228.946073 1015.58722A84.793268 84.793268 0 0 1 109.376832 938.307279V203.71851a85.866601 85.866601 0 0 1 85.866601-85.866601h635.627511a85.866601 85.866601 0 0 1 84.578602 85.866601v736.306101a84.578602 84.578602 0 0 1-38.425304 71.054612 83.505269 83.505269 0 0 1-47.22663 12.87999z m-321.999753-196.205182a84.363935 84.363935 0 0 1 33.917307 7.083994l280.569118 123.003906a19.749318 19.749318 0 0 0 19.105319-1.502666 21.46665 21.46665 0 0 0 9.230659-17.17332V203.71851a20.178651 20.178651 0 0 0-20.178651-21.46665H194.1701a21.46665 21.46665 0 0 0-21.46665 21.46665v735.447435a20.393318 20.393318 0 0 0 28.765311 18.461319l269.621126-121.50124a85.866601 85.866601 0 0 1 36.063973-8.371993zM882.176238 64.399951H141.576807a32.199975 32.199975 0 1 1 0-64.399951H882.176238a32.199975 32.199975 0 0 1 0 64.399951z" fill="#000000" p-id="6220"></path><path d="M635.739094 743.819429a29.838644 29.838644 0 0 1-14.811988-3.863997l-109.050583-57.10129-108.835917 57.530623a31.770642 31.770642 0 0 1-33.917307-2.361332 32.843975 32.843975 0 0 1-12.87999-31.555976l21.46665-121.286573-88.013266-85.866601a31.555976 31.555976 0 0 1-8.157327-32.843975 31.985309 31.985309 0 0 1 25.974647-21.46665l121.715906-17.81732 54.525292-110.338581a32.199975 32.199975 0 0 1 57.745289 0l54.310625 110.338581 121.715906 17.81732a31.985309 31.985309 0 0 1 18.031986 54.739958l-88.227932 85.866601 21.46665 121.286573a32.414642 32.414642 0 0 1-31.770642 37.781305z m-123.862571-128.799901a33.702641 33.702641 0 0 1 15.026655 3.64933l66.117282 34.775973-12.665323-73.63061a32.414642 32.414642 0 0 1 9.230659-28.335978l53.666626-52.16396-74.059943-10.733325a32.199975 32.199975 0 0 1-24.257315-17.602653l-33.058641-66.975949-33.058642 66.117283a32.199975 32.199975 0 0 1-24.257314 17.602653l-73.845277 10.733325 53.451959 52.16396a31.126643 31.126643 0 0 1 9.23066 28.335978l-12.450658 73.63061 66.117283-34.775973a32.199975 32.199975 0 0 1 14.811989-3.64933z" fill="#000000" p-id="6221"></path></svg>