<?xml version="1.0" standalone="no"?><!DOCTYPE svg PUBLIC "-//W3C//DTD SVG 1.1//EN" "http://www.w3.org/Graphics/SVG/1.1/DTD/svg11.dtd"><svg t="1705384606160" class="icon" viewBox="0 0 1024 1024" version="1.1" xmlns="http://www.w3.org/2000/svg" p-id="5467" xmlns:xlink="http://www.w3.org/1999/xlink" width="200" height="200"><path d="M738.74 998.6c-47.72 6.92-173.47-78.72-216.21-96.06a24.63 24.63 0 0 0-22.93-0.01c-43.24 16.98-167.74 102.53-216.2 96.07-81.2 1.79-150.43-78.72-134.12-159.38l29.16-170.03a24.64 24.64 0 0 0-7.09-21.81L47.82 526.97c-80.96-73.67-33.46-220.36 75.49-232.32l170.71-24.81c8.03-1.17 14.96-6.2 18.55-13.48l76.35-154.7c45.06-99.76 199.23-99.92 244.28 0.01 0-0.01 76.35 154.69 76.35 154.69a24.645 24.645 0 0 0 18.55 13.48c86.23 18.52 252.74 5.3 280.67 117.51 43.29 107.12-98.89 194.26-158 260.04a24.652 24.652 0 0 0-7.08 21.81l29.16 170.03c16.27 80.58-52.87 161.24-134.11 159.37zM511.07 859.7c21.59-5.15 161.74 79.72 182.77 87.7 33.14 17.43 71.02 14.69 101.32-7.32 30.29-22.01 44.6-57.19 38.27-94.09l-29.16-170.03a64.605 64.605 0 0 1 18.59-57.21l123.53-120.42c57.46-51.84 23.75-155.97-53.32-164.09l-170.71-24.81a64.634 64.634 0 0 1-48.67-35.36l-76.35-154.7c-16.57-33.58-48.82-53.63-86.27-53.63-37.45 0-69.7 20.05-86.27 53.63l-76.35 154.7a64.634 64.634 0 0 1-48.67 35.36l-170.72 24.81c-76.96 8.17-110.89 112.22-53.32 164.1l123.53 120.41a64.605 64.605 0 0 1 18.59 57.21L188.7 845.99c-6.33 36.91 7.98 72.08 38.27 94.09 30.29 22.01 68.17 24.75 101.32 7.32 22.12-8.24 160.71-92.8 182.78-87.7z" fill="#333333" p-id="5468"></path><path d="M748.62 591.36c-1.03-0.15-1.93-0.8-2.39-1.74l-38.7-78.41c-13.29-26.94-40.22-43.67-70.26-43.67s-56.96 16.73-70.26 43.67l-38.7 78.41c-0.46 0.94-1.35 1.59-2.39 1.74l-86.53 12.57c-29.73 4.32-53.96 24.75-63.25 53.32-9.28 28.57-1.69 59.35 19.83 80.32l62.61 61.03c0.75 0.73 1.09 1.78 0.91 2.81l-14.37 83.78c30.55-15.63 57.25-27.5 65.93-25.49 21.59-5.15 161.74 79.72 182.77 87.7 33.14 17.43 71.02 14.69 101.32-7.32 30.29-22.01 44.6-57.19 38.27-94.09l-29.16-170.03a64.605 64.605 0 0 1 18.59-57.21l14.53-14.17c-0.71-0.23-1.45-0.45-2.24-0.64l-86.51-12.58z" fill="#FF743E" p-id="5469"></path></svg>