<?xml version="1.0" standalone="no"?><!DOCTYPE svg PUBLIC "-//W3C//DTD SVG 1.1//EN" "http://www.w3.org/Graphics/SVG/1.1/DTD/svg11.dtd"><svg t="1705384599159" class="icon" viewBox="0 0 1024 1024" version="1.1" xmlns="http://www.w3.org/2000/svg" p-id="4988" xmlns:xlink="http://www.w3.org/1999/xlink" width="200" height="200"><path d="M427.17 354.77c-1.68 98.59-148.33 98.57-150 0 1.68-98.59 148.33-98.58 150 0zM358.46 601.46c-1.12 65.72-98.89 65.71-100 0 1.12-65.72 98.88-65.71 100 0zM524.4 731.85c-1.12 65.72-98.89 65.71-100 0 1.12-65.72 98.89-65.71 100 0z" fill="#333333" p-id="4989"></path><path d="M935.07 436.65c-91.96 0.74-180.37-32.3-251.76-87.41-79.53 30.33-135.14 111.67-134.07 196.93-2.47 147.87 158.42 254.34 293.54 193.92 18.59-7.41 35.4-17.47 50.29-29.54 42.85-81.48 60.32-176.96 42-273.9z" fill="#FF743E" p-id="4990"></path><path d="M511.81 982.89c-415.22 1.97-627.34-510.2-332.33-802.34 94.5-95.36 229.33-146.03 363.38-136.64 9.63 0.63 17.43 8.04 18.56 17.62 22.59 195.18 192.76 341.49 389.42 334.94 9.65-0.28 18.11 6.31 20.16 15.72 7.18 32.88 10.82 66.76 10.82 100.7 5.3 252.29-217.7 475.34-470.01 470z m0-900c-565.1 10.15-565.04 849.93 0.02 860 264.62 2.66 472.31-246.57 423.24-506.24-199.82 1.6-382.84-156.24-411.05-353.58-4.08-0.12-8.16-0.18-12.21-0.18z" fill="#333333" p-id="4991"></path><path d="M427.17 354.77c-1.68 98.59-148.33 98.57-150 0 1.68-98.59 148.33-98.58 150 0zM358.46 601.46c-1.12 65.72-98.89 65.71-100 0 1.12-65.72 98.88-65.71 100 0zM524.4 731.85c-1.12 65.72-98.89 65.71-100 0 1.12-65.72 98.89-65.71 100 0z" fill="#333333" p-id="4992"></path></svg>