<?xml version="1.0" standalone="no"?><!DOCTYPE svg PUBLIC "-//W3C//DTD SVG 1.1//EN" "http://www.w3.org/Graphics/SVG/1.1/DTD/svg11.dtd"><svg t="1705385374358" class="icon" viewBox="0 0 1024 1024" version="1.1" xmlns="http://www.w3.org/2000/svg" p-id="3166" xmlns:xlink="http://www.w3.org/1999/xlink" width="200" height="200"><path d="M717.482667 739.555556a385.024 385.024 0 0 1-65.991111 216.177777 376.149333 376.149333 0 0 1-58.936889 68.266667H158.833778a101.944889 101.944889 0 0 1-101.717334-101.717333V465.806222a388.209778 388.209778 0 0 1 273.066667-113.777778A386.844444 386.844444 0 0 1 717.482667 739.555556z" fill="#FFD000" p-id="3167"></path><path d="M865.848889 1024H158.833778a101.944889 101.944889 0 0 1-101.944889-101.717333V101.717333A101.944889 101.944889 0 0 1 158.833778 0h705.422222a101.717333 101.717333 0 0 1 101.717333 101.717333v820.565334a101.717333 101.717333 0 0 1-100.124444 101.717333z m-705.422222-955.733333a33.450667 33.450667 0 0 0-33.678223 33.450666v820.565334A33.450667 33.450667 0 0 0 160.426667 955.733333h705.422222A33.450667 33.450667 0 0 0 899.299556 922.282667V101.717333A33.450667 33.450667 0 0 0 865.848889 68.266667z" fill="#000000" p-id="3168"></path><path d="M932.522667 216.177778h-841.955556a34.133333 34.133333 0 0 1 0-68.266667h841.955556a34.133333 34.133333 0 1 1 0 68.266667zM655.36 841.045333a34.360889 34.360889 0 0 1-24.120889-10.012444l-143.36-143.36a34.360889 34.360889 0 0 1 0-48.241778 33.905778 33.905778 0 0 1 48.241778 0l119.466667 119.239111 29.809777-29.809778-119.239111-119.239111a34.360889 34.360889 0 0 1 0-48.241777 33.905778 33.905778 0 0 1 48.241778 0l143.36 143.36a33.905778 33.905778 0 0 1 0 48.241777l-78.279111 78.051556a33.450667 33.450667 0 0 1-24.120889 10.012444zM433.720889 619.406222a34.816 34.816 0 0 1-24.120889-10.012444l-142.449778-142.449778a34.133333 34.133333 0 0 1 0-48.241778l78.279111-78.051555a34.133333 34.133333 0 0 1 48.241778 0l142.449778 142.449777a34.133333 34.133333 0 0 1-48.241778 48.241778l-118.328889-118.328889-28.672 29.809778 118.101334 118.328889a34.133333 34.133333 0 0 1-24.120889 58.254222z" fill="#000000" p-id="3169"></path><path d="M367.729778 539.534222a34.360889 34.360889 0 0 1-24.120889-10.012444 33.905778 33.905778 0 0 1 0-48.241778l64.398222-64.398222a34.360889 34.360889 0 0 1 48.241778 0 33.905778 33.905778 0 0 1 0 48.241778l-64.398222 64.398222a34.360889 34.360889 0 0 1-24.120889 10.012444zM560.924444 732.728889a34.360889 34.360889 0 0 1-24.120888-58.481778l64.170666-64.170667a34.2016 34.2016 0 0 1 48.469334 48.241778l-64.398223 64.398222a34.816 34.816 0 0 1-24.120889 10.012445z" fill="#000000" p-id="3170"></path><path d="M288.768 844.913778a34.360889 34.360889 0 0 1-34.133333-36.408889l5.461333-85.560889a33.905778 33.905778 0 0 1 9.784889-22.755556l364.088889-364.088888a34.360889 34.360889 0 0 1 48.241778 0l78.279111 78.279111a33.905778 33.905778 0 0 1 0 48.241777l-364.088889 364.088889a33.905778 33.905778 0 0 1-21.162667 9.784889l-83.512889 7.509334z m38.456889-104.675556l-2.048 32.995556 31.630222-2.958222L688.128 439.182222l-30.037333-29.809778z" fill="#000000" p-id="3171"></path></svg>