<?xml version="1.0" standalone="no"?><!DOCTYPE svg PUBLIC "-//W3C//DTD SVG 1.1//EN" "http://www.w3.org/Graphics/SVG/1.1/DTD/svg11.dtd"><svg t="1705384551324" class="icon" viewBox="0 0 1024 1024" version="1.1" xmlns="http://www.w3.org/2000/svg" p-id="2595" xmlns:xlink="http://www.w3.org/1999/xlink" width="200" height="200"><path d="M359.97 784.92c-12.9 0.36-23.3-13.42-19.15-25.79l45.96-152.03a19.97 19.97 0 0 1 5-8.35L582.7 407.83c15.6-15.6 40.97-15.6 56.57 0l77.78 77.78c15.6 15.6 15.6 40.97 0 56.57L526.14 733.1c-3.34 6.02-159.23 50.55-166.17 51.82z" fill="#FF743E" p-id="2596"></path><path d="M842 52.89H182c-55.14 0-100 44.86-100 100v720c0 55.14 44.86 100 100 100h660c55.14 0 100-44.86 100-100v-720c0-55.14-44.86-100-100-100z m-660 40h660c82.46 1.81 56.02 107.74 60 160H122c4-52.43-22.49-158.12 60-160z m660 840H182c-33.08 0-60-26.92-60-60v-580h780v580c0 33.08-26.92 60-60 60z" fill="#333333" p-id="2597"></path><path d="M717.06 683.6l-70.71-70.71-28.27 28.27 70.71 70.7c0.01 0-77.8 77.8-77.8 77.8l-70.71-70.71c-12.89 12.64-15.12 18.45-33.96 22.61l76.39 76.39c7.8 7.8 18.04 11.7 28.28 11.7s20.49-3.9 28.28-11.7l77.78-77.78c15.61-15.6 15.61-40.97 0.01-56.57zM342.32 577.56l41 41c4.15-18.84 10.01-21.12 22.61-33.96l-21.19-21.19 77.78-77.79 21.19 21.19L512 478.54l-70.71-70.71c-15.6-15.6-40.97-15.6-56.57 0l-77.78 77.78c-15.59 15.6-15.59 40.97 0 56.57l35.38 35.38z m70.69-141.45l21.24 21.24-77.78 77.78-21.24-21.24 77.78-77.78z" fill="#333333" p-id="2598"></path></svg>