<?xml version="1.0" standalone="no"?><!DOCTYPE svg PUBLIC "-//W3C//DTD SVG 1.1//EN" "http://www.w3.org/Graphics/SVG/1.1/DTD/svg11.dtd"><svg t="1705384589915" class="icon" viewBox="0 0 1024 1024" version="1.1" xmlns="http://www.w3.org/2000/svg" p-id="4511" xmlns:xlink="http://www.w3.org/1999/xlink" width="200" height="200"><path d="M471.18 987.89C-1.8 981.67-130.97 341.85 301.86 152.08c26.14-12.87 190.77-62.37 189.32-14.19V533.5h395c10.75-0.2 20.23 9.27 20 20.03 4.57 233.27-201.73 439.28-435 434.36z m-20-829.5c-208.56 10.44-375 183.4-375 394.5 1.18 504.21 762.76 522.2 789.46 20.61H471.18c-11.05 0-20-8.95-20-20V158.39z" fill="#333333" p-id="4512"></path><path d="M966.18 493.5h-415c-11.05 0-20-8.95-20-20V57.89c0-11.05 8.95-20 20-20 233.51-4.92 439.93 201.49 435 435 0.32 11.24-8.73 20.63-20 20.61z" fill="#FF743E" p-id="4513"></path></svg>