<?xml version="1.0" standalone="no"?><!DOCTYPE svg PUBLIC "-//W3C//DTD SVG 1.1//EN" "http://www.w3.org/Graphics/SVG/1.1/DTD/svg11.dtd"><svg t="1705384570893" class="icon" viewBox="0 0 1024 1024" version="1.1" xmlns="http://www.w3.org/2000/svg" p-id="3553" xmlns:xlink="http://www.w3.org/1999/xlink" width="200" height="200"><path d="M962 197.89H62c-11.05 0-20 8.95-20 20s8.95 20 20 20h55.33v644.35c0 58.25 48.03 105.65 107.06 105.65h565.88c59.03 0 107.06-47.39 107.06-105.65V237.89H962c11.05 0 20-8.95 20-20s-8.95-20-20-20zM857.33 882.24c0 36.2-30.08 65.65-67.06 65.65H224.39c-36.98 0-67.06-29.45-67.06-65.65V237.89h700v644.35z" fill="#333333" p-id="3554"></path><path d="M401.99 737.89c11.05 0 20-8.95 20-20v-260c0-11.05-8.95-20-20-20s-20 8.95-20 20v260c0 11.05 8.95 20 20 20zM612.67 737.89c11.05 0 20-8.95 20-20v-260c0-11.05-8.95-20-20-20s-20 8.95-20 20v260c0 11.05 8.95 20 20 20z" fill="#333333" p-id="3555"></path><path d="M742.33 197.89v-60c0-55.14-44.86-100-100-100h-270c-55.14 0-100 44.86-100 100v60h470z" fill="#FF743E" p-id="3556"></path></svg>