<?xml version="1.0" standalone="no"?><!DOCTYPE svg PUBLIC "-//W3C//DTD SVG 1.1//EN" "http://www.w3.org/Graphics/SVG/1.1/DTD/svg11.dtd"><svg t="1705385338619" class="icon" viewBox="0 0 1024 1024" version="1.1" xmlns="http://www.w3.org/2000/svg" p-id="1713" xmlns:xlink="http://www.w3.org/1999/xlink" width="200" height="200"><path d="M678.632727 779.636364a391.447273 391.447273 0 0 1-40.727272 174.545454 367.709091 367.709091 0 0 1-43.985455 69.818182h-349.090909a75.170909 75.170909 0 0 1-75.170909-75.170909v-201.076364H97.28A84.712727 84.712727 0 0 1 12.8 663.272727v-172.218182a382.603636 382.603636 0 0 1 69.818182-52.363636 395.636364 395.636364 0 0 1 455.447273 38.4 384.698182 384.698182 0 0 1 64.930909 69.818182 392.610909 392.610909 0 0 1 75.636363 232.727273z" fill="#FFD000" p-id="1714"></path><path d="M778.705455 1024h-535.272728a75.170909 75.170909 0 0 1-75.170909-75.170909v-395.636364a75.403636 75.403636 0 0 1 75.170909-75.403636h535.272728a75.403636 75.403636 0 0 1 75.170909 75.403636v395.636364A75.170909 75.170909 0 0 1 778.705455 1024z m-535.272728-477.090909a5.585455 5.585455 0 0 0-5.352727 5.585454v395.636364a5.352727 5.352727 0 0 0 5.352727 5.352727h535.272728a5.352727 5.352727 0 0 0 5.352727-5.352727v-395.636364a5.352727 5.352727 0 0 0-5.352727-5.585454zM819.432727 270.661818a34.909091 34.909091 0 0 1-34.909091-34.909091V75.403636a5.352727 5.352727 0 0 0-5.352727-5.585454h-535.272727a5.12 5.12 0 0 0-5.12 5.585454v160.349091a34.909091 34.909091 0 0 1-69.818182 0V75.403636A75.170909 75.170909 0 0 1 243.898182 0h535.272727a75.403636 75.403636 0 0 1 75.170909 75.403636v160.349091a34.909091 34.909091 0 0 1-34.909091 34.909091z" fill="#000000" p-id="1715"></path><path d="M926.952727 747.752727h-107.52a34.909091 34.909091 0 0 1 0-69.818182h107.52a14.661818 14.661818 0 0 0 14.661818-14.661818V285.556364a14.894545 14.894545 0 0 0-14.661818-14.894546H97.047273a14.661818 14.661818 0 0 0-14.661818 14.894546V663.272727a14.661818 14.661818 0 0 0 14.661818 14.661818h107.52a34.909091 34.909091 0 0 1 0 69.818182H97.047273A84.712727 84.712727 0 0 1 12.567273 663.272727V285.556364a84.712727 84.712727 0 0 1 84.48-84.712728h829.905454a84.712727 84.712727 0 0 1 84.48 84.712728V663.272727a84.712727 84.712727 0 0 1-84.48 84.48zM690.734545 885.992727h-351.418181a34.909091 34.909091 0 0 1 0-69.818182h351.418181a34.909091 34.909091 0 1 1 0 69.818182z" fill="#000000" p-id="1716"></path><path d="M690.734545 711.214545h-351.418181a34.909091 34.909091 0 0 1 0-69.818181h351.418181a34.909091 34.909091 0 0 1 0 69.818181z" fill="#000000" p-id="1717"></path></svg>