<?xml version="1.0" standalone="no"?><!DOCTYPE svg PUBLIC "-//W3C//DTD SVG 1.1//EN" "http://www.w3.org/Graphics/SVG/1.1/DTD/svg11.dtd"><svg t="1705384596108" class="icon" viewBox="0 0 1024 1024" version="1.1" xmlns="http://www.w3.org/2000/svg" p-id="4829" xmlns:xlink="http://www.w3.org/1999/xlink" width="200" height="200"><path d="M967 832.89c0 33.08-26.92 60-60 60H117c-33.08 0-60-26.92-60-60V200.78L21.02 164.8A99.855 99.855 0 0 0 17 192.89v640c0 55.14 44.86 100 100 100h790c55.14 0 100-44.86 100-100v-640c0-9.75-1.41-19.17-4.02-28.09L967 200.78v632.11z" fill="#333333" p-id="4830"></path><path d="M983.11 128.1c-18.36-21.53-45.66-35.21-76.11-35.21H117c-30.45 0-57.75 13.68-76.11 35.21-9.01 10.57-15.86 23.03-19.87 36.7L57 200.78l384.29 384.29c18.83 18.83 43.94 29.19 70.71 29.19s51.89-10.37 70.71-29.19L967 200.78l35.98-35.98c-4.01-13.67-10.86-26.13-19.87-36.7z" fill="#FF743E" p-id="4831"></path></svg>