<?xml version="1.0" standalone="no"?><!DOCTYPE svg PUBLIC "-//W3C//DTD SVG 1.1//EN" "http://www.w3.org/Graphics/SVG/1.1/DTD/svg11.dtd"><svg t="1705384608283" class="icon" viewBox="0 0 1024 1024" version="1.1" xmlns="http://www.w3.org/2000/svg" p-id="5624" xmlns:xlink="http://www.w3.org/1999/xlink" width="200" height="200"><path d="M942 292.89H82v-140c0-55.14 44.86-100 100-100h660c55.14 0 100 44.86 100 100v140z" fill="#FF743E" p-id="5625"></path><path d="M469.56 726.02l0.01 0.01c2.43 2.43 5.33 4.1 8.4 5.02 0.01 0 0.03 0.01 0.04 0.02 0.88 0.26 1.78 0.44 2.68 0.57 1 0.15 2.01 0.25 3.02 0.25 5.12 0 10.24-1.95 14.14-5.86l197.99-197.99c7.81-7.81 7.81-20.47 0-28.28s-20.47-7.81-28.29 0L483.72 683.6 356.44 556.32c-7.81-7.81-20.47-7.81-28.28 0-7.81 7.81-7.81 20.47 0 28.28l141.4 141.42z" fill="#333333" p-id="5626"></path><path d="M902 292.89v580c0 33.08-26.92 60-60 60H182c-33.08 0-60-26.92-60-60v-580H82v580c0 55.14 44.86 100 100 100h660c55.14 0 100-44.86 100-100v-580h-40z" fill="#333333" p-id="5627"></path></svg>