<?xml version="1.0" standalone="no"?><!DOCTYPE svg PUBLIC "-//W3C//DTD SVG 1.1//EN" "http://www.w3.org/Graphics/SVG/1.1/DTD/svg11.dtd"><svg t="1705385358292" class="icon" viewBox="0 0 1024 1024" version="1.1" xmlns="http://www.w3.org/2000/svg" p-id="2361" xmlns:xlink="http://www.w3.org/1999/xlink" width="200" height="200"><path d="M740.62317 662.986974A371.727525 371.727525 0 0 1 476.2593 1018.970745a138.413837 138.413837 0 0 1-32.362161-13.338458l-325.370916-188.050395A136.445868 136.445868 0 0 1 50.521952 699.7224V471.000641a371.727525 371.727525 0 0 1 690.101218 191.986333z" fill="#FFD000" p-id="2362"></path><path d="M511.90141 1024A137.101858 137.101858 0 0 1 443.897139 1005.85095L118.526223 817.800555A136.227205 136.227205 0 0 1 50.303289 699.941063V324.2776a136.227205 136.227205 0 0 1 68.222934-117.859492L443.897139 18.367713a136.227205 136.227205 0 0 1 136.008542 0l325.589579 188.050395a136.008542 136.008542 0 0 1 68.004271 117.859492v375.663463a136.008542 136.008542 0 0 1-68.004271 117.859492L579.905681 1005.85095a136.664531 136.664531 0 0 1-68.004271 18.14905z m0-958.182362a69.753577 69.753577 0 0 0-35.204783 9.40252L151.325711 263.05189A71.065556 71.065556 0 0 0 115.902264 324.2776v375.663463a71.065556 71.065556 0 0 0 35.423447 61.22571L476.696627 948.998505a71.065556 71.065556 0 0 0 70.409566 0l324.714927-187.394405a71.28422 71.28422 0 0 0 35.204783-61.22571v-376.10079a71.28422 71.28422 0 0 0-35.204783-61.22571L546.23154 75.220158A69.097587 69.097587 0 0 0 511.90141 65.598975z" fill="#000000" p-id="2363"></path><path d="M336.31482 720.276746a33.455477 33.455477 0 0 1-23.178304-9.621183 33.236814 33.236814 0 0 1-8.309204-32.580825l80.03075-271.14243a33.236814 33.236814 0 0 1 21.866325-21.866325l271.14243-80.030749a32.799488 32.799488 0 0 1 32.362161 8.309203 33.236814 33.236814 0 0 1 8.527867 32.799488l-80.03075 271.14243a32.580824 32.580824 0 0 1-21.866325 21.866325l-271.14243 80.030749a34.767457 34.767457 0 0 1-9.40252 1.093317z m106.489003-277.483665l-57.945761 196.796925 196.796925-57.945761 57.727098-196.796925z" fill="#000000" p-id="2364"></path></svg>