<?xml version="1.0" standalone="no"?><!DOCTYPE svg PUBLIC "-//W3C//DTD SVG 1.1//EN" "http://www.w3.org/Graphics/SVG/1.1/DTD/svg11.dtd"><svg t="1705385396792" class="icon" viewBox="0 0 1024 1024" version="1.1" xmlns="http://www.w3.org/2000/svg" p-id="4129" xmlns:xlink="http://www.w3.org/1999/xlink" width="200" height="200"><path d="M775.601591 676.781609a413.180077 413.180077 0 0 1-67.43295 227.065134 406.314176 406.314176 0 0 1-107.402299 112.061303 501.455939 501.455939 0 0 1-88.521073 7.846743A512.245211 512.245211 0 0 1 0.245269 512c0-17.655172 0-35.065134 2.697318-52.229885a416.858238 416.858238 0 0 1 566.681993-142.222222 413.915709 413.915709 0 0 1 93.425287 74.789272 407.295019 407.295019 0 0 1 45.854406 58.360153 414.896552 414.896552 0 0 1 66.697318 226.084291z" fill="#FFD000" p-id="4130"></path><path d="M512.000059 1024a512 512 0 1 1 512-512 512.490421 512.490421 0 0 1-512 512z m0-950.191571a438.436782 438.436782 0 1 0 438.436781 438.191571A438.681992 438.681992 0 0 0 512.000059 73.808429z" fill="#000000" p-id="4131"></path><path d="M229.026879 677.02682a36.045977 36.045977 0 0 1-25.992338-10.789272 36.536398 36.536398 0 0 1 0-51.984674l204.505748-204.505748a36.781609 36.781609 0 0 1 52.229885 0l92.444444 92.444445 177.777778-178.022989a37.02682 37.02682 0 0 1 51.984674 0 36.536398 36.536398 0 0 1 0 51.984675l-203.770115 204.015325a38.252874 38.252874 0 0 1-52.229885 0l-92.444444-92.444444-178.51341 178.51341a36.045977 36.045977 0 0 1-25.992337 10.789272z" fill="#000000" p-id="4132"></path><path d="M779.770174 537.501916a36.781609 36.781609 0 0 1-35.800767-36.291188V363.157088h-137.808429a36.781609 36.781609 0 0 1 0-73.563218h174.590039a36.781609 36.781609 0 0 1 36.781609 36.781609v174.835249a36.781609 36.781609 0 0 1-37.762452 36.291188z" fill="#000000" p-id="4133"></path></svg>