<?xml version="1.0" standalone="no"?><!DOCTYPE svg PUBLIC "-//W3C//DTD SVG 1.1//EN" "http://www.w3.org/Graphics/SVG/1.1/DTD/svg11.dtd"><svg t="1705384545121" class="icon" viewBox="0 0 1024 1024" version="1.1" xmlns="http://www.w3.org/2000/svg" p-id="2277" xmlns:xlink="http://www.w3.org/1999/xlink" width="200" height="200"><path d="M922.39 471.37H101.62c-34.85 0-63.2-28.35-63.2-63.2v-129.6c0-34.85 28.35-63.2 63.2-63.2h820.77c34.85 0 63.2 28.35 63.2 63.2v129.6c-0.01 34.85-28.36 63.2-63.2 63.2z" fill="#FF743E" p-id="2278"></path><path d="M220.92 215.38h56.57l-38.7-38.7c-4.35-4.35-6.75-10.18-6.75-16.4 0-6.23 2.4-12.05 6.75-16.4l61.09-61.09c4.35-4.35 10.18-6.75 16.41-6.75s12.05 2.4 16.4 6.75l132.6 132.6h93.42L691.3 82.78c4.35-4.35 10.17-6.75 16.4-6.75 6.23 0 12.05 2.4 16.4 6.75l61.09 61.09c4.35 4.35 6.75 10.18 6.75 16.4 0 6.23-2.4 12.05-6.75 16.4l-38.69 38.69h56.57l10.41-10.41c11.91-11.9 18.46-27.78 18.46-44.69 0-16.91-6.56-32.78-18.46-44.69L752.39 54.5c-11.9-11.9-27.78-18.46-44.69-18.46-16.91 0-32.78 6.56-44.69 18.46L512 205.52 360.97 54.49c-11.9-11.9-27.78-18.46-44.69-18.46-16.91 0-32.78 6.56-44.69 18.46l-61.09 61.09c-11.91 11.9-18.46 27.78-18.46 44.69s6.56 32.78 18.46 44.69l10.42 10.42zM869.99 471.37v409c0 38.26-29.79 69.38-66.4 69.38H532V471.37h-40v478.38H220.41c-36.61 0-66.4-31.13-66.4-69.38v-409h-40v409c0 60.31 47.73 109.38 106.4 109.38h583.18c58.67 0 106.4-49.07 106.4-109.38v-409h-40z" fill="#333333" p-id="2279"></path></svg>