<?xml version="1.0" standalone="no"?><!DOCTYPE svg PUBLIC "-//W3C//DTD SVG 1.1//EN" "http://www.w3.org/Graphics/SVG/1.1/DTD/svg11.dtd"><svg t="1705385333717" class="icon" viewBox="0 0 1024 1024" version="1.1" xmlns="http://www.w3.org/2000/svg" p-id="1387" xmlns:xlink="http://www.w3.org/1999/xlink" width="200" height="200"><path d="M726.851747 572.280179v4.578241a342.496061 342.496061 0 0 1-2.616138 43.6023 311.102406 311.102406 0 0 1-8.284437 47.308494 338.353843 338.353843 0 0 1-32.04769 19.403024v63.877368a378.249947 378.249947 0 0 1-32.701724 51.232702 344.022142 344.022142 0 0 1-27.251437 31.829678 338.135831 338.135831 0 0 1-35.753886 32.701725h-216.485416a32.701725 32.701725 0 0 1-32.701725-32.701725v-147.15776A364.951245 364.951245 0 0 1 161.547936 262.485842a373.017671 373.017671 0 0 1 42.29423-21.80115 336.609751 336.609751 0 0 1 43.6023-16.786885 376.069832 376.069832 0 0 1 109.005748-15.914839 370.619544 370.619544 0 0 1 370.401533 364.297211z" fill="#FFD000" p-id="1388"></path><path d="M652.291815 698.508835a32.701725 32.701725 0 0 1-13.952736-62.351288 299.765808 299.765808 0 1 0-251.803278 0 32.767128 32.767128 0 0 1-27.469449 59.517139 364.733234 364.733234 0 1 1 306.960187 0 34.881839 34.881839 0 0 1-13.734724 2.834149zM652.291815 1024H371.711019a32.701725 32.701725 0 0 1 0-65.403449h280.580796a32.701725 32.701725 0 0 1 0 65.403449z" fill="#000000" p-id="1389"></path><path d="M652.291815 865.941665H371.711019a32.701725 32.701725 0 0 1-32.701725-32.701725v-167.214818a32.701725 32.701725 0 0 1 65.403449 0v134.513094h214.08729v-134.295082a32.701725 32.701725 0 0 1 65.403449 0v166.996806a32.701725 32.701725 0 0 1-31.611667 32.701725z" fill="#000000" p-id="1390"></path></svg>