<?xml version="1.0" standalone="no"?><!DOCTYPE svg PUBLIC "-//W3C//DTD SVG 1.1//EN" "http://www.w3.org/Graphics/SVG/1.1/DTD/svg11.dtd"><svg t="1705384601384" class="icon" viewBox="0 0 1024 1024" version="1.1" xmlns="http://www.w3.org/2000/svg" p-id="5149" xmlns:xlink="http://www.w3.org/1999/xlink" width="200" height="200"><path d="M696.96 961.03H339.17v-281.7c0-44.18 35.82-80 80-80h197.79c44.18 0 80 35.82 80 80v281.7z" fill="#FF743E" p-id="5150"></path><path d="M814.05 1001.03H209.96c-54 0-97.94-42.4-97.96-94.52v-495.2L443.06 52.13C461.52 34.48 486 24.76 512 24.76s50.48 9.72 68.94 27.37l0.89 0.9L912 411.31V906.5c0 52.12-43.94 94.53-97.95 94.53zM152 426.93V906.5c0.01 30.07 26.01 54.53 57.96 54.53h604.09c31.95 0 57.95-24.46 57.95-54.53V426.93L552.87 80.63c-22.66-21.23-59.08-21.23-81.74 0L152 426.93z" fill="#333333" p-id="5151"></path></svg>