<?xml version="1.0" standalone="no"?><!DOCTYPE svg PUBLIC "-//W3C//DTD SVG 1.1//EN" "http://www.w3.org/Graphics/SVG/1.1/DTD/svg11.dtd"><svg t="1705385341347" class="icon" viewBox="0 0 1024 1024" version="1.1" xmlns="http://www.w3.org/2000/svg" p-id="1872" xmlns:xlink="http://www.w3.org/1999/xlink" width="200" height="200"><path d="M759.708562 690.011733a355.322378 355.322378 0 0 1-2.606277 43.437944 362.05526 362.05526 0 0 1-68.197571 173.751774q-59.944362 50.170825-135.092005 102.296357a76.016401 76.016401 0 0 1-86.875887 0C213.042042 833.139757 91.850179 678.066299 72.520295 500.40511a369.22252 369.22252 0 0 1 687.188267 189.606623z" fill="#FFD000" p-id="1873"></path><path d="M928.899352 175.923671a74.496073 74.496073 0 0 0-52.994291-21.718971C714.315911 154.2047 562.717488 21.284592 561.19716 19.981454a75.364832 75.364832 0 0 0-100.55884 0 640.058098 640.058098 0 0 1-97.518183 67.980382 456.098407 456.098407 0 0 1-217.189718 66.460053A75.147642 75.147642 0 0 0 70.782777 229.352342v220.013184a456.098407 456.098407 0 0 0 2.823466 51.908343c19.329885 177.661189 140.521747 332.734648 394.416528 509.092698a76.016401 76.016401 0 0 0 86.875887 0q75.364832-52.125532 135.092004-102.296357c182.222173-152.032802 262.147989-294.726447 262.147989-458.704684V228.483583a73.844504 73.844504 0 0 0-23.239299-52.559912z m-54.948999 273.007476c0 77.971109-18.026747 169.842359-116.848068 284.73572a1303.138307 1303.138307 0 0 1-246.29314 212.194354C191.10588 723.67614 147.885127 569.905819 147.885127 448.931147v-217.189718a441.329506 441.329506 0 0 0 137.698281-24.108059 651.569153 651.569153 0 0 0 116.848068-52.994291 695.007097 695.007097 0 0 0 108.594859-75.799211 701.739978 701.739978 0 0 0 108.594859 75.799211 643.098754 643.098754 0 0 0 116.630878 52.994291 443.718593 443.718593 0 0 0 137.915471 24.108059z" fill="#000000" p-id="1874"></path><path d="M510.809145 530.81167a143.128024 143.128024 0 1 1 143.128024-143.128024 143.345214 143.345214 0 0 1-143.128024 143.128024z m0-220.881943a77.971109 77.971109 0 1 0 77.971109 77.753919 77.971109 77.971109 0 0 0-77.971109-77.753919z" fill="#000000" p-id="1875"></path><path d="M325.329126 700.871219h-3.692225a32.578458 32.578458 0 0 1-28.669043-36.053493 219.578805 219.578805 0 0 1 436.116953 0 32.773928 32.773928 0 1 1-65.156915 7.167261 154.421889 154.421889 0 0 0-306.671881 0 32.795647 32.795647 0 0 1-31.926889 28.886232z" fill="#000000" p-id="1876"></path></svg>