<?xml version="1.0" standalone="no"?><!DOCTYPE svg PUBLIC "-//W3C//DTD SVG 1.1//EN" "http://www.w3.org/Graphics/SVG/1.1/DTD/svg11.dtd"><svg t="1705384538459" class="icon" viewBox="0 0 1024 1024" version="1.1" xmlns="http://www.w3.org/2000/svg" p-id="1956" xmlns:xlink="http://www.w3.org/1999/xlink" width="200" height="200"><path d="M898.53 226.6C675.39 216.88 561.42 66.21 531.08 19.48c-3.93-8.91-15.11-13.79-24.47-10.61C455.8 62.1 367.82 214.17 127.1 226.6c-10.7 0.46-19.15 9.27-19.15 19.98 6.84 165.55-35.83 371.49 82.93 515.25 47.99 84.24 282.64 266.3 330.37 255.6 129.86-53.48 379.82-258.62 396.15-448.92 1.96-3.49-0.85-318.32 0.27-321.94 0.01-10.7-8.44-19.51-19.14-19.97z m-20.85 337.07c-30.01 195.92-237.38 349.97-364.8 413.35-127.91-63.86-334.58-217.04-364.92-413.35V265.41c151.03-14.18 268.61-76.73 364.86-201.98 96.16 125.19 213.93 187.85 364.86 201.98v298.26z" fill="#333333" p-id="1957"></path><path d="M668.13 501.32c-22.94-22.94-50.08-40.17-79.67-50.98-20.62 16.71-46.87 26.74-75.42 26.74 92.12 0 168.25 69.83 178.22 159.33H334.82c9.98-89.51 86.1-159.33 178.22-159.33-28.55 0-54.79-10.03-75.42-26.74-92.33 32.25-151.69 129.1-143.91 226.07h438.66c3.6-65-17.29-129.07-64.24-175.09z" fill="#333333" p-id="1958"></path><path d="M513.04 477.08c-66.17 0-120-53.83-120-120s53.83-120 120-120 120 53.83 120 120-53.83 120-120 120z" fill="#FF743E" p-id="1959"></path></svg>