<?xml version="1.0" standalone="no"?><!DOCTYPE svg PUBLIC "-//W3C//DTD SVG 1.1//EN" "http://www.w3.org/Graphics/SVG/1.1/DTD/svg11.dtd"><svg t="1705385361338" class="icon" viewBox="0 0 1146 1024" version="1.1" xmlns="http://www.w3.org/2000/svg" p-id="2523" xmlns:xlink="http://www.w3.org/1999/xlink" width="223.828125" height="200"><path d="M685.2153875 811.819685a414.65496562 414.65496562 0 0 1-14.17418531 107.1472275 377.65794094 377.65794094 0 0 1-27.38740781 72.07212563H340.23014375a28.58860969 28.58860969 0 0 1-7.92793406 0h-264.26446313a36.03606281 36.03606281 0 0 1-36.03606281-36.03606282V483.65127031a402.40270406 402.40270406 0 0 1 117.23732531-60.54058594h155.43555188a32.67269719 32.67269719 0 0 1 9.12913594-5.76577031l20.66067656-9.60961687a391.83212625 391.83212625 0 0 1 100.42049531 28.34836968 408.40871531 408.40871531 0 0 1 250.33051875 375.73601813z" fill="#FFD000" p-id="2524"></path><path d="M329.659565 486.293915a35.55558187 35.55558187 0 0 1-33.15317813-21.62163844 36.03606281 36.03606281 0 0 1 18.73875282-48.04808343c93.21328313-40.36039031 155.91603281-86.48655188 181.38151781-133.09319344a432.4327575 432.4327575 0 0 0 40.60063125-96.09616782 325.76601 325.76601 0 0 0 6.96697219-49.72976718 104.98506375 104.98506375 0 0 1 27.86788875-74.71477125 127.08718219 127.08718219 0 0 1 149.18930062-12.49250156c65.82587531 40.12015031 62.70274969 131.17126969 61.02106688 185.46560437a436.03636312 436.03636312 0 0 1-52.61265188 190.51065375 36.03606281 36.03606281 0 0 1-63.66371156-33.87389906 366.12640125 366.12640125 0 0 0 44.20423781-158.3184375c0-39.39942937 3.36336563-104.02410187-26.66668687-122.52261469a57.65770125 57.65770125 0 0 0-61.02106688 2.40240469c-3.60360656 3.84384656-4.56456844 8.16817406-6.48649125 29.54957156a374.29457531 374.29457531 0 0 1-8.648655 59.819865 482.16252375 482.16252375 0 0 1-48.04808437 114.59468063c-33.63365906 61.74178781-106.42650656 117.23732531-216.21637875 164.56468781a33.39341813 33.39341813 0 0 1-13.45346344 3.60360656z" fill="#000000" p-id="2525"></path><path d="M930.98133781 990.79879813h-600.60105187a36.03606281 36.03606281 0 0 1-36.03606281-36.03606376v-504.50488312a36.03606281 36.03606281 0 0 1 72.07212656 0v468.46882031h538.61902219l128.76886593-438.43876781a46.60664156 46.60664156 0 0 0-14.17418531-29.54957156 45.40543969 45.40543969 0 0 0-34.11413906-13.2132225l-285.64586063 8.648655a36.03606281 36.03606281 0 1 1-2.16216375-72.07212657l285.40561969-8.88889593a120.12021 120.12021 0 0 1 123.00309563 120.12021093 36.99702469 36.99702469 0 0 1-1.44144282 10.33033782L964.85523688 965.09307312a35.79582281 35.79582281 0 0 1-33.87389907 25.70572501z" fill="#000000" p-id="2526"></path><path d="M333.02293063 992h-264.26446219a36.03606281 36.03606281 0 0 1-36.03606375-36.03606281V459.14674719a36.03606281 36.03606281 0 0 1 36.03606375-36.03606282h264.26446219a36.03606281 36.03606281 0 0 1-1e-8 72.07212563H105.75549312v424.74506344h227.26743751a36.03606281 36.03606281 0 0 1-1e-8 72.07212656z" fill="#000000" p-id="2527"></path></svg>