<?xml version="1.0" standalone="no"?><!DOCTYPE svg PUBLIC "-//W3C//DTD SVG 1.1//EN" "http://www.w3.org/Graphics/SVG/1.1/DTD/svg11.dtd"><svg t="1705385380569" class="icon" viewBox="0 0 1196 1024" version="1.1" xmlns="http://www.w3.org/2000/svg" p-id="3486" xmlns:xlink="http://www.w3.org/1999/xlink" width="233.59375" height="200"><path d="M795.76666531 679.24514844v18.02402156a421.15283906 421.15283906 0 0 1-27.67068094 135.30709125l-148.00006312 148.00006312a38.07891844 38.07891844 0 0 1-53.81820469 0L117.96191562 533.02210156a291.43065656 291.43065656 0 0 1-77.68099406-138.86112281 419.12196375 419.12196375 0 0 1 67.52661563-62.44942687 431.56107656 431.56107656 0 0 1 687.19755 347.53359656z" fill="#FFD000" p-id="3487"></path><path d="M592.67910031 992a38.5866375 38.5866375 0 0 1-26.90910281-11.16981656L117.96191562 533.02210156A293.48691844 293.48691844 0 1 1 533.02212781 117.96188937l59.6569725 59.65697251 59.65697156-59.6569725a293.71539188 293.71539188 0 0 1 415.06021313 0 293.20767281 293.20767281 0 0 1 0 415.06021218L619.58820219 980.83018344a38.07891844 38.07891844 0 0 1-26.90910188 11.16981656zM325.61895125 108.31523A217.303695 217.303695 0 0 0 171.78012031 479.20389688l420.89898 420.89897999 420.89897907-420.89897999a217.303695 217.303695 0 0 0 0-307.42380282 217.557555 217.557555 0 0 0-307.42380188 0l-86.56607531 86.31221531a38.07891844 38.07891844 0 0 1-26.90910188 11.16981657 38.5866375 38.5866375 0 0 1-27.92454093-11.16981657l-86.56607438-86.56607437A216.28825781 216.28825781 0 0 0 325.61895125 108.31523z" fill="#000000" p-id="3488"></path><path d="M605.37207313 679.24514844h-2.53859532a37.82505938 37.82505938 0 0 1-34.27102594-28.68611813l-45.9485625-183.79424719-59.4031125 162.21619313a37.82505938 37.82505938 0 0 1-35.79418312 25.38594562h-279.24540281a38.07891844 38.07891844 0 0 1 0-76.15783687h253.85945625l92.40484312-253.85945719a38.33277844 38.33277844 0 0 1 72.85766344 3.80789157l47.47171875 190.39459312 57.87995625-144.44603062a38.07891844 38.07891844 0 0 1 66.25731844-8.12350313l115.5060525 161.70847406h234.31227937a38.07891844 38.07891844 0 0 1 0 76.15783782h-253.85945718a38.33277844 38.33277844 0 0 1-30.97085344-15.73928719l-86.81993438-121.85253938-76.15783781 189.12529594a38.33277844 38.33277844 0 0 1-35.54032312 23.86278844z" fill="#000000" p-id="3489"></path></svg>