<?xml version="1.0" standalone="no"?><!DOCTYPE svg PUBLIC "-//W3C//DTD SVG 1.1//EN" "http://www.w3.org/Graphics/SVG/1.1/DTD/svg11.dtd"><svg t="1705384529894" class="icon" viewBox="0 0 1024 1024" version="1.1" xmlns="http://www.w3.org/2000/svg" p-id="1479" xmlns:xlink="http://www.w3.org/1999/xlink" width="200" height="200"><path d="M862 359.42c0-47.24-9.26-93.08-27.51-136.24-17.63-41.68-42.86-79.11-75-111.25s-69.57-57.37-111.25-75C605.08 18.68 559.24 9.42 512 9.42s-93.08 9.26-136.24 27.51c-41.68 17.63-79.11 42.86-111.25 75s-57.37 69.57-75 111.25c-18.26 43.16-27.51 89-27.51 136.24 0 54.94 12.37 107.52 36.77 156.31 0 0.01 0.01 0.02 0.01 0.03 0.14 0.29 0.28 0.58 0.43 0.87 0.37 0.74 0.8 1.45 1.25 2.12l292.95 487.68c0.02 0.03 0.04 0.06 0.05 0.09l0.09 0.15c0.26 0.43 0.54 0.85 0.83 1.26 0.11 0.16 0.23 0.31 0.34 0.46 0.25 0.34 0.52 0.67 0.79 0.98l0.31 0.37c0.38 0.43 0.78 0.84 1.2 1.23 0.07 0.07 0.15 0.13 0.22 0.2 0.42 0.39 0.86 0.75 1.31 1.1l0.12 0.09c0.51 0.38 1.03 0.73 1.57 1.06l0.09 0.06c0.06 0.04 0.13 0.07 0.19 0.11 0.28 0.16 0.56 0.32 0.84 0.47 0.14 0.07 0.28 0.15 0.43 0.22a22.904 22.904 0 0 0 1.28 0.59c0.19 0.08 0.37 0.15 0.56 0.22 0.24 0.09 0.48 0.18 0.72 0.26 0.13 0.05 0.27 0.09 0.41 0.13 0.29 0.09 0.58 0.18 0.87 0.25l0.27 0.06c0.33 0.08 0.67 0.16 1 0.23l0.16 0.03c0.37 0.07 0.74 0.13 1.11 0.18 0.04 0 0.07 0.01 0.11 0.01 0.38 0.05 0.77 0.09 1.15 0.11 0.14 0.01 0.28 0.01 0.42 0.01 0.27 0.01 0.55 0.03 0.82 0.03h0.04c0.29 0 0.59-0.02 0.88-0.03 0.12-0.01 0.23 0 0.35-0.01 0.4-0.02 0.8-0.06 1.2-0.11 0.02 0 0.03 0 0.05-0.01 0.38-0.05 0.76-0.11 1.14-0.18 0.04-0.01 0.08-0.01 0.12-0.02 0.34-0.07 0.68-0.15 1.02-0.23l0.24-0.06c0.29-0.08 0.59-0.17 0.88-0.26l0.39-0.12c0.24-0.08 0.49-0.17 0.73-0.26 0.18-0.07 0.37-0.14 0.55-0.21 0.19-0.08 0.38-0.16 0.57-0.25 0.24-0.11 0.48-0.22 0.71-0.33l0.42-0.21c0.28-0.15 0.56-0.3 0.84-0.47 0.06-0.03 0.12-0.06 0.18-0.1l0.09-0.06a20.1 20.1 0 0 0 1.59-1.07 0.27 0.27 0 0 0 0.08-0.07c0.46-0.35 0.91-0.72 1.35-1.12a20.233 20.233 0 0 0 1.43-1.42c0.1-0.11 0.19-0.23 0.29-0.34 0.28-0.33 0.55-0.66 0.81-1.01 0.11-0.15 0.22-0.29 0.33-0.44 0.29-0.41 0.57-0.83 0.83-1.26l0.09-0.15c0.02-0.03 0.03-0.05 0.05-0.08l296.1-488.52c0.14-0.23 0.25-0.46 0.37-0.69 0.13-0.23 0.27-0.45 0.39-0.68 24.7-49.05 37.22-101.93 37.22-157.2z m-350-310c170.93 0 310 139.07 310 310 0 48.72-10.97 95.33-32.61 138.55L510.77 957.65 234.46 497.66C212.92 454.53 202 408.03 202 359.42c0-170.94 139.07-310 310-310z" fill="#333333" p-id="1480"></path><path d="M512 529.42c93.74 0 170-76.26 170-170s-76.26-170-170-170-170 76.26-170 170 76.26 170 170 170z" fill="#FF743E" p-id="1481"></path></svg>