<?xml version="1.0" standalone="no"?><!DOCTYPE svg PUBLIC "-//W3C//DTD SVG 1.1//EN" "http://www.w3.org/Graphics/SVG/1.1/DTD/svg11.dtd"><svg t="1705385422128" class="icon" viewBox="0 0 1024 1024" version="1.1" xmlns="http://www.w3.org/2000/svg" p-id="5415" xmlns:xlink="http://www.w3.org/1999/xlink" width="200" height="200"><path d="M825.802079 683.136663a384.940262 384.940262 0 0 1-42.566616 177.169159 389.542058 389.542058 0 0 1-119.876794 140.124698A511.94984 511.94984 0 0 1 46.257783 728.694447a372.515412 372.515412 0 0 1-2.761078-46.017963 386.780981 386.780981 0 0 1 23.008982-131.151195 391.152687 391.152687 0 0 1 759.296392 131.151195z" fill="#FFD000" p-id="5416"></path><path d="M510.118852 880.093546a359.630382 359.630382 0 0 1-63.964969-5.522156 368.143705 368.143705 0 0 1-299.116761-299.11676 350.886969 350.886969 0 0 1-5.522155-63.50479 357.099394 357.099394 0 0 1 5.522155-63.734879 368.143705 368.143705 0 0 1 299.116761-299.11676 35.01967 35.01967 0 0 1 11.734581 69.026944A299.116761 299.116761 0 0 0 215.373798 460.409722a286.691911 286.691911 0 0 0-4.371707 51.540118 282.320204 282.320204 0 0 0 4.371707 51.310029 299.116761 299.116761 0 0 0 242.974845 243.204936 291.523797 291.523797 0 0 0 102.850148 0 299.116761 299.116761 0 0 0 243.435025-243.204936 286.231731 286.231731 0 0 0 4.601797-51.540118 281.860025 281.860025 0 0 0-4.601797-51.310029A299.116761 299.116761 0 0 0 561.658971 217.204786a35.01967 35.01967 0 0 1 11.73458-69.026945 368.143705 368.143705 0 0 1 299.116761 299.116761 350.42679 350.42679 0 0 1 5.752245 63.504789 359.400292 359.400292 0 0 1-5.752245 63.964969 368.143705 368.143705 0 0 1-299.116761 299.116761 348.125891 348.125891 0 0 1-63.274699 6.212425z" fill="#000000" p-id="5417"></path><path d="M510.118852 1023.899681A511.489661 511.489661 0 0 1 2.080538 573.613911a34.743562 34.743562 0 0 1 69.026945-8.283233 442.692806 442.692806 0 0 0 878.943097 0 402.657178 402.657178 0 0 0 3.451347-53.380838 391.152687 391.152687 0 0 0-3.451347-52.920657 442.692806 442.692806 0 0 0-878.943097 0 34.743562 34.743562 0 1 1-69.026945-8.283234 511.719751 511.719751 0 0 1 1016.076627 0 479.277087 479.277087 0 0 1 3.911527 61.664071 449.36541 449.36541 0 0 1-4.141616 62.12425A511.259571 511.259571 0 0 1 510.118852 1023.899681z" fill="#000000" p-id="5418"></path><path d="M510.118852 700.3934a99.3988 99.3988 0 0 1-70.637574-29.451497l-88.354489-88.124399a100.31916 100.31916 0 0 1 0-141.505237l88.354489-88.1244a99.62889 99.62889 0 0 1 141.275147 0L669.110915 441.312267a100.31916 100.31916 0 0 1 0 141.505237l-88.35449 88.124399a100.779339 100.779339 0 0 1-70.637573 29.451497z m0-307.630084a29.911676 29.911676 0 0 0-21.858533 9.203592l-88.354489 88.35449a30.832035 30.832035 0 0 0 0 43.486975l88.354489 88.354489a30.601946 30.601946 0 0 0 43.717065 0l88.35449-88.354489a30.832035 30.832035 0 0 0 0-43.486975l-88.35449-88.35449a30.371856 30.371856 0 0 0-21.858532-9.203592z" fill="#000000" p-id="5419"></path></svg>