<?xml version="1.0" standalone="no"?><!DOCTYPE svg PUBLIC "-//W3C//DTD SVG 1.1//EN" "http://www.w3.org/Graphics/SVG/1.1/DTD/svg11.dtd"><svg t="1705384554705" class="icon" viewBox="0 0 1024 1024" version="1.1" xmlns="http://www.w3.org/2000/svg" p-id="2757" xmlns:xlink="http://www.w3.org/1999/xlink" width="200" height="200"><path d="M857 222.89H167c-55.14 0-100 44.86-100 100v540c0 55.14 44.86 100 100 100h690c55.14 0 100-44.86 100-100v-540c0-55.14-44.86-100-100-100z m60 640c0 33.08-26.92 60-60 60H167c-33.08 0-60-26.92-60-60v-540c0-33.08 26.92-60 60-60h690c33.08 0 60 26.92 60 60v540z" fill="#333333" p-id="2758"></path><path d="M687 596.58H532v-155c0-11.05-8.95-20-20-20s-20 8.95-20 20v155H337c-11.05 0-20 8.95-20 20s8.95 20 20 20h155v155c0 11.05 8.95 20 20 20s20-8.95 20-20v-155h155c11.05 0 20-8.95 20-20s-8.95-20-20-20z" fill="#333333" p-id="2759"></path><path d="M747 222.89v-60c0-55.14-44.86-100-100-100H377c-55.14 0-100 44.86-100 100v60h470z" fill="#FF743E" p-id="2760"></path></svg>