<?xml version="1.0" standalone="no"?><!DOCTYPE svg PUBLIC "-//W3C//DTD SVG 1.1//EN" "http://www.w3.org/Graphics/SVG/1.1/DTD/svg11.dtd"><svg t="1705384541252" class="icon" viewBox="0 0 1024 1024" version="1.1" xmlns="http://www.w3.org/2000/svg" p-id="2118" xmlns:xlink="http://www.w3.org/1999/xlink" width="200" height="200"><path d="M512 232.89c-113.04 0-205 91.96-205 205s91.96 205 205 205 205-91.96 205-205-91.96-205-205-205z" fill="#FF743E" p-id="2119"></path><path d="M885.17 280.24c-20.4-48.23-49.6-91.54-86.79-128.73-37.19-37.19-80.5-66.39-128.73-86.79C619.71 43.6 566.67 32.89 512 32.89S404.29 43.6 354.35 64.73c-48.23 20.4-91.54 49.6-128.73 86.79-37.19 37.19-66.39 80.5-86.79 128.73C117.71 330.18 107 383.22 107 437.89s10.71 107.71 31.83 157.65c20.4 48.23 49.6 91.54 86.79 128.73 37.19 37.19 80.5 66.39 128.73 86.79 43.83 18.54 90.04 29.05 137.65 31.35v110.48H262c-11.05 0-20 8.95-20 20s8.95 20 20 20h500c11.05 0 20-8.95 20-20s-8.95-20-20-20H532V842.41c47.61-2.3 93.82-12.81 137.65-31.35 48.23-20.4 91.54-49.6 128.73-86.79 37.19-37.19 66.39-80.5 86.79-128.73C906.29 545.6 917 492.56 917 437.89s-10.71-107.71-31.83-157.65zM512 802.89c-201.26 0-365-163.74-365-365s163.74-365 365-365 365 163.74 365 365-163.74 365-365 365z" fill="#333333" p-id="2120"></path></svg>