<?xml version="1.0" standalone="no"?><!DOCTYPE svg PUBLIC "-//W3C//DTD SVG 1.1//EN" "http://www.w3.org/Graphics/SVG/1.1/DTD/svg11.dtd"><svg t="1705384567713" class="icon" viewBox="0 0 1024 1024" version="1.1" xmlns="http://www.w3.org/2000/svg" p-id="3390" xmlns:xlink="http://www.w3.org/1999/xlink" width="200" height="200"><path d="M512 980.89c-62.91 0-124.07-12.43-181.77-36.94-55.67-23.65-105.73-57.47-148.77-100.52s-76.86-93.1-100.52-148.77C56.43 636.96 44 575.8 44 512.89s12.43-124.07 36.94-181.77c23.65-55.67 57.47-105.73 100.52-148.77s93.1-76.86 148.77-100.52C387.93 57.32 449.09 44.89 512 44.89s124.07 12.43 181.77 36.94c55.67 23.65 105.73 57.47 148.77 100.52 43.05 43.05 76.86 93.1 100.52 148.77C967.57 388.82 980 449.98 980 512.89s-12.43 124.07-36.94 181.77c-23.65 55.67-57.47 105.73-100.52 148.77-43.04 43.05-93.1 76.86-148.77 100.52-57.7 24.51-118.86 36.94-181.77 36.94z m0-896c-236 0-428 192-428 428s192 428 428 428 428-192 428-428-192-428-428-428z" fill="#333333" p-id="3391"></path><path d="M321.67 512.89m-50 0a50 50 0 1 0 100 0 50 50 0 1 0-100 0Z" fill="#FF743E" p-id="3392"></path><path d="M512 512.89m-50 0a50 50 0 1 0 100 0 50 50 0 1 0-100 0Z" fill="#FF743E" p-id="3393"></path><path d="M702.34 512.89m-50 0a50 50 0 1 0 100 0 50 50 0 1 0-100 0Z" fill="#FF743E" p-id="3394"></path></svg>