<?xml version="1.0" standalone="no"?><!DOCTYPE svg PUBLIC "-//W3C//DTD SVG 1.1//EN" "http://www.w3.org/Graphics/SVG/1.1/DTD/svg11.dtd"><svg t="1705385428113" class="icon" viewBox="0 0 1237 1024" version="1.1" xmlns="http://www.w3.org/2000/svg" p-id="5736" xmlns:xlink="http://www.w3.org/1999/xlink" width="241.6015625" height="200"><path d="M843.79529938 605.41096531A426.51467344 426.51467344 0 0 1 807.71550875 779.36710156H138.95080906A106.95080906 106.95080906 0 0 1 32 672.4162925V376.81971781a431.15350406 431.15350406 0 0 1 77.31383812-93.80745656 438.11174906 438.11174906 0 0 1 734.48146125 322.39870406z" fill="#FFD000" p-id="5737"></path><path d="M840.96045875 779.36710156H138.95080906A107.20852219 107.20852219 0 0 1 32 672.4162925V139.7239475A106.95080906 106.95080906 0 0 1 138.95080906 32.77313844h945.80595281a106.95080906 106.95080906 0 0 1 105.91995844 106.95080906v533.4654825a105.14682 105.14682 0 0 1-5.66968219 34.27580156l-2.31941437 6.44282063a39.17234438 39.17234438 0 0 1-51.54255938 21.39016125 38.39920594 38.39920594 0 0 1-21.39016125-49.73856844 4.89654281 4.89654281 0 0 1 0-1.80399 27.57526875 27.57526875 0 0 0 1.80398907-10.05079875V139.7239475a29.12154563 29.12154563 0 0 0-29.63697094-29.63697094H136.11596844a29.37925875 29.37925875 0 0 0-27.83298188 29.63697094v533.4654825a29.37925875 29.37925875 0 0 0 29.63697188 29.63697188h702.00964968a38.65691906 38.65691906 0 0 1 0 77.31383812z" fill="#000000" p-id="5738"></path><path d="M881.42136781 508.76866813a103.08511781 103.08511781 0 1 1 103.08511688-103.08511782 103.08511781 103.08511781 0 0 1-103.08511688 103.08511781z m0-128.85639657a25.77127969 25.77127969 0 1 0 25.77127875 25.77127875 25.77127969 25.77127969 0 0 0-25.77127875-25.77127875zM623.70857375 508.76866813a103.08511781 103.08511781 0 1 1 103.08511781-103.08511782 103.08511781 103.08511781 0 0 1-103.08511781 103.08511781z m0-128.85639657a25.77127969 25.77127969 0 1 0 25.77127969 25.77127875 25.77127969 25.77127969 0 0 0-25.77127969-25.77127875zM340.22450094 508.76866813a103.08511781 103.08511781 0 1 1 103.08511781-103.08511782 103.08511781 103.08511781 0 0 1-103.08511781 103.08511781z m0-128.85639657a25.77127969 25.77127969 0 1 0 25.77127968 25.77127875 25.77127969 25.77127969 0 0 0-25.77127968-25.77127875zM772.40885563 991.98015594a38.65691906 38.65691906 0 0 1-23.19415126-7.73138344 39.17234438 39.17234438 0 0 1-13.65877781-42.78032437l68.55160313-212.61305438a38.70846187 38.70846187 0 1 1 73.70585906 23.7095775l-34.01808937 105.66224531 283.48407374-190.96518a38.65691906 38.65691906 0 0 1 43.55346188 63.9127725l-375.48754031 254.10481407a38.39920594 38.39920594 0 0 1-22.93643906 6.70053281z" fill="#000000" p-id="5739"></path></svg>