<?xml version="1.0" standalone="no"?><!DOCTYPE svg PUBLIC "-//W3C//DTD SVG 1.1//EN" "http://www.w3.org/Graphics/SVG/1.1/DTD/svg11.dtd"><svg t="1705385383614" class="icon" viewBox="0 0 1060 1024" version="1.1" xmlns="http://www.w3.org/2000/svg" p-id="3648" xmlns:xlink="http://www.w3.org/1999/xlink" width="207.03125" height="200"><path d="M713.1406475 613.8463025a394.39342688 394.39342688 0 0 1-90.71048812 251.71580437h-59.39101032v57.07104938a374.20976344 374.20976344 0 0 1-67.27887843 43.15128094 29.46350906 29.46350906 0 0 1-1.39197657-9.04784907v-91.63847343H66.79941969a34.79941969 34.79941969 0 0 1-34.79941969-34.79941969V509.4480425a34.79941969 34.79941969 0 0 1 34.79941969-34.79941969h426.64089v-51.73513781H242.88448531a34.3354275 34.3354275 0 0 1-23.19961312-9.04784906l-131.54180813-120.86998594a378.38569312 378.38569312 0 0 1 62.87095219-36.887385 394.39342688 394.39342688 0 0 1 463.99226719 96.27839531 366.08989875 366.08989875 0 0 1 49.18318031 69.59884032h-101.15031469v51.73513781h123.88593563a366.78588656 366.78588656 0 0 1 19.0236825 69.59883937 382.56162375 382.56162375 0 0 1 7.19188031 70.52682469z" fill="#FFD000" p-id="3649"></path><path d="M814.52295781 865.56210688H66.79941969a34.79941969 34.79941969 0 0 1-34.79941969-34.79941969V509.4480425a34.79941969 34.79941969 0 0 1 34.79941969-34.79941969h747.72353812a35.26341188 35.26341188 0 0 1 23.19961313 9.04784907l177.01305 160.77332062a34.56742406 34.56742406 0 0 1 11.36781094 25.75157062 35.26341188 35.26341188 0 0 1-11.36781094 25.75157063l-177.01305 160.54132406a35.26341188 35.26341188 0 0 1-23.19961313 9.04784907zM101.59884031 795.9632675h699.46834219l139.19767969-125.74190437-139.19767969-125.97390094H101.59884031zM991.53600781 422.913485H244.04446625a34.3354275 34.3354275 0 0 1-23.19961406-9.04784906L43.83180312 253.32431094a34.79941969 34.79941969 0 0 1-11.59980656-25.75157063 33.87143531 33.87143531 0 0 1 11.59980656-25.75157062L220.84485219 41.04784906a34.3354275 34.3354275 0 0 1 23.19961406-9.04784906h747.49154156a34.79941969 34.79941969 0 0 1 34.79941969 34.79941969v321.31464469a34.79941969 34.79941969 0 0 1-34.79941969 34.79942062z m-734.26776187-69.59884031h700.16433V101.59884031H257.26824594l-139.19768063 125.9739z" fill="#000000" p-id="3650"></path><path d="M529.16771375 992a34.79941969 34.79941969 0 0 1-34.79941969-34.79941969v-126.43789312a34.79941969 34.79941969 0 0 1 69.59883938 0v126.43789312a34.79941969 34.79941969 0 0 1-34.79941969 34.79941969zM529.16771375 544.24746219a34.79941969 34.79941969 0 0 1-34.79941969-34.79941969v-121.33397813a34.79941969 34.79941969 0 0 1 69.59883938 1e-8v121.33397812a34.79941969 34.79941969 0 0 1-34.79941969 34.79941969z" fill="#000000" p-id="3651"></path></svg>