<?xml version="1.0" standalone="no"?><!DOCTYPE svg PUBLIC "-//W3C//DTD SVG 1.1//EN" "http://www.w3.org/Graphics/SVG/1.1/DTD/svg11.dtd"><svg t="1705384593137" class="icon" viewBox="0 0 1024 1024" version="1.1" xmlns="http://www.w3.org/2000/svg" p-id="4668" xmlns:xlink="http://www.w3.org/1999/xlink" width="200" height="200"><path d="M942 807.89h-50V413.18c0-51.76-10.08-102.08-29.96-149.56-19.19-45.82-46.62-87.03-81.55-122.47-34.94-35.46-75.59-63.32-120.8-82.81-46.87-20.2-96.57-30.45-147.69-30.45S411.18 38.14 364.3 58.35c-45.21 19.49-85.85 47.35-120.8 82.81-34.93 35.44-62.36 76.64-81.55 122.47C142.08 311.1 132 361.42 132 413.18v394.71H82c-11.05 0-20 8.95-20 20s8.95 20 20 20h860c11.05 0 20-8.95 20-20s-8.95-20-20-20zM172 413.18c0-190.39 152.52-345.29 340-345.29s340 154.9 340 345.29v394.71H172V413.18z" fill="#333333" p-id="4669"></path><path d="M343.19 847.89c9.93 84.35 81.84 150 168.81 150s158.88-65.65 168.81-150H343.19z" fill="#FF743E" p-id="4670"></path></svg>