<?xml version="1.0" standalone="no"?><!DOCTYPE svg PUBLIC "-//W3C//DTD SVG 1.1//EN" "http://www.w3.org/Graphics/SVG/1.1/DTD/svg11.dtd"><svg t="1705385345228" class="icon" viewBox="0 0 1024 1024" version="1.1" xmlns="http://www.w3.org/2000/svg" p-id="2035" xmlns:xlink="http://www.w3.org/1999/xlink" width="200" height="200"><path d="M700.785025 776.796157a395.930647 395.930647 0 0 1-41.193736 176.544581 371.920584 371.920584 0 0 1-44.489235 70.617833H180.802385a101.925072 101.925072 0 0 1-104.749785-98.629573V444.892345a391.458185 391.458185 0 0 1 70.617832-37.898237A400.167717 400.167717 0 0 1 699.843453 776.796157z" fill="#FFD000" p-id="2036"></path><path d="M844.139224 1023.958571H180.802385a101.925072 101.925072 0 0 1-104.749785-98.629573v-753.25688a101.925072 101.925072 0 0 1 103.808214-99.571143h166.893477a35.308916 35.308916 0 1 1 0 70.617832H179.860814a31.307239 31.307239 0 0 0-33.190382 28.953311v753.25688a31.307239 31.307239 0 0 0 33.190382 28.953311h663.336839a31.307239 31.307239 0 0 0 33.190382-28.953311v-753.25688a31.307239 31.307239 0 0 0-33.190382-28.953311h-166.893477a35.308916 35.308916 0 0 1 0-70.617832h166.893477a101.925072 101.925072 0 0 1 103.808214 99.571143v753.25688a101.925072 101.925072 0 0 1-102.866643 98.629573z" fill="#000000" p-id="2037"></path><path d="M646.644686 211.853497H378.296923A66.14537 66.14537 0 0 1 312.386946 145.94352V65.909977A66.14537 66.14537 0 0 1 378.296923 0h268.347763A65.909977 65.909977 0 0 1 712.554663 65.909977v80.033543A65.909977 65.909977 0 0 1 646.644686 211.853497zM383.004778 141.235665h258.932053V70.617832H382.063207zM429.141762 753.25688h-164.774942a35.308916 35.308916 0 0 1 0-70.617833h164.774942a35.308916 35.308916 0 1 1 0 70.617833zM546.83815 576.712299h-282.47133a35.308916 35.308916 0 0 1 0-70.617833h282.47133a35.308916 35.308916 0 1 1 0 70.617833zM640.99526 400.167717h-376.62844a35.308916 35.308916 0 0 1 0-70.617832h376.62844a35.308916 35.308916 0 1 1 0 70.617832z" fill="#000000" p-id="2038"></path></svg>