<?xml version="1.0" standalone="no"?><!DOCTYPE svg PUBLIC "-//W3C//DTD SVG 1.1//EN" "http://www.w3.org/Graphics/SVG/1.1/DTD/svg11.dtd"><svg t="1705384559533" class="icon" viewBox="0 0 1024 1024" version="1.1" xmlns="http://www.w3.org/2000/svg" p-id="2917" xmlns:xlink="http://www.w3.org/1999/xlink" width="200" height="200"><path d="M616.89 563.74h-155v-155c0-11.05-8.95-20-20-20s-20 8.95-20 20v155h-155c-11.05 0-20 8.95-20 20s8.95 20 20 20h155v155c0 11.05 8.95 20 20 20s20-8.95 20-20v-155h155c11.05 0 20-8.95 20-20s-8.96-20-20-20z" fill="#333333" p-id="2918"></path><path d="M741.89 183.74h-600c-55.14 0-100 44.86-100 100v600c0 55.14 44.86 100 100 100h600c55.14 0 100-44.86 100-100v-600c0-55.14-44.86-100-100-100z m60 700c0 33.08-26.92 60-60 60h-600c-33.08 0-60-26.92-60-60v-600c0-33.08 26.92-60 60-60h600c33.08 0 60 26.92 60 60v600z" fill="#333333" p-id="2919"></path><path d="M905.61 42.91c-21.16 2.77-632.77-6.16-653.35 4.57-35.69 10.84-63.38 42.98-68.94 79.85 5.23 9.89 10.78 14.67 20.23 15.62 833.32 16.46 662.08-154.21 678.07 678.2h0.01c0.2 12.61 12.99 22.03 24.89 18.74 36.16-9.15 63.46-37.18 72.43-71.96 2.07-8.03 3.16-16.41 3.16-25.01v-623.5c0-42.26-34.25-76.51-76.5-76.51z" fill="#FF743E" p-id="2920"></path></svg>