<?xml version="1.0" standalone="no"?><!DOCTYPE svg PUBLIC "-//W3C//DTD SVG 1.1//EN" "http://www.w3.org/Graphics/SVG/1.1/DTD/svg11.dtd"><svg t="1705385330254" class="icon" viewBox="0 0 1191 1024" version="1.1" xmlns="http://www.w3.org/2000/svg" p-id="1228" xmlns:xlink="http://www.w3.org/1999/xlink" width="232.6171875" height="200"><path d="M737 725.75a369.9 369.9 0 0 1-40.5 168.75 375.75 375.75 0 0 1-45 67.5H204.875a143.55 143.55 0 0 1-141.525-122.85 147.15 147.15 0 0 1-1.35-20.025V512.45a371.25 371.25 0 0 1 675 213.3z" fill="#FFD000" p-id="1229"></path><path d="M966.05 962H204.875a143.325 143.325 0 0 1-141.3-122.85 147.15 147.15 0 0 1-1.575-20.025V204.875A143.1 143.1 0 0 1 204.875 62h761.175a143.1 143.1 0 0 1 142.875 142.875v613.35a142.875 142.875 0 0 1-142.875 142.875zM204.875 129.5A75.6 75.6 0 0 0 129.5 204.875v613.35a83.925 83.925 0 0 0 0 10.8 75.6 75.6 0 0 0 74.475 64.575h761.175a75.15 75.15 0 0 0 75.375-75.375V203.975a75.375 75.375 0 0 0-75.375-75.375z" fill="#000000" p-id="1230"></path><path d="M966.05 962H512.45a33.75 33.75 0 0 1 0-67.5h453.6a76.275 76.275 0 0 0 52.65-21.15l-195.3-252.675a18.675 18.675 0 0 0-15.3-7.425 18.9 18.9 0 0 0-15.3 7.425l-165.6 214.2a33.75 33.75 0 1 1-53.325-41.4L739.475 579.5a86.625 86.625 0 0 1 137.25 0l211.05 272.7a34.2 34.2 0 0 1 2.7 37.35A142.875 142.875 0 0 1 966.05 962z" fill="#000000" p-id="1231"></path><path d="M666.35 962H204.875a143.325 143.325 0 0 1-141.3-122.85 34.425 34.425 0 0 1 4.05-22.5l211.725-366.525a86.85 86.85 0 0 1 150.3 0l265.95 460.35a33.75 33.75 0 0 1-29.25 50.625zM132.65 840.725a75.375 75.375 0 0 0 72.225 54.225h402.975L371.375 485.225a19.125 19.125 0 0 0-16.875-9.675 18.675 18.675 0 0 0-16.65 9.675zM793.25 422a101.25 101.25 0 1 1 101.25-101.25 101.475 101.475 0 0 1-101.25 101.25z m0-135a33.75 33.75 0 1 0 33.75 33.75 33.75 33.75 0 0 0-33.75-33.75z" fill="#000000" p-id="1232"></path></svg>