<?xml version="1.0" standalone="no"?><!DOCTYPE svg PUBLIC "-//W3C//DTD SVG 1.1//EN" "http://www.w3.org/Graphics/SVG/1.1/DTD/svg11.dtd"><svg t="1705384581930" class="icon" viewBox="0 0 1024 1024" version="1.1" xmlns="http://www.w3.org/2000/svg" p-id="4033" xmlns:xlink="http://www.w3.org/1999/xlink" width="200" height="200"><path d="M512 742.89c-61.44 0-119.19-23.92-162.63-67.37S282 574.33 282 512.89s23.92-119.19 67.37-162.63 101.2-67.37 162.63-67.37 119.19 23.92 162.63 67.37S742 451.45 742 512.89s-23.92 119.19-67.37 162.63S573.44 742.89 512 742.89z" fill="#FF743E" p-id="4034"></path><path d="M907 92.89H117c-55.14 0-100 44.86-100 100v640c0 55.14 44.86 100 100 100h790c55.14 0 100-44.86 100-100v-640c0-55.14-44.86-100-100-100z m60 740c0 33.08-26.92 60-60 60H117c-33.08 0-60-26.92-60-60v-640c0-33.08 26.92-60 60-60h790c33.08 0 60 26.92 60 60v640z" fill="#333333" p-id="4035"></path><path d="M806.18 302.89m-50 0a50 50 0 1 0 100 0 50 50 0 1 0-100 0Z" fill="#333333" p-id="4036"></path></svg>