<?xml version="1.0" standalone="no"?><!DOCTYPE svg PUBLIC "-//W3C//DTD SVG 1.1//EN" "http://www.w3.org/Graphics/SVG/1.1/DTD/svg11.dtd"><svg t="1705384527132" class="icon" viewBox="0 0 1024 1024" version="1.1" xmlns="http://www.w3.org/2000/svg" p-id="1322" xmlns:xlink="http://www.w3.org/1999/xlink" width="200" height="200"><path d="M512 980.89c-63.17 0-124.46-12.38-182.17-36.79-55.73-23.57-105.78-57.31-148.75-100.29-42.97-42.97-76.72-93.02-100.29-148.75C56.38 637.35 44 576.06 44 512.89s12.38-124.46 36.79-182.17c23.57-55.73 57.31-105.78 100.29-148.75C224.05 139 274.1 105.25 329.83 81.68c57.71-24.41 119-36.79 182.17-36.79s124.46 12.38 182.17 36.79c55.73 23.57 105.78 57.31 148.75 100.29 42.97 42.97 76.72 93.02 100.29 148.75 24.41 57.71 36.79 119 36.79 182.17s-12.38 124.46-36.79 182.17c-23.57 55.73-57.31 105.78-100.29 148.75-42.97 42.97-93.02 76.72-148.75 100.29-57.71 24.41-119 36.79-182.17 36.79z m0-896c-236 0-428 192-428 428s192 428 428 428 428-192 428-428-192-428-428-428z" fill="#333333" p-id="1323"></path><path d="M433.96 702.95c-10.38 0-20.75-2.75-30.19-8.24-18.67-10.87-29.82-30.26-29.82-51.86V382.29c0-21.6 11.15-40.99 29.82-51.86 18.67-10.87 41.03-10.99 59.81-0.33l229.58 130.28c19.04 10.8 30.41 30.32 30.41 52.2 0 21.88-11.37 41.39-30.41 52.18L463.58 695.04c-9.29 5.27-19.46 7.9-29.62 7.91z" fill="#FF743E" p-id="1324"></path></svg>