<?xml version="1.0" standalone="no"?><!DOCTYPE svg PUBLIC "-//W3C//DTD SVG 1.1//EN" "http://www.w3.org/Graphics/SVG/1.1/DTD/svg11.dtd"><svg t="1705385354207" class="icon" viewBox="0 0 1024 1024" version="1.1" xmlns="http://www.w3.org/2000/svg" p-id="2195" xmlns:xlink="http://www.w3.org/1999/xlink" width="200" height="200"><path d="M727.827692 695.86989a383.943736 383.943736 0 0 1-182.96967 327.004835c-10.352527 0-20.93011 1.125275-31.507692 1.125275a512.225055 512.225055 0 0 1-511.54989-495.120879 382.593407 382.593407 0 0 1 727.152527 166.315604z" fill="#FFD000" p-id="2196"></path><path d="M512 1024A512 512 0 1 1 1024 512 512.45011 512.45011 0 0 1 512 1024z m0-956.483516A444.483516 444.483516 0 1 0 956.483516 512 444.933626 444.933626 0 0 0 512 67.516484z" fill="#000000" p-id="2197"></path><path d="M512 720.175824a150.111648 150.111648 0 0 1-129.856703-225.054945l100.59956-174.417582a33.758242 33.758242 0 0 1 58.514286 0L642.081758 495.120879a150.111648 150.111648 0 0 1-130.081758 225.054945z m0-315.076923l-71.342418 123.78022a82.595165 82.595165 0 0 0 142.909891 82.595165 82.145055 82.145055 0 0 0 0-82.595165z" fill="#000000" p-id="2198"></path><path d="M174.417582 512m-56.263736 0a56.263736 56.263736 0 1 0 112.527473 0 56.263736 56.263736 0 1 0-112.527473 0Z" fill="#000000" p-id="2199"></path><path d="M849.582418 512m-56.263737 0a56.263736 56.263736 0 1 0 112.527473 0 56.263736 56.263736 0 1 0-112.527473 0Z" fill="#000000" p-id="2200"></path><path d="M512 849.582418m-56.263736 0a56.263736 56.263736 0 1 0 112.527472 0 56.263736 56.263736 0 1 0-112.527472 0Z" fill="#000000" p-id="2201"></path><path d="M512 174.417582m-56.263736 0a56.263736 56.263736 0 1 0 112.527472 0 56.263736 56.263736 0 1 0-112.527472 0Z" fill="#000000" p-id="2202"></path></svg>