<?xml version="1.0" standalone="no"?><!DOCTYPE svg PUBLIC "-//W3C//DTD SVG 1.1//EN" "http://www.w3.org/Graphics/SVG/1.1/DTD/svg11.dtd"><svg t="1705385394312" class="icon" viewBox="0 0 1239 1024" version="1.1" xmlns="http://www.w3.org/2000/svg" p-id="3968" xmlns:xlink="http://www.w3.org/1999/xlink" width="241.9921875" height="200"><path d="M716.97854094 805.30472094a450.12875531 450.12875531 0 0 1-13.64806875 109.44206062 419.48497875 419.48497875 0 0 1-28.32618 77.25321844H135.26180281a103.00429219 103.00429219 0 0 1-103.00429219-103.00429219V444.01716781a423.09012844 423.09012844 0 0 1 77.25321938-42.23176031A437.76824062 437.76824062 0 0 1 717.23605156 805.30472094z" fill="#FFD000" p-id="3969"></path><path d="M1109.93991406 293.11587969a38.62660969 38.62660969 0 0 1-38.62660968-38.62660969V135.00429219a23.9484975 23.9484975 0 0 0-21.88841157-25.75107375H175.9484975a23.9484975 23.9484975 0 0 0-21.63090094 25.75107375v119.48497781a38.62660969 38.62660969 0 0 1-77.25321843 0V135.00429219a100.68669562 100.68669562 0 0 1 98.88411937-103.00429219h873.47639531a100.94420625 100.94420625 0 0 1 99.14163094 103.00429219v119.48497781a38.62660969 38.62660969 0 0 1-38.62660969 38.62660969z" fill="#000000" p-id="3970"></path><path d="M1090.11158844 992H135.26180281a103.00429219 103.00429219 0 0 1-103.00429219-103.00429219v-566.52360469a103.00429219 103.00429219 0 0 1 103.00429219-103.00429218h954.59227406a103.00429219 103.00429219 0 0 1 103.00429219 103.00429218v566.52360469a103.00429219 103.00429219 0 0 1-102.74678062 103.00429219z m-954.592275-695.27896969a25.75107281 25.75107281 0 0 0-25.75107281 25.75107282v566.52360468a25.75107281 25.75107281 0 0 0 25.75107281 25.75107375h954.592275a25.75107281 25.75107281 0 0 0 25.75107281-25.75107375v-566.52360468a25.75107281 25.75107281 0 0 0-25.75107281-25.75107282z" fill="#000000" p-id="3971"></path><path d="M1154.74678156 747.36480687H839.55364812a139.31330438 139.31330438 0 0 1-138.79828312-139.05579374v-4.3776825a139.05579375 139.05579375 0 0 1 138.79828313-138.79828313H1154.74678156a38.62660969 38.62660969 0 0 1 38.62660875 38.62660875v206.00858437a38.62660969 38.62660969 0 0 1-38.62660875 37.59656625z m-315.19313344-206.00858343a61.54506469 61.54506469 0 0 0-60.51502125 62.57510718v5.407725a61.80257531 61.80257531 0 0 0 61.54506375 61.80257532h276.56652375v-128.755365zM317.83691 573.54506469a115.87982812 115.87982812 0 1 1 115.87982813-115.87982906 116.13733875 116.13733875 0 0 1-115.87982813 115.87982906z m0-154.50643781a38.62660969 38.62660969 0 1 0 38.62660969 38.62660875 38.62660969 38.62660969 0 0 0-38.62660969-38.62660875z" fill="#000000" p-id="3972"></path></svg>