<?xml version="1.0" standalone="no"?><!DOCTYPE svg PUBLIC "-//W3C//DTD SVG 1.1//EN" "http://www.w3.org/Graphics/SVG/1.1/DTD/svg11.dtd"><svg t="1705384603908" class="icon" viewBox="0 0 1024 1024" version="1.1" xmlns="http://www.w3.org/2000/svg" p-id="5308" xmlns:xlink="http://www.w3.org/1999/xlink" width="200" height="200"><path d="M957.15 634.95h-20.3v176.87c0 33.67-28.53 61.07-63.6 61.07H110.44c-35.07 0-63.6-27.39-63.6-61.07V213.96c0-33.67 28.53-61.07 63.6-61.07h762.81c35.07 0 63.6 27.39 63.6 61.07v176.87h20.3c6.9 0 13.52 1.19 19.7 3.34V213.96c0-55.73-46.47-101.07-103.6-101.07H110.44c-57.12 0-103.6 45.34-103.6 101.07v597.87c0 55.73 46.47 101.07 103.6 101.07h762.81c57.12 0 103.6-45.34 103.6-101.07V631.62a59.813 59.813 0 0 1-19.7 3.33z" fill="#333333" p-id="5309"></path><path d="M957.15 634.95H700.34c-33.08 0-60-26.92-60-60V450.83c0-33.08 26.92-60 60-60h256.81c33.08 0 60 26.92 60 60v124.13c0 33.08-26.92 59.99-60 59.99z" fill="#FF743E" p-id="5310"></path></svg>