<?xml version="1.0" standalone="no"?><!DOCTYPE svg PUBLIC "-//W3C//DTD SVG 1.1//EN" "http://www.w3.org/Graphics/SVG/1.1/DTD/svg11.dtd"><svg t="1705385413237" class="icon" viewBox="0 0 1193 1024" version="1.1" xmlns="http://www.w3.org/2000/svg" p-id="4933" xmlns:xlink="http://www.w3.org/1999/xlink" width="233.0078125" height="200"><path d="M865.377215 748.96202562a409.27594969 409.27594969 0 0 1-36.69873375 170.12658188 383.51392406 383.51392406 0 0 1-42.53164594 72.9113925H118.27848125a383.51392406 383.51392406 0 0 1-42.53164594-72.9113925h56.38481063v-413.16455719-17.74177219a413.16455719 413.16455719 0 0 1 733.00253156 261.50886094z" fill="#FFD000" p-id="4934"></path><path d="M1113.51898719 992h-1045.06329094a36.45569625 36.45569625 0 0 1 0-72.9113925h1045.06329094a36.45569625 36.45569625 0 1 1 0 72.9113925z" fill="#000000" p-id="4935"></path><path d="M1016.30379781 979.84810156a36.45569625 36.45569625 0 0 1-36.45569625-36.45569625V491.82784812A387.15949406 387.15949406 0 0 0 592.93164594 104.9113925C380.03037969 104.9113925 206.98734219 285.24557 206.98734219 505.19493688v437.46835406a36.45569625 36.45569625 0 0 1-72.9113925 0v-437.46835407C134.07594969 245.14430375 339.92911437 32.72911437 592.6886075 32a460.07088563 460.07088563 0 0 1 459.82784813 459.82784813V943.39240531a36.45569625 36.45569625 0 0 1-36.21265782 36.45569625z" fill="#000000" p-id="4936"></path><path d="M534.84557 775.93924063a36.21265781 36.21265781 0 0 1-30.3797475-16.28354438l-50.55189844-76.07088656a35.96962031 35.96962031 0 0 1-1.94430375-37.18480969 36.69873375 36.69873375 0 0 1 32.32405032-19.44303844h228.21265874a36.45569625 36.45569625 0 0 1 1e-8 72.9113925h-160.16202563l12.88101281 19.44303844a36.45569625 36.45569625 0 0 1-10.20759469 50.55189844 35.72658188 35.72658188 0 0 1-20.17215187 6.07594969zM413.32658188 610.18734219a37.91392406 37.91392406 0 0 1-18.22784813-4.86076032 36.45569625 36.45569625 0 0 1-13.36708781-49.82278406l79.95949312-138.77468344-24.30379687 1.70126532a36.5286075 36.5286075 0 0 1-4.86076032-72.9113925l91.38227907-5.83291125a36.94177219 36.94177219 0 0 1 33.29620218 17.25569625 36.21265781 36.21265781 0 0 1 0 37.42784812l-113.98480968 197.58987375a36.45569625 36.45569625 0 0 1-29.89367157 18.22784813zM780.8 607.75696156a35.72658188 35.72658188 0 0 1-31.35189844-18.22784718l-114.22784812-197.58987375a36.45569625 36.45569625 0 0 1 63.18987281-36.45569625l79.95949406 138.53164593 10.45063313-20.90126625a36.45569625 36.45569625 0 0 1 65.377215 32.32405032l-40.58734219 82.14683531a36.69873375 36.69873375 0 0 1-31.59493594 20.17215187z" fill="#000000" p-id="4937"></path></svg>