<?xml version="1.0" standalone="no"?><!DOCTYPE svg PUBLIC "-//W3C//DTD SVG 1.1//EN" "http://www.w3.org/Graphics/SVG/1.1/DTD/svg11.dtd"><svg t="1705385410560" class="icon" viewBox="0 0 1024 1024" version="1.1" xmlns="http://www.w3.org/2000/svg" p-id="4772" xmlns:xlink="http://www.w3.org/1999/xlink" width="200" height="200"><path d="M688.25512531 653.04783594a371.75398594 371.75398594 0 0 1-207.30751687 333.26651531 84.84738 84.84738 0 0 1-32.58314344-20.55580875l-142.57858781-142.57858781H173.04783594A125.52163969 125.52163969 0 0 1 47.74487469 697.87699344V396.31890688a356.00911125 356.00911125 0 0 1 65.60364468-54.45102563 367.59908906 367.59908906 0 0 1 203.15262-60.57403125 371.75398594 371.75398594 0 0 1 371.75398594 371.75398594z" fill="#FFD000" p-id="4773"></path><path d="M319.34396375 823.17995469H173.04783594A125.52163969 125.52163969 0 0 1 47.74487469 697.87699344V157.30296125A125.52163969 125.52163969 0 0 1 173.04783594 32h677.90432812a125.52163969 125.52163969 0 0 1 125.30296125 125.30296125v537.73120687a32.80182188 32.80182188 0 0 1-65.60364469 0V157.30296125A59.917995 59.917995 0 0 0 850.95216406 97.60364469h-677.90432812A59.917995 59.917995 0 0 0 113.34851937 157.30296125v540.57403219a59.69931656 59.69931656 0 0 0 59.69931657 59.69931656h146.29612781a32.80182188 32.80182188 0 0 1 0 65.60364469z" fill="#000000" p-id="4774"></path><path d="M849.64009156 823.17995469h-146.29612781a32.80182188 32.80182188 0 0 1 0-65.60364469h146.29612781a59.69931656 59.69931656 0 0 0 59.69931657-59.69931656 32.80182188 32.80182188 0 0 1 65.60364468 0 125.52163969 125.52163969 0 0 1-125.30296125 125.30296125zM710.99772219 363.29840562H312.12756219a32.80182188 32.80182188 0 1 1 0-65.60364468h398.87016a32.80182188 32.80182188 0 0 1 0 65.60364468zM588.31890688 557.48519375H312.12756219a32.80182188 32.80182188 0 0 1 0-65.60364469h276.19134468a32.80182188 32.80182188 0 0 1 1e-8 65.60364469z" fill="#000000" p-id="4775"></path><path d="M511.56264219 992a89.00227781 89.00227781 0 0 1-63.19817719-26.2414575l-153.07517156-153.07517156a32.80182188 32.80182188 0 0 1 46.35990937-46.35990844l153.07517063 153.07517062a24.49202719 24.49202719 0 0 0 33.6765375 1e-8l153.07517062-153.07517063a32.58314344 32.58314344 0 0 1 46.35990938 0 33.02050125 33.02050125 0 0 1 0 46.35990844l-153.07517063 153.07517156a89.43963562 89.43963562 0 0 1-63.19817812 26.2414575z" fill="#000000" p-id="4776"></path></svg>