<?xml version="1.0" standalone="no"?><!DOCTYPE svg PUBLIC "-//W3C//DTD SVG 1.1//EN" "http://www.w3.org/Graphics/SVG/1.1/DTD/svg11.dtd"><svg t="1705385371212" class="icon" viewBox="0 0 1024 1024" version="1.1" xmlns="http://www.w3.org/2000/svg" p-id="3005" xmlns:xlink="http://www.w3.org/1999/xlink" width="200" height="200"><path d="M731.585733 748.087667a372.503653 372.503653 0 0 1-107.812635 262.49076A511.119897 511.119897 0 0 1 9.681135 610.571551 374.043833 374.043833 0 0 1 731.585733 748.087667z" fill="#FFD000" p-id="3006"></path><path d="M511.559948 1023.119897A512.220026 512.220026 0 0 1 0 511.559948c0-9.90116 0-19.362269 1.100129-29.263429a33.091878 33.091878 0 1 1 66.007735 4.840567v24.422862a445.772239 445.772239 0 1 0 50.165879-205.284056 33.069875 33.069875 0 0 1-58.746884-30.363559 511.559948 511.559948 0 1 1 454.133218 748.087667z" fill="#000000" p-id="3007"></path><path d="M607.711216 667.558229a32.34379 32.34379 0 0 1-23.322733-9.681134l-96.151268-96.151268a33.003868 33.003868 0 0 1 46.645467-46.645466l96.811345 96.811345a32.783842 32.783842 0 0 1 0 46.645466 31.903739 31.903739 0 0 1-23.982811 9.021057z" fill="#000000" p-id="3008"></path><path d="M511.559948 571.406962a33.003868 33.003868 0 0 1-33.003867-33.003868V291.094113a33.003868 33.003868 0 0 1 66.007735 0v247.308981a33.003868 33.003868 0 0 1-33.003868 33.003868zM230.807048 350.941126h-1.100129l-176.020628-5.940696a32.783842 32.783842 0 0 1-31.903738-34.544048l8.801031-173.160293a32.563816 32.563816 0 0 1 34.544048-31.243661 33.003868 33.003868 0 0 1 31.463687 34.544048l-7.260851 139.496347 143.456812 4.840568a33.003868 33.003868 0 0 1-1.100129 66.007735z" fill="#000000" p-id="3009"></path></svg>