<?xml version="1.0" standalone="no"?><!DOCTYPE svg PUBLIC "-//W3C//DTD SVG 1.1//EN" "http://www.w3.org/Graphics/SVG/1.1/DTD/svg11.dtd"><svg t="1705385425122" class="icon" viewBox="0 0 1024 1024" version="1.1" xmlns="http://www.w3.org/2000/svg" p-id="5578" xmlns:xlink="http://www.w3.org/1999/xlink" width="200" height="200"><path d="M692.641728 527.265617a407.564504 407.564504 0 0 1-14.053949 106.85847 396.418269 396.418269 0 0 1-27.138659 72.692836H77.175711a36.346418 36.346418 0 0 1-36.588727-35.861799V192.636259a379.214297 379.214297 0 0 1 72.692836-41.677226 405.626028 405.626028 0 0 1 167.193524-35.61949 411.926074 411.926074 0 0 1 412.168384 411.926074z" fill="#FFD000" p-id="5579"></path><path d="M276.354084 506.669313a36.346418 36.346418 0 0 1-36.346419-36.346418V236.251961a36.346418 36.346418 0 0 1 72.692837 0v234.070934a36.346418 36.346418 0 0 1-36.346418 36.346418zM77.175711 1024a36.346418 36.346418 0 0 1-36.346418-36.346418V36.346661a36.346418 36.346418 0 0 1 72.692837 0v951.306921a36.346418 36.346418 0 0 1-36.346419 36.346418z" fill="#000000" p-id="5580"></path><path d="M908.539452 706.816923H77.175711a36.346418 36.346418 0 0 1-36.588727-35.861799V36.346661A36.346418 36.346418 0 0 1 76.933402 0.000242h829.667575a74.873622 74.873622 0 0 1 62.03122 117.035467l-155.078051 229.709364L971.297601 591.235313a75.115931 75.115931 0 0 1-63.000458 115.58161zM113.52213 634.124087h795.017322a1.938476 1.938476 0 0 0 1.938476 0l-170.828166-266.540401a35.861799 35.861799 0 0 1 0-39.98106l168.405071-249.821049-1.696166-3.634641H113.27982z" fill="#000000" p-id="5581"></path></svg>