<?xml version="1.0" standalone="no"?><!DOCTYPE svg PUBLIC "-//W3C//DTD SVG 1.1//EN" "http://www.w3.org/Graphics/SVG/1.1/DTD/svg11.dtd"><svg t="1705385399208" class="icon" viewBox="0 0 1024 1024" version="1.1" xmlns="http://www.w3.org/2000/svg" p-id="4290" xmlns:xlink="http://www.w3.org/1999/xlink" width="200" height="200"><path d="M699.057239 784.021305a382.238793 382.238793 0 0 1-39.769196 170.439414 359.059032 359.059032 0 0 1-42.950733 68.175766H231.144234A146.805149 146.805149 0 0 1 84.566338 876.058589V472.458056a372.23968 372.23968 0 0 1 68.175766-39.996449 380.19352 380.19352 0 0 1 159.076786-34.769641 386.329339 386.329339 0 0 1 387.238349 386.329339z" fill="#FFD000" p-id="4291"></path><path d="M791.094523 1024H231.371487A147.032401 147.032401 0 0 1 84.566338 877.194851V147.714159A146.805149 146.805149 0 0 1 231.371487 1.136263h559.723036a146.577896 146.577896 0 0 1 146.577896 146.577896v729.480692a146.805149 146.805149 0 0 1-146.577896 146.805149z m-559.723036-954.460719A78.629383 78.629383 0 0 0 152.742104 147.941411v729.480693a78.629383 78.629383 0 0 0 78.629383 78.629383h559.723036a78.629383 78.629383 0 0 0 78.40213-78.629383V147.941411a78.629383 78.629383 0 0 0-78.40213-78.40213z" fill="#000000" p-id="4292"></path><path d="M511.119379 836.97115a77.265868 77.265868 0 0 1-54.540613-22.725256l-57.949401-58.176653a77.038615 77.038615 0 0 1 0-108.853972l57.949401-58.176654a77.265868 77.265868 0 0 1 109.081225 0l58.176653 58.176654a77.038615 77.038615 0 0 1 0 108.853972l-58.176653 58.176653a76.356858 76.356858 0 0 1-54.540612 22.725256z m0-202.027519a8.86285 8.86285 0 0 0-6.135819 2.499778l-58.176654 58.176653a8.86285 8.86285 0 0 0 0 12.498891l58.176654 58.176653a7.726587 7.726587 0 0 0 12.49889 0l57.949401-58.176653a8.635597 8.635597 0 0 0 0-12.498891l-57.949401-57.949401a9.77186 9.77186 0 0 0-6.363071-2.72703zM511.119379 386.329339A1134.217488 1134.217488 0 0 1 106.155331 318.153573a34.087883 34.087883 0 0 1 24.99778-63.403462 1166.260098 1166.260098 0 0 0 759.932535 0 34.087883 34.087883 0 1 1 24.99778 63.403462 1133.308478 1133.308478 0 0 1-404.964047 68.175766z" fill="#000000" p-id="4293"></path></svg>