<?xml version="1.0" standalone="no"?><!DOCTYPE svg PUBLIC "-//W3C//DTD SVG 1.1//EN" "http://www.w3.org/Graphics/SVG/1.1/DTD/svg11.dtd"><svg t="1705384524439" class="icon" viewBox="0 0 1024 1024" version="1.1" xmlns="http://www.w3.org/2000/svg" p-id="1161" xmlns:xlink="http://www.w3.org/1999/xlink" width="200" height="200"><path d="M512 491.8c-66.17 0-120 53.83-120 120 0 38.72 18.9 75.07 50 97.47V821.8c0 38.6 31.4 70 70 70s70-31.4 70-70V709.27c31.1-22.4 50-58.75 50-97.47 0-66.16-53.83-120-120-120z" fill="#FF743E" p-id="1162"></path><path d="M832 381.8h-65.5V273.98c0-66.52-26.07-129.23-73.42-176.58S583.02 23.98 516.5 23.98 387.26 50.05 339.92 97.4 266.5 207.45 266.5 273.98V381.8H192c-55.14 0-100 44.86-100 100v420c0 0.86 0.01 1.72 0.03 2.58 1.26 49.67 38.92 90.46 87.25 96.62 0.83 0.11 1.67 0.2 2.51 0.29 1.68 0.17 3.37 0.3 5.07 0.39 1.7 0.09 3.42 0.13 5.14 0.13h640c1.72 0 3.44-0.04 5.14-0.13 1.7-0.09 3.39-0.22 5.07-0.39 0.84-0.09 1.68-0.18 2.51-0.29 48.32-6.16 85.99-46.95 87.25-96.62 0.02-0.86 0.03-1.72 0.03-2.58v-420c0-55.14-44.86-100-100-100zM306.5 273.98c0-115.79 94.21-210 210-210s210 94.21 210 210V381.8h-420V273.98zM832 961.8H192c-33.08 0-60-26.92-60-60v-420c0-33.08 26.92-60 60-60h640c33.08 0 60 26.92 60 60v420c0 33.09-26.92 60-60 60z" fill="#333333" p-id="1163"></path></svg>