<?xml version="1.0" standalone="no"?><!DOCTYPE svg PUBLIC "-//W3C//DTD SVG 1.1//EN" "http://www.w3.org/Graphics/SVG/1.1/DTD/svg11.dtd"><svg t="1705384352707" class="icon" viewBox="0 0 1024 1024" version="1.1" xmlns="http://www.w3.org/2000/svg" p-id="1004" xmlns:xlink="http://www.w3.org/1999/xlink" width="200" height="200"><path d="M872 972.89H152.05c-55.14 0-100-44.86-100-99.99l-0.05-720c0-26.62 10.42-51.71 29.36-70.65 18.93-18.93 44.02-29.36 70.64-29.36h719.95c55.14 0 100 44.86 100 99.99l0.05 720c0 26.62-10.42 51.71-29.36 70.65-18.93 18.93-44.02 29.36-70.64 29.36z m-720-880c-15.94 0-30.98 6.27-42.36 17.64C98.26 121.91 92 136.95 92 152.89l0.05 720c0 33.08 26.92 60 60 60H872c15.94 0 30.98-6.27 42.36-17.64S932 888.83 932 872.89l-0.05-720c0-33.08-26.92-60-60-60H152z" fill="#333333" p-id="1005"></path><path d="M217 92.89v160c0 55.14 44.86 100 100 100h390c55.14 0 100-44.86 100-100v-160H217z m443.28 140c0 11.05-8.95 20-20 20s-20-8.95-20-20v-60c0-11.05 8.95-20 20-20s20 8.95 20 20v60z" fill="#FF743E" p-id="1006"></path></svg>