<?xml version="1.0" standalone="no"?><!DOCTYPE svg PUBLIC "-//W3C//DTD SVG 1.1//EN" "http://www.w3.org/Graphics/SVG/1.1/DTD/svg11.dtd"><svg t="1705385389721" class="icon" viewBox="0 0 1133 1024" version="1.1" xmlns="http://www.w3.org/2000/svg" p-id="3806" xmlns:xlink="http://www.w3.org/1999/xlink" width="221.2890625" height="200"><path d="M790.75555531 624.59259219a362.90370375 362.90370375 0 0 1-3.08148093 47.40740812 402.9629625 402.9629625 0 0 1-233.24444438 318.5777775 101.68888875 101.68888875 0 0 1-69.214815-35.79259219L56.41481469 449.42222188a97.89629625 97.89629625 0 0 1-16.59259219-27.73333313A402.9629625 402.9629625 0 0 1 387.79259281 221.62962969a402.9629625 402.9629625 0 0 1 402.9629625 402.9629625z" fill="#FFD000" p-id="3807"></path><path d="M563.19999969 992a101.92592625 101.92592625 0 0 1-77.98518469-36.26666625L56.41481469 449.42222188a102.40000031 102.40000031 0 0 1-9.48148125-118.51851844l150.75555562-248.88888844A102.87407438 102.87407438 0 0 1 285.15555594 32.71111156h556.32592593a103.11111094 103.11111094 0 0 1 87.46666594 49.30370344l150.75555563 248.88888844a102.40000031 102.40000031 0 0 1-9.48148125 118.51851843L641.42222187 955.73333375a102.40000031 102.40000031 0 0 1-78.22222218 36.26666625z m-23.70370313-82.25185219a30.34074094 30.34074094 0 0 0 23.70370313 11.14074094 31.05185156 31.05185156 0 0 0 23.70370406-11.14074094L1015.70370406 403.43703688a31.05185156 31.05185156 0 0 0 2.84444438-36.50370375L867.79259281 118.28148125A31.05185156 31.05185156 0 0 0 841.24444438 103.11111125H285.15555594a31.28888906 31.28888906 0 0 0-26.78518594 15.17037L107.61481437 366.93333313a31.76296312 31.76296312 0 0 0 2.84444532 36.50370375z" fill="#000000" p-id="3808"></path><path d="M563.19999969 519.585185a139.61481469 139.61481469 0 1 1 139.85185218-139.61481469 139.61481469 139.61481469 0 0 1-139.85185218 139.61481469z m0-208.11851813a68.50370344 68.50370344 0 1 0 68.74074094 68.50370344 68.50370344 68.50370344 0 0 0-68.74074094-68.02962937z" fill="#000000" p-id="3809"></path></svg>