<?xml version="1.0" standalone="no"?><!DOCTYPE svg PUBLIC "-//W3C//DTD SVG 1.1//EN" "http://www.w3.org/Graphics/SVG/1.1/DTD/svg11.dtd"><svg t="1705384548798" class="icon" viewBox="0 0 1024 1024" version="1.1" xmlns="http://www.w3.org/2000/svg" p-id="2434" xmlns:xlink="http://www.w3.org/1999/xlink" width="200" height="200"><path d="M72 425.18c-11.05 0-20-8.95-20-20V152.89c0-55.14 44.86-100 100-100h253.35c11.05 0 20 8.95 20 20s-8.95 20-20 20H152c-33.08 0-60 26.92-60 60v252.29c0 11.04-8.95 20-20 20zM403.84 972.89H152c-55.14 0-100-44.86-100-100V619.66c0-11.05 8.95-20 20-20s20 8.95 20 20v253.23c0 33.08 26.92 60 60 60h251.84c11.05 0 20 8.95 20 20s-8.96 20-20 20zM872 972.89H619.08c-11.05 0-20-8.95-20-20s8.95-20 20-20H872c33.08 0 60-26.92 60-60V619.66c0-11.05 8.95-20 20-20s20 8.95 20 20v253.23c0 55.14-44.86 100-100 100zM952 425.18c-11.05 0-20-8.95-20-20V152.89c0-33.08-26.92-60-60-60H619.08c-11.05 0-20-8.95-20-20s8.95-20 20-20H872c55.14 0 100 44.86 100 100v252.29c0 11.04-8.95 20-20 20z" fill="#333333" p-id="2435"></path><path d="M862 242.84c0-43.97-35.98-79.95-79.95-79.95h-540.1c-43.97 0-79.95 35.98-79.95 79.95v250.05h700V242.84zM162 782.94c0 43.97 35.98 79.95 79.95 79.95h540.1c43.97 0 79.95-35.98 79.95-79.95V532.89H162v250.05z" fill="#FF743E" p-id="2436"></path></svg>