<?xml version="1.0" standalone="no"?><!DOCTYPE svg PUBLIC "-//W3C//DTD SVG 1.1//EN" "http://www.w3.org/Graphics/SVG/1.1/DTD/svg11.dtd"><svg t="1705384573759" class="icon" viewBox="0 0 1024 1024" version="1.1" xmlns="http://www.w3.org/2000/svg" p-id="3713" xmlns:xlink="http://www.w3.org/1999/xlink" width="200" height="200"><path d="M512 1002.84c-18.07 0-36.13-4.63-52.24-13.9L124.31 796.05C92.04 777.51 72 742.92 72 705.79v-385.8c0-37.12 20.04-71.7 52.3-90.26l335.45-192.9c32.23-18.53 72.27-18.53 104.49 0l335.45 192.89c32.26 18.54 52.31 53.13 52.31 90.26v385.8c0 37.14-20.04 71.73-52.31 90.26l-335.44 192.9c-16.12 9.27-34.19 13.9-52.25 13.9z m0-939.92c-11.17 0-22.34 2.86-32.31 8.6L144.25 264.41C124.36 275.85 112 297.15 112 319.99v385.8c0 22.85 12.35 44.15 32.24 55.58l335.45 192.9c19.92 11.46 44.68 11.46 64.61 0l335.45-192.89C899.64 749.95 912 728.65 912 705.8V320c0-22.85-12.35-44.15-32.24-55.58L544.31 71.51c-9.97-5.73-21.14-8.59-32.31-8.59z" fill="#333333" p-id="3714"></path><path d="M512 732.89c-58.76 0-114.01-22.88-155.56-64.44C314.88 626.9 292 571.65 292 512.89s22.88-114.01 64.44-155.56c41.55-41.55 96.8-64.44 155.56-64.44s114.01 22.88 155.56 64.44c41.55 41.55 64.44 96.8 64.44 155.56s-22.88 114.01-64.44 155.56c-41.55 41.56-96.8 64.44-155.56 64.44z" fill="#FF743E" p-id="3715"></path></svg>