<?xml version="1.0" standalone="no"?><!DOCTYPE svg PUBLIC "-//W3C//DTD SVG 1.1//EN" "http://www.w3.org/Graphics/SVG/1.1/DTD/svg11.dtd"><svg t="1705385446733" class="icon" viewBox="0 0 1024 1024" version="1.1" xmlns="http://www.w3.org/2000/svg" p-id="6861" xmlns:xlink="http://www.w3.org/1999/xlink" width="200" height="200"><path d="M843.374815 705.892698a471.935096 471.935096 0 0 1-10.451714 98.085318l-3.215912 13.131641a419.408532 419.408532 0 0 1-24.923319 72.358022l-26.799267-28.139231A474.34703 474.34703 0 0 1 28.141107 473.275059a465.771264 465.771264 0 0 1 2.679926-51.454593A454.247579 454.247579 0 0 1 387.787272 249.233185a391.805287 391.805287 0 0 1 56.278462 3.751897 455.587543 455.587543 0 0 1 397.969118 419.408532c1.071971 11.791678 1.339963 22.511384 1.339963 33.499084z" fill="#FFD000" p-id="6862"></path><path d="M502.488136 948.694059a474.34703 474.34703 0 1 1 474.34703-474.347029 474.883015 474.883015 0 0 1-474.34703 474.347029z m0-868.296257a393.949228 393.949228 0 1 0 393.949228 393.949228A394.485213 394.485213 0 0 0 502.488136 80.397802z" fill="#2c2c2c" p-id="6863"></path><path d="M234.495464 514.54593a40.198901 40.198901 0 0 1-40.198901-40.1989A308.727558 308.727558 0 0 1 502.488136 165.887464a40.198901 40.198901 0 0 1 0 80.397802 228.061764 228.061764 0 0 0-227.793771 228.061764 40.198901 40.198901 0 0 1-40.198901 40.1989zM955.127759 1023.732007a39.662915 39.662915 0 0 1-28.407223-11.791677l-171.51531-171.51531a40.198901 40.198901 0 1 1 56.814446-56.814447l171.783303 171.51531a40.466893 40.466893 0 0 1 0 56.814447 39.930908 39.930908 0 0 1-28.675216 11.791677z" fill="#2c2c2c" p-id="6864"></path></svg>