<?xml version="1.0" standalone="no"?><!DOCTYPE svg PUBLIC "-//W3C//DTD SVG 1.1//EN" "http://www.w3.org/Graphics/SVG/1.1/DTD/svg11.dtd"><svg t="1705384535617" class="icon" viewBox="0 0 1024 1024" version="1.1" xmlns="http://www.w3.org/2000/svg" p-id="1799" xmlns:xlink="http://www.w3.org/1999/xlink" width="200" height="200"><path d="M386.33 453.36l273.16-143.38c32.52 46.93 86.75 77.74 148.04 77.74 99.25 0 180-80.75 180-180s-80.75-180-180-180-180 80.75-180 180c0 23.69 4.61 46.32 12.96 67.06L368.93 417.32a179.16 179.16 0 0 1 17.4 36.04zM807.54 67.71c77.2 0 140 62.8 140 140s-62.8 140-140 140-140-62.8-140-140 62.8-140 140-140zM807.54 638.07c-61.3 0-115.52 30.8-148.04 77.74L386.33 572.42a178.92 178.92 0 0 1-17.41 36.04L640.5 751.01c-8.35 20.74-12.96 43.37-12.96 67.06 0 99.25 80.75 180 180 180s180-80.75 180-180-80.75-180-180-180z m0 320c-77.2 0-140-62.8-140-140s62.8-140 140-140 140 62.8 140 140-62.81 140-140 140z" fill="#333333" p-id="1800"></path><path d="M216.46 692.89c-99.25 0-180-80.75-180-180s80.75-180 180-180 180 80.75 180 180-80.74 180-180 180z" fill="#FF743E" p-id="1801"></path></svg>