<?xml version="1.0" standalone="no"?><!DOCTYPE svg PUBLIC "-//W3C//DTD SVG 1.1//EN" "http://www.w3.org/Graphics/SVG/1.1/DTD/svg11.dtd"><svg t="1705384562026" class="icon" viewBox="0 0 1024 1024" version="1.1" xmlns="http://www.w3.org/2000/svg" p-id="3073" xmlns:xlink="http://www.w3.org/1999/xlink" width="200" height="200"><path d="M868.85 980.69C-183.29 955.54 63.27 1179.94 98.12 140.31c2.65-54.6 51.62-100.64 106.32-99.62H820.4c27.13 0 52.99 10.23 72.8 28.8 19.8 18.56 31.7 43.71 33.51 70.82l48.46 726.51c5.21 59.68-46.35 115.14-106.32 113.87z m-664.41-900c-34.9 0-64.07 27.36-66.4 62.29L89.56 869.49c-3.35 37.33 28.88 72.07 66.4 71.21h712.89c37.49 0.84 69.78-33.84 66.4-71.21l-48.46-726.51c-2.33-34.93-31.5-62.29-66.4-62.29H204.44z" fill="#333333" p-id="3074"></path><path d="M512.4 436.54c-97.38 0-187.02-66.74-239.78-178.52-4.71-9.99-0.44-21.91 9.55-26.62 9.99-4.72 21.91-0.44 26.62 9.55 45.98 97.43 122.1 155.59 203.61 155.59 81.5 0 157.62-58.17 203.61-155.59 4.72-9.99 16.63-14.27 26.62-9.55 9.99 4.72 14.26 16.64 9.55 26.62-52.76 111.78-142.4 178.52-239.78 178.52z" fill="#FF743E" p-id="3075"></path></svg>