<?xml version="1.0" standalone="no"?><!DOCTYPE svg PUBLIC "-//W3C//DTD SVG 1.1//EN" "http://www.w3.org/Graphics/SVG/1.1/DTD/svg11.dtd"><svg t="1705385415861" class="icon" viewBox="0 0 1024 1024" version="1.1" xmlns="http://www.w3.org/2000/svg" p-id="5096" xmlns:xlink="http://www.w3.org/1999/xlink" width="200" height="200"><path d="M694.57613187 709.4795375a383.11315312 383.11315312 0 0 1-123.24870187 282.2939025H165.33170562A117.58469906 117.58469906 0 0 1 47.97356656 874.41530094V426.732515a385.15219406 385.15219406 0 0 1 261.45037125-102.40517156 385.15219406 385.15219406 0 0 1 385.15219407 385.15219406z" fill="#FFD000" p-id="5097"></path><path d="M854.3010125 992H165.55826562A117.81125906 117.81125906 0 0 1 47.97356656 874.64186094V185.67255406A117.58469906 117.58469906 0 0 1 165.55826562 68.31441406h396.25363969a33.98401687 33.98401687 0 1 1 0 67.96803469H165.55826562A49.61666531 49.61666531 0 0 0 115.94160031 185.67255406v688.96930688a49.61666531 49.61666531 0 0 0 49.61666531 49.39010437h688.74274688a49.61666531 49.61666531 0 0 0 49.61666531-49.39010437V477.70854125a33.98401687 33.98401687 0 0 1 67.96803375 0v396.25363969a117.81125906 117.81125906 0 0 1-117.58469906 118.03781906z" fill="#000000" p-id="5098"></path><path d="M587.41319844 699.28433281a33.98401687 33.98401687 0 0 1-33.98401782-33.98401781v-203.90410219A245.36460375 245.36460375 0 0 1 798.56722437 216.25816906h143.41255219a33.98401687 33.98401687 0 0 1 0 67.96803469h-143.41255219a177.39656906 177.39656906 0 0 0-177.17000906 177.17000906v203.90410219a33.98401687 33.98401687 0 0 1-33.98401687 33.98401781z" fill="#000000" p-id="5099"></path><path d="M941.97977656 283.54652281a32.85121687 32.85121687 0 0 1-24.01537218-9.96864468l-183.74025188-183.51369282a34.21057688 34.21057688 0 0 1 0-48.03074437 33.75745687 33.75745687 0 0 1 48.03074344 0l183.74025281 183.51369281a34.21057688 34.21057688 0 0 1 0 48.03074437 33.53089687 33.53089687 0 0 1-24.01537219 9.96864469z" fill="#000000" p-id="5100"></path></svg>