<?xml version="1.0" standalone="no"?><!DOCTYPE svg PUBLIC "-//W3C//DTD SVG 1.1//EN" "http://www.w3.org/Graphics/SVG/1.1/DTD/svg11.dtd"><svg t="1705385403331" class="icon" viewBox="0 0 1024 1024" version="1.1" xmlns="http://www.w3.org/2000/svg" p-id="4450" xmlns:xlink="http://www.w3.org/1999/xlink" width="200" height="200"><path d="M665.65407219 752.95752125a380.75569125 380.75569125 0 0 1-40.55386125 171.45271125 370.842525 370.842525 0 0 1-43.25745094 67.5897675H128.99131625A95.75217094 95.75217094 0 0 1 33.23914531 896.47312813V462.54681969A383.00868375 383.00868375 0 0 1 665.65407219 752.95752125z" fill="#FFD000" p-id="4451"></path><path d="M895.23398281 992h-766.01736656a95.97747 95.97747 0 0 1-95.75217094-95.75217094V195.11663937A95.75217094 95.75217094 0 0 1 129.21661625 99.5897675h766.01736656a95.52687187 95.52687187 0 0 1 95.52687188 95.52687187v701.13118969a95.75217094 95.75217094 0 0 1-95.52687188 95.75217094zM129.21661625 167.179535a27.93710438 27.93710438 0 0 0-28.16240344 27.93710438v701.13118968a28.16240344 28.16240344 0 0 0 28.16240344 28.16240344h766.01736656a27.93710438 27.93710438 0 0 0 27.93710344-28.16240344V195.11663937A27.71180437 27.71180437 0 0 0 895.23398281 167.179535z" fill="#000000" p-id="4452"></path><path d="M956.96597 427.62543969H67.03403a33.79488375 33.79488375 0 0 1 0-67.5897675H956.96597a33.79488375 33.79488375 0 1 1 0 67.5897675zM443.05843719 853.66627531a33.56958469 33.56958469 0 0 1-23.88171844-9.91316531l-107.46773063-107.46773062a33.56958469 33.56958469 0 0 1 1e-8-47.76343594 34.02018281 34.02018281 0 0 1 47.76343593 0l83.58601313 83.58601219 221.69443781-221.69443782a33.56958469 33.56958469 0 0 1 47.76343594 0 34.02018281 34.02018281 0 0 1 0 47.76343594l-245.57615625 245.57615625a34.02018281 34.02018281 0 0 1-23.8817175 9.91316531zM737.29922562 234.76930344a34.02018281 34.02018281 0 0 1-33.79488374-33.79488469v-135.179535a33.79488375 33.79488375 0 0 1 67.5897675 0v135.179535a33.79488375 33.79488375 0 0 1-33.79488375 33.79488469zM286.70077438 234.76930344a34.02018281 34.02018281 0 0 1-33.79488376-33.79488469v-135.179535a33.79488375 33.79488375 0 0 1 67.5897675 0v135.179535a33.79488375 33.79488375 0 0 1-33.79488374 33.79488469z" fill="#000000" p-id="4453"></path></svg>