<?xml version="1.0" standalone="no"?><!DOCTYPE svg PUBLIC "-//W3C//DTD SVG 1.1//EN" "http://www.w3.org/Graphics/SVG/1.1/DTD/svg11.dtd"><svg t="1705385418946" class="icon" viewBox="0 0 1024 1024" version="1.1" xmlns="http://www.w3.org/2000/svg" p-id="5257" xmlns:xlink="http://www.w3.org/1999/xlink" width="200" height="200"><path d="M694.057674 702.511628A401.026977 401.026977 0 0 1 639.76186 904.930233H151.337674a119.069767 119.069767 0 0 1-119.069767-119.069768V389.596279a385.309767 385.309767 0 0 1 71.44186-47.627907 400.312558 400.312558 0 0 1 185.272559-45.008372A404.837209 404.837209 0 0 1 694.057674 702.511628z" fill="#FFD000" p-id="5258"></path><path d="M880.282791 1024H68.226977a35.72093 35.72093 0 0 1 0-71.44186h812.055814a35.72093 35.72093 0 0 1 0 71.44186zM956.011163 631.069767h-130.976744a35.72093 35.72093 0 0 1 0-71.44186h130.976744a35.72093 35.72093 0 0 1 0 71.44186zM956.011163 512h-130.976744a35.72093 35.72093 0 0 1 0-71.44186h130.976744a35.72093 35.72093 0 0 1 0 71.44186zM956.011163 392.930233h-130.976744a35.72093 35.72093 0 0 1 0-71.441861h130.976744a35.72093 35.72093 0 0 1 0 71.441861zM539.266977 523.906977h-285.767442a35.72093 35.72093 0 0 1 0-71.441861h285.767442a35.72093 35.72093 0 0 1 0 71.441861zM634.522791 345.302326h-381.023256a35.72093 35.72093 0 0 1 0-71.441861h381.023256a35.72093 35.72093 0 0 1 0 71.441861z" fill="#000000" p-id="5259"></path><path d="M797.172093 904.930233H151.337674a119.069767 119.069767 0 0 1-119.069767-119.069768V119.069767a119.069767 119.069767 0 0 1 119.069767-119.069767h645.834419a119.069767 119.069767 0 0 1 119.069767 119.069767v666.790698a119.069767 119.069767 0 0 1-119.069767 119.069768zM151.337674 71.44186a47.627907 47.627907 0 0 0-47.627907 47.627907v666.790698a47.627907 47.627907 0 0 0 47.627907 47.627907h645.834419a47.627907 47.627907 0 0 0 47.627907-47.627907V119.069767a47.627907 47.627907 0 0 0-47.627907-47.627907z" fill="#000000" p-id="5260"></path></svg>