<?xml version="1.0" standalone="no"?><!DOCTYPE svg PUBLIC "-//W3C//DTD SVG 1.1//EN" "http://www.w3.org/Graphics/SVG/1.1/DTD/svg11.dtd"><svg t="1705384579604" class="icon" viewBox="0 0 1024 1024" version="1.1" xmlns="http://www.w3.org/2000/svg" p-id="3872" xmlns:xlink="http://www.w3.org/1999/xlink" width="200" height="200"><path d="M980.45 513.02c0-56.6-10.07-111.78-29.94-164.3-1.53-4.13-3.12-8.24-4.77-12.33-23.47-58.13-57.92-110.17-102.41-154.65-40.06-40.06-86.24-71.98-137.48-95.07-3.96-1.81-7.94-3.58-11.95-5.28-57.7-24.51-118.86-36.94-181.77-36.94-56.62 0-111.82 10.07-164.36 29.96-4.11 1.53-8.2 3.1-12.27 4.75-58.13 23.47-110.17 57.92-154.65 102.41-40.05 40.05-71.97 86.23-95.06 137.46-1.82 3.97-3.58 7.96-5.29 11.98-24.51 57.7-36.94 118.86-36.94 181.77 0 56.59 10.06 111.75 29.92 164.26 1.54 4.14 3.13 8.27 4.79 12.37 23.47 58.13 57.92 110.17 102.41 154.65 40.03 40.03 86.18 71.94 137.38 95.02 3.99 1.83 8.01 3.61 12.06 5.33 57.7 24.51 118.86 36.94 181.77 36.94 56.62 0 111.82-10.07 164.36-29.96 4.11-1.53 8.2-3.1 12.27-4.75 58.13-23.47 110.17-57.92 154.65-102.41 40.05-40.05 71.97-86.23 95.06-137.46 1.82-3.96 3.58-7.95 5.29-11.98 24.5-57.7 36.93-118.86 36.93-181.77zM773.88 746.31c-7.81-7.81-20.47-7.81-28.29 0s-7.81 20.47 0 28.28l54.24 54.24a430.435 430.435 0 0 1-70.91 52.51c-0.04 0.02-0.08 0.05-0.12 0.07-0.87 0.52-1.75 1.02-2.63 1.53-58.6 33.87-124.77 53.33-194.05 56.52v-76.34c0-11.05-8.95-20-20-20s-20 8.95-20 20v76.37c-40.81-1.81-80.55-9.27-118.3-21.99-55.91-19.14-106.64-49.55-149.47-88.51l54.22-54.22c7.81-7.81 7.81-20.47 0-28.28-7.81-7.81-20.47-7.81-28.29 0l-54.24 54.24a429.923 429.923 0 0 1-54.92-75.04c-27.87-48.6-45.43-101.55-52.69-155.63-1.6-12.23-2.68-24.59-3.23-37.04h76.55c11.05 0 20-8.95 20-20s-8.95-20-20-20H85.24c2.03-44.25 10.7-87.24 25.52-127.8 19.25-52.16 48.39-99.58 85.14-139.97l54.22 54.22c3.91 3.91 9.02 5.86 14.14 5.86s10.24-1.95 14.14-5.86c7.81-7.81 7.81-20.47 0-28.28l-54.24-54.24a430.787 430.787 0 0 1 73.73-54.16c58.58-33.85 124.73-53.29 193.98-56.48v76.34c0 11.05 8.95 20 20 20s20-8.95 20-20V86.29c34.21 1.52 67.66 7 99.83 16.22 9.42 2.72 18.73 5.76 27.91 9.12 52.19 19.25 99.63 48.4 140.03 85.16l-54.22 54.22c-7.81 7.81-7.81 20.47 0 28.28 3.91 3.91 9.02 5.86 14.14 5.86s10.24-1.95 14.14-5.86l54.24-54.24a430.01 430.01 0 0 1 54.17 73.76c33.84 58.57 53.27 124.71 56.46 193.95h-76.34c-11.05 0-20 8.95-20 20s8.95 20 20 20h76.37c-1.81 40.83-9.27 80.58-22 118.35-19.14 55.89-49.55 106.61-88.5 149.42l-54.22-54.22z" fill="#333333" p-id="3873"></path><path d="M599.5 480.12c-0.15-0.59-0.34-1.19-0.59-1.79l-70.15-172.41c-6.73-16.53-30.13-16.53-36.86 0l-67 164.67c-6.23 12.63-9.73 26.84-9.73 41.85 0 52.38 42.62 95 95 95s95-42.62 95-95c-0.01-11.35-2.01-22.23-5.67-32.32z m-89.34 87.32c-30.33 0-55-24.67-55-55s24.67-55 55-55 55 24.67 55 55-24.67 55-55 55z" fill="#FF743E" p-id="3874"></path></svg>