<?xml version="1.0" standalone="no"?><!DOCTYPE svg PUBLIC "-//W3C//DTD SVG 1.1//EN" "http://www.w3.org/Graphics/SVG/1.1/DTD/svg11.dtd"><svg t="1705385367457" class="icon" viewBox="0 0 1024 1024" version="1.1" xmlns="http://www.w3.org/2000/svg" p-id="2847" xmlns:xlink="http://www.w3.org/1999/xlink" width="200" height="200"><path d="M622.509305 768.887348a374.461005 374.461005 0 0 1-50.578856 188.561525 360.263432 360.263432 0 0 1-49.025996 66.551127H165.74674a88.734835 88.734835 0 0 1-88.734835-88.734835V431.916811a345.17851 345.17851 0 0 1 66.551127-25.954939 372.464471 372.464471 0 0 1 102.488734-14.197574 377.12305 377.12305 0 0 1 376.457539 377.12305z" fill="#FFD000" p-id="2848"></path><path d="M796.429583 1024H165.74674a88.734835 88.734835 0 0 1-88.734835-88.734835V137.317158a88.734835 88.734835 0 0 1 88.734835-88.734836h384.887349a33.275563 33.275563 0 1 1 0 66.551127H165.74674a22.183709 22.183709 0 0 0-22.183708 22.183709v797.282495a22.183709 22.183709 0 0 0 22.183708 22.183709h630.682843a22.183709 22.183709 0 0 0 22.183709-22.183709V410.842288a33.275563 33.275563 0 0 1 66.551126 0v523.757365a88.734835 88.734835 0 0 1-88.734835 89.400347z" fill="#000000" p-id="2849"></path><path d="M835.916584 791.071057h-709.878682a33.275563 33.275563 0 0 1 0-66.551126h709.878682a33.275563 33.275563 0 1 1 0 66.551126zM374.717278 608.720971a33.053726 33.053726 0 0 1-33.275564-35.272098l6.433276-103.154246a33.941075 33.941075 0 0 1 9.760832-22.183708L795.985908 9.760832a33.275563 33.275563 0 0 1 23.514732-9.760832 33.275563 33.275563 0 0 1 23.514731 9.760832l94.058926 94.058925a33.053726 33.053726 0 0 1 0 47.029463L498.72421 589.199307a32.610052 32.610052 0 0 1-20.630849 9.538995l-100.492201 9.09532z m38.82149-121.566725l-3.327556 51.909879 50.135182-4.658579L866.530103 128.221837 819.50064 81.192374z" fill="#000000" p-id="2850"></path></svg>