<?xml version="1.0" standalone="no"?><!DOCTYPE svg PUBLIC "-//W3C//DTD SVG 1.1//EN" "http://www.w3.org/Graphics/SVG/1.1/DTD/svg11.dtd"><svg t="1705384587134" class="icon" viewBox="0 0 1024 1024" version="1.1" xmlns="http://www.w3.org/2000/svg" p-id="4352" xmlns:xlink="http://www.w3.org/1999/xlink" width="200" height="200"><path d="M961.73 772.43L827.92 540.67C930.59 331.82 795.39 75.66 564.93 42.8 289.47-0.2 75.3 288.83 196.57 539.82L62.27 772.43c-17.77 30.45-4.87 69.43 26.61 84.64l120.25-0.04c11.09 0 21.34 5.91 26.89 15.52l60.09 104.16c27.9 19.71 70.05 10.94 86.61-19.28L508.9 738.88c2.1 0.02 4.15 0.02 6.25 0.01l126.17 218.54c16.58 30.2 58.6 39.02 86.61 19.28l60.09-104.16a31.001 31.001 0 0 1 26.89-15.52l120.25 0.04c31.44-15.21 44.34-54.18 26.57-84.64zM512.44 78.91c407.78 7.46 406.92 612.95-0.01 620-406.94-7-407.68-612.71 0.01-620zM348.06 937.43c-4.36 7.89-14.64 11.86-23.19 9.12l-65.77-114a31.001 31.001 0 0 0-26.89-15.52l-131.61 0.04c-6.65-6.04-8.35-16.92-3.7-24.64l122.46-212.11c54.29 83.84 146.15 142.35 245.19 155.32L348.06 937.43zM923.4 817.07l-131.62-0.04c-11.09 0-21.34 5.91-26.89 15.52l-65.77 114c-8.55 2.74-18.83-1.22-23.19-9.12L559.49 735.75c99.06-12.74 191.04-71.02 245.54-154.72l122.05 211.39c4.75 8.23 2.99 18.45-3.68 24.65z" fill="#333333" p-id="4353"></path><path d="M421.82 571.65c-25.83 0.56-47.86-25.05-42.67-50.71l13.15-76.68c0.19-1.08-0.17-2.19-0.96-2.95L335.63 387c-11.9-11.6-16.1-28.62-10.97-44.42s18.54-27.1 34.98-29.49l76.99-11.19c1.09-0.16 2.03-0.84 2.51-1.83l34.43-69.76c14.33-31.73 63.39-31.8 77.72 0l34.43 69.76c0.49 0.98 1.43 1.67 2.51 1.83l76.99 11.19c34.61 3.83 49.83 50.46 24.02 73.92l-55.71 54.3c-0.79 0.77-1.15 1.87-0.96 2.95l13.15 76.68c7.06 34.1-32.6 62.99-62.88 45.68l-68.86-36.2c-16.97 2.13-74 44.2-92.16 41.23z" fill="#FF743E" p-id="4354"></path></svg>