<?xml version="1.0" standalone="no"?><!DOCTYPE svg PUBLIC "-//W3C//DTD SVG 1.1//EN" "http://www.w3.org/Graphics/SVG/1.1/DTD/svg11.dtd"><svg t="1705379897129" class="icon" viewBox="0 0 1035 1024" version="1.1" xmlns="http://www.w3.org/2000/svg" p-id="6637" xmlns:xlink="http://www.w3.org/1999/xlink" width="202.1484375" height="200"><path d="M284.649739 151.641043a31.788522 31.788522 0 0 1 0 44.966957l-105.961739 105.950609a31.788522 31.788522 0 1 1-44.944696-44.966957l105.961739-105.950609a31.788522 31.788522 0 0 1 44.944696 0z" fill="#000000" p-id="6638"></path><path d="M516.463304 195.31687c-198.956522 0-360.247652 161.28-360.247652 360.247652 0 198.956522 161.29113 360.236522 360.247652 360.236521s360.247652-161.28 360.247653-360.236521c0-198.967652-161.28-360.247652-360.247653-360.247652z m31.788522 148.335304a31.788522 31.788522 0 0 0-63.577043 0v211.901217c0 10.963478 5.654261 21.147826 14.948174 26.957913l127.142956 79.471305a31.788522 31.788522 0 0 0 33.691826-53.915826l-112.194782-70.12174V343.652174z" fill="#000000" p-id="6639"></path><path d="M748.27687 196.59687a31.788522 31.788522 0 0 1 44.955826-44.955827l105.961739 105.96174a31.788522 31.788522 0 0 1-44.966957 44.955826l-105.950608-105.961739z" fill="#000000" p-id="6640"></path></svg>