<?xml version="1.0" standalone="no"?><!DOCTYPE svg PUBLIC "-//W3C//DTD SVG 1.1//EN" "http://www.w3.org/Graphics/SVG/1.1/DTD/svg11.dtd"><svg t="1705383718571" class="icon" viewBox="0 0 1024 1024" version="1.1" xmlns="http://www.w3.org/2000/svg" p-id="3739" xmlns:xlink="http://www.w3.org/1999/xlink" width="200" height="200"><path d="M737.664 176.64l-2.944 161.728c-0.448 22.208 13.632 51.648 31.552 64.832l105.792 80.256c67.84 51.2 56.768 113.92-24.32 139.52l-137.792 43.072c-23.04 7.232-47.36 32.448-53.376 55.872l-32.832 125.44c-25.984 99.008-90.88 108.8-144.64 21.76l-75.072-121.6c-13.632-22.144-46.08-38.848-71.68-37.504l-142.528 7.232c-101.952 5.12-130.944-53.76-64.384-131.392L209.92 487.68c15.744-18.304 23.04-52.48 15.744-75.52l-43.52-138.24c-25.152-81.024 20.096-125.824 100.736-99.392l125.824 41.408c21.376 6.784 53.376 2.112 71.296-11.136l131.392-94.72c71.232-50.752 128-20.864 126.272 66.56z" fill="#000000" p-id="3740"></path><path d="M914.752 873.408l-129.28-129.28a32.192 32.192 0 0 0-45.184 0 32.192 32.192 0 0 0 0 45.184l129.28 129.28a31.616 31.616 0 0 0 45.248 0 32.192 32.192 0 0 0 0-45.184z" fill="#000000" p-id="3741"></path></svg>