<?xml version="1.0" standalone="no"?><!DOCTYPE svg PUBLIC "-//W3C//DTD SVG 1.1//EN" "http://www.w3.org/Graphics/SVG/1.1/DTD/svg11.dtd"><svg t="1705382028425" class="icon" viewBox="0 0 1024 1024" version="1.1" xmlns="http://www.w3.org/2000/svg" p-id="3384" xmlns:xlink="http://www.w3.org/1999/xlink" width="200" height="200"><path d="M485.418667 136.661333a85.333333 85.333333 0 0 1 53.162666 0l328.021334 107.52a42.666667 42.666667 0 0 1 29.397333 40.533334v58.197333c0 449.194667-364.16 553.045333-384 553.045333-244.608-85.333333-372.608-269.653333-384-553.045333V284.714667a42.666667 42.666667 0 0 1 29.397333-40.533334zM512 235.861333c-23.552 0-42.666667 19.2-42.666667 42.922667v26.752c-60.8 15.530667-106.666667 63.402667-106.666666 123.434667 0 73.514667 68.693333 128.768 149.333333 128.768 37.162667 0 64 21.589333 64 42.922666s-26.837333 42.922667-64 42.922667-64-21.589333-64-42.922667l-0.298667-4.992c-2.432-21.333333-20.48-37.930667-42.368-37.930666-23.552 0-42.666667 19.2-42.666666 42.922666 0 60.032 45.866667 107.946667 106.666666 123.434667v26.752l0.298667 5.034667c2.432 21.333333 20.48 37.888 42.368 37.888 23.552 0 42.666667-19.2 42.666667-42.922667l0.042666-26.752c60.757333-15.530667 106.624-63.402667 106.624-123.434667 0-73.472-68.693333-128.768-149.333333-128.768l-6.826667-0.256c-33.578667-2.432-57.173333-22.613333-57.173333-42.666666 0-21.333333 26.837333-42.88 64-42.88s64 21.546667 64 42.88c0 23.722667 19.114667 42.922667 42.666667 42.922666s42.666667-19.2 42.666666-42.922666c0-60.032-45.866667-107.904-106.624-123.392L554.666667 278.784l-0.298667-4.992c-2.432-21.333333-20.48-37.930667-42.368-37.930667z" fill="#000000" p-id="3385"></path></svg>