<?xml version="1.0" standalone="no"?><!DOCTYPE svg PUBLIC "-//W3C//DTD SVG 1.1//EN" "http://www.w3.org/Graphics/SVG/1.1/DTD/svg11.dtd"><svg t="1705382067805" class="icon" viewBox="0 0 1024 1024" version="1.1" xmlns="http://www.w3.org/2000/svg" p-id="5292" xmlns:xlink="http://www.w3.org/1999/xlink" width="200" height="200"><path d="M234.666667 512a85.333333 85.333333 0 0 1 85.333333 85.333333v170.666667a85.333333 85.333333 0 0 1-85.333333 85.333333h-42.666667a85.333333 85.333333 0 0 1-85.333333-85.333333v-170.666667a85.333333 85.333333 0 0 1 85.333333-85.333333h42.666667z m298.666666-384a85.333333 85.333333 0 0 1 85.333334 85.333333v554.666667a85.333333 85.333333 0 0 1-85.333334 85.333333h-42.666666a85.333333 85.333333 0 0 1-85.333334-85.333333V213.333333a85.333333 85.333333 0 0 1 85.333334-85.333333h42.666666z m298.666667 213.333333a85.333333 85.333333 0 0 1 85.333333 85.333334v341.333333a85.333333 85.333333 0 0 1-85.333333 85.333333h-42.666667a85.333333 85.333333 0 0 1-85.333333-85.333333v-341.333333a85.333333 85.333333 0 0 1 85.333333-85.333334h42.666667z" fill="#000000" p-id="5293"></path></svg>