<?xml version="1.0" standalone="no"?><!DOCTYPE svg PUBLIC "-//W3C//DTD SVG 1.1//EN" "http://www.w3.org/Graphics/SVG/1.1/DTD/svg11.dtd"><svg t="1705379852869" class="icon" viewBox="0 0 1024 1024" version="1.1" xmlns="http://www.w3.org/2000/svg" p-id="4894" xmlns:xlink="http://www.w3.org/1999/xlink" width="200" height="200"><path d="M931.695304 429.32313C912.606609 275.890087 790.995478 154.267826 637.562435 135.17913c-23.229217-2.893913-42.295652 16.361739-42.295652 39.769044v275.478261c0 11.709217 9.48313 21.192348 21.181217 21.192348h275.478261c23.407304 0 42.662957-19.066435 39.769043-42.295653z" fill="#000000" p-id="4895"></path><path d="M510.497391 196.140522c-198.956522 0-360.247652 161.28-360.247652 360.247652 0 198.956522 161.28 360.236522 360.247652 360.236522 198.956522 0 360.247652-161.28 360.247652-360.236522a21.192348 21.192348 0 0 0-21.192347-21.192348H552.882087a21.192348 21.192348 0 0 1-21.192348-21.192348V217.33287a21.192348 21.192348 0 0 0-21.192348-21.192348z" fill="#000000" p-id="4896"></path></svg>