<?xml version="1.0" standalone="no"?><!DOCTYPE svg PUBLIC "-//W3C//DTD SVG 1.1//EN" "http://www.w3.org/Graphics/SVG/1.1/DTD/svg11.dtd"><svg t="1705382064759" class="icon" viewBox="0 0 1024 1024" version="1.1" xmlns="http://www.w3.org/2000/svg" p-id="5134" xmlns:xlink="http://www.w3.org/1999/xlink" width="200" height="200"><path d="M768 170.666667a128 128 0 0 1 42.666667 248.704V682.666667l-0.213334 8.533333A170.666667 170.666667 0 0 1 469.333333 682.666667V341.333333l-0.213333-6.4A85.333333 85.333333 0 0 0 298.666667 341.333333v263.296a128.042667 128.042667 0 1 1-85.333334 0V341.333333l0.213334-8.533333A170.666667 170.666667 0 0 1 554.666667 341.333333v341.333334l0.213333 6.4A85.333333 85.333333 0 0 0 725.333333 682.666667V419.413333A128.042667 128.042667 0 0 1 768 170.666667z" fill="#000000" p-id="5135"></path></svg>