<?xml version="1.0" standalone="no"?><!DOCTYPE svg PUBLIC "-//W3C//DTD SVG 1.1//EN" "http://www.w3.org/Graphics/SVG/1.1/DTD/svg11.dtd"><svg t="1705383704064" class="icon" viewBox="0 0 1024 1024" version="1.1" xmlns="http://www.w3.org/2000/svg" p-id="3108" xmlns:xlink="http://www.w3.org/1999/xlink" width="200" height="200"><path d="M857.536 296.128c0 23.04-12.416 43.968-32 54.592l-74.24 40.128-63.168 33.664L557.12 495.36c-14.08 7.68-29.44 11.52-45.248 11.52-15.744 0-31.104-3.84-45.184-11.52L198.336 350.72a61.952 61.952 0 0 1-32-54.592c0-23.04 12.352-43.968 32-54.592l84.032-45.248L349.312 160l117.376-63.104c28.16-15.36 62.272-15.36 90.432 0l268.416 144.64c19.584 10.624 32 31.552 32 54.592z m-435.2 249.6L172.8 421.12a60.864 60.864 0 0 0-59.712 2.56 60.288 60.288 0 0 0-29.056 52.096v235.904c0 40.96 22.656 77.696 59.328 96l249.6 124.608c8.512 4.224 17.92 6.4 27.328 6.4a58.24 58.24 0 0 0 32-9.408 60.288 60.288 0 0 0 28.992-52.032V641.28a105.216 105.216 0 0 0-58.88-95.552z m517.632-69.952v235.904c0 40.576-22.656 77.248-59.328 95.616l-249.6 124.992a61.056 61.056 0 0 1-59.712-3.008 61.248 61.248 0 0 1-29.056-52.032v-235.52c0-40.96 22.592-77.632 59.328-96l91.712-45.632 64-32L851.2 421.12c19.2-9.792 41.344-8.96 59.712 2.56 17.92 11.072 29.056 30.72 29.056 52.096z" fill="#000000" p-id="3109"></path><path d="M751.36 390.848l-63.104 33.664-405.76-228.224L349.504 160l391.68 220.992c4.224 2.56 7.68 6.016 10.24 9.856z m5.952 77.184v96.832c0 17.472-14.464 32-32 32a32.256 32.256 0 0 1-32-32V500.032l64-32z" fill="#000000" p-id="3110"></path></svg>