<?xml version="1.0" standalone="no"?><!DOCTYPE svg PUBLIC "-//W3C//DTD SVG 1.1//EN" "http://www.w3.org/Graphics/SVG/1.1/DTD/svg11.dtd"><svg t="1705383683677" class="icon" viewBox="0 0 1024 1024" version="1.1" xmlns="http://www.w3.org/2000/svg" p-id="2166" xmlns:xlink="http://www.w3.org/1999/xlink" width="200" height="200"><path d="M674.176 94.272c-17.536-17.472-47.808-5.568-47.808 18.752v148.928c0 62.272 52.928 113.92 117.312 113.92 40.576 0.448 96.896 0.448 145.088 0.448 24.32 0 37.12-28.608 20.032-45.632-61.44-61.888-171.52-173.248-234.624-236.416z" fill="#000000" p-id="2167"></path><path d="M874.624 434.752h-123.328a183.68 183.68 0 0 1-183.424-183.424V128c0-23.488-19.2-42.688-42.688-42.688H344.256c-131.392 0-237.632 85.376-237.632 237.696v378.048c0 152.32 106.24 237.632 237.632 237.632h335.36c131.456 0 237.696-85.312 237.696-237.632V477.44c0-23.488-19.2-42.688-42.688-42.688z m-384 322.56H319.936a32.256 32.256 0 0 1-32-32c0-17.472 14.528-32 32-32h170.688c17.472 0 32 14.528 32 32 0 17.536-14.528 32-32 32z m85.312-170.624H320a32.256 32.256 0 0 1-32-32c0-17.536 14.528-32 32-32h256c17.536 0 32 14.464 32 32 0 17.472-14.464 32-32 32z" fill="#000000" p-id="2168"></path></svg>