<?xml version="1.0" standalone="no"?><!DOCTYPE svg PUBLIC "-//W3C//DTD SVG 1.1//EN" "http://www.w3.org/Graphics/SVG/1.1/DTD/svg11.dtd"><svg t="1705383672087" class="icon" viewBox="0 0 1024 1024" version="1.1" xmlns="http://www.w3.org/2000/svg" p-id="1697" xmlns:xlink="http://www.w3.org/1999/xlink" width="200" height="200"><path d="M874.624 434.752h-123.328a183.68 183.68 0 0 1-183.424-183.424V128c0-23.488-19.2-42.688-42.688-42.688H344.256c-131.392 0-237.632 85.376-237.632 237.696v378.048c0 152.32 106.24 237.632 237.632 237.632h335.36c131.456 0 237.696-85.312 237.696-237.632V477.44c0-23.488-19.2-42.688-42.688-42.688z m-350.72 238.528l-85.312 85.376a28.48 28.48 0 0 1-10.688 6.784 28.608 28.608 0 0 1-23.872 0 28.288 28.288 0 0 1-9.408-6.4c-0.448-0.384-0.832-0.384-0.832-0.832l-85.376-85.312a32.192 32.192 0 0 1 0-45.248 32.192 32.192 0 0 1 45.248 0l30.272 31.104V480c0-17.472 14.528-32 32-32 17.536 0 32 14.528 32 32v178.752l30.72-30.72a32.192 32.192 0 0 1 45.248 0 32.192 32.192 0 0 1 0 45.248z" fill="#000000" p-id="1698"></path><path d="M743.68 375.872c40.576 0.448 96.896 0.448 145.088 0.448 24.32 0 37.12-28.608 20.032-45.632-61.44-61.888-171.52-173.248-234.624-236.416-17.536-17.472-47.808-5.568-47.808 18.752v148.928c0 62.272 52.928 113.92 117.312 113.92z" fill="#000000" p-id="1699"></path></svg>