<?xml version="1.0" standalone="no"?><!DOCTYPE svg PUBLIC "-//W3C//DTD SVG 1.1//EN" "http://www.w3.org/Graphics/SVG/1.1/DTD/svg11.dtd"><svg t="1705383730022" class="icon" viewBox="0 0 1024 1024" version="1.1" xmlns="http://www.w3.org/2000/svg" p-id="4211" xmlns:xlink="http://www.w3.org/1999/xlink" width="200" height="200"><path d="M612.288 85.312H411.776c-44.416 0-80.64 35.84-80.64 80.256v40.064c0 44.416 35.84 80.256 80.192 80.256h200.96c44.416 0 80.192-35.84 80.192-80.192v-40.128a79.872 79.872 0 0 0-80.192-80.256z" fill="#000000" p-id="4212"></path><path d="M735.552 205.632c0 67.84-55.424 123.328-123.264 123.328H411.712a123.648 123.648 0 0 1-123.264-123.328c0-23.872-25.6-38.784-46.976-27.712a190.784 190.784 0 0 0-101.12 168.512v401.536c0 104.96 85.76 190.72 190.72 190.72h361.856c104.96 0 190.72-85.76 190.72-190.72V346.432c0-72.96-40.96-136.512-101.12-168.512a31.872 31.872 0 0 0-46.976 27.712zM528.192 723.2h-186.88a32.256 32.256 0 0 1-32-32c0-17.472 14.528-32 32-32h186.88c17.536 0 32 14.528 32 32s-14.464 32-32 32zM640 552.512H341.312a32.256 32.256 0 0 1-32-32c0-17.472 14.528-32 32-32H640c17.472 0 32 14.528 32 32 0 17.536-14.528 32-32 32z" fill="#000000" p-id="4213"></path></svg>