<?xml version="1.0" standalone="no"?><!DOCTYPE svg PUBLIC "-//W3C//DTD SVG 1.1//EN" "http://www.w3.org/Graphics/SVG/1.1/DTD/svg11.dtd"><svg t="1705383721334" class="icon" viewBox="0 0 1024 1024" version="1.1" xmlns="http://www.w3.org/2000/svg" p-id="3896" xmlns:xlink="http://www.w3.org/1999/xlink" width="200" height="200"><path d="M725.376 149.312H298.688c-128 0-213.312 64-213.312 213.376v298.688c0 149.312 85.312 213.312 213.312 213.312h426.688c128 0 213.312-64 213.312-213.312V362.688c0-149.312-85.312-213.312-213.312-213.312z m20.032 259.84L611.904 515.84c-28.16 22.656-64 33.728-99.84 33.728s-72.128-11.072-99.84-33.728L278.656 409.152a32.832 32.832 0 0 1-5.12-45.184 31.936 31.936 0 0 1 44.8-5.12l133.568 106.688c32.384 25.984 87.424 25.984 119.872 0l133.568-106.688a31.488 31.488 0 0 1 44.8 5.12 32.384 32.384 0 0 1-4.736 45.248z" fill="#000000" p-id="3897"></path></svg>