<?xml version="1.0" standalone="no"?><!DOCTYPE svg PUBLIC "-//W3C//DTD SVG 1.1//EN" "http://www.w3.org/Graphics/SVG/1.1/DTD/svg11.dtd"><svg t="1705382048583" class="icon" viewBox="0 0 1024 1024" version="1.1" xmlns="http://www.w3.org/2000/svg" p-id="4180" xmlns:xlink="http://www.w3.org/1999/xlink" width="200" height="200"><path d="M512 85.333333c235.648 0 426.666667 191.018667 426.666667 426.666667s-191.018667 426.666667-426.666667 426.666667S85.333333 747.648 85.333333 512 276.352 85.333333 512 85.333333zM422.954667 363.093333a42.666667 42.666667 0 0 0-56.32 63.872L451.626667 512l-95.957334 96-3.541333 4.053333a42.666667 42.666667 0 0 0 63.872 56.32l96-96 96 96 4.010667 3.541334a42.666667 42.666667 0 0 0 56.32-63.872L572.330667 512l85.034666-85.034667 3.541334-4.010666a42.666667 42.666667 0 0 0-63.872-56.32l-85.077334 84.992-84.992-84.992z" fill="#000000" p-id="4181"></path></svg>