<?xml version="1.0" standalone="no"?><!DOCTYPE svg PUBLIC "-//W3C//DTD SVG 1.1//EN" "http://www.w3.org/Graphics/SVG/1.1/DTD/svg11.dtd"><svg t="1705383596731" class="icon" viewBox="0 0 1024 1024" version="1.1" xmlns="http://www.w3.org/2000/svg" p-id="1064" xmlns:xlink="http://www.w3.org/1999/xlink" width="200" height="200"><path d="M717.632 85.312H306.304a165.12 165.12 0 0 0-164.672 164.736V851.2c0 76.8 55.04 109.248 122.432 72.128L472.32 807.68c22.144-12.352 57.984-12.352 79.744 0l208.256 115.648c67.392 37.568 122.432 5.12 122.432-72.128V250.048a165.76 165.76 0 0 0-165.12-164.736zM618.624 486.4H544v77.248c0 17.472-14.528 32-32 32a32.256 32.256 0 0 1-32-32V486.4H405.312a32.256 32.256 0 0 1-32-32c0-17.472 14.528-32 32-32H480V350.272c0-17.472 14.464-32 32-32 17.472 0 32 14.528 32 32V422.4h74.624c17.536 0 32 14.528 32 32 0 17.536-14.464 32-32 32z" fill="#000000" p-id="1065"></path></svg>