<?xml version="1.0" standalone="no"?><!DOCTYPE svg PUBLIC "-//W3C//DTD SVG 1.1//EN" "http://www.w3.org/Graphics/SVG/1.1/DTD/svg11.dtd"><svg t="1705383663804" class="icon" viewBox="0 0 1024 1024" version="1.1" xmlns="http://www.w3.org/2000/svg" p-id="1222" xmlns:xlink="http://www.w3.org/1999/xlink" width="200" height="200"><path d="M612.288 85.312H411.776c-44.416 0-80.64 35.84-80.64 80.256v40.064c0 44.416 35.84 80.256 80.192 80.256h200.96c44.416 0 80.192-35.84 80.192-80.192v-40.128a79.872 79.872 0 0 0-80.192-80.256z" fill="#000000" p-id="1223"></path><path d="M735.552 205.632c0 67.84-55.424 123.328-123.264 123.328H411.712a123.648 123.648 0 0 1-123.264-123.328c0-23.872-25.6-38.784-46.976-27.712a190.784 190.784 0 0 0-101.12 168.512v401.536c0 104.96 85.76 190.72 190.72 190.72h361.856c104.96 0 190.72-85.76 190.72-190.72V346.432c0-72.96-40.96-136.512-101.12-168.512a31.872 31.872 0 0 0-46.976 27.712z m-81.024 337.536L483.84 713.792a31.68 31.68 0 0 1-45.248 0l-64-64a32.192 32.192 0 0 1 0-45.184 32.192 32.192 0 0 1 45.248 0l41.408 41.344L609.28 497.92a32.192 32.192 0 0 1 45.248 0 32.192 32.192 0 0 1 0 45.248z" fill="#000000" p-id="1224"></path></svg>