<?xml version="1.0" standalone="no"?><!DOCTYPE svg PUBLIC "-//W3C//DTD SVG 1.1//EN" "http://www.w3.org/Graphics/SVG/1.1/DTD/svg11.dtd"><svg t="1705379856347" class="icon" viewBox="0 0 1024 1024" version="1.1" xmlns="http://www.w3.org/2000/svg" p-id="5053" xmlns:xlink="http://www.w3.org/1999/xlink" width="200" height="200"><path d="M615.104688 146.71828H363.773247a31.44671 31.44671 0 0 0 0 62.893419h10.889635v212.188215c-186.632258 88.229161-213.608602 345.517419-45.848774 469.927914l12.365075 9.171957a284.253591 284.253591 0 0 0 338.65772 0l12.376086-9.171957c167.748817-124.421505 140.794495-381.698753-45.848774-469.927914V209.611699h10.889634a31.44671 31.44671 0 0 0 0-62.893419h-42.149161z m-276.62314 377.338494H682.556559c-18.960516-19.929462-42.446452-36.665806-70.248602-48.645505a47.709591 47.709591 0 0 1-28.826151-43.811785V209.611699H437.567312v221.987785a47.709591 47.709591 0 0 1-28.826151 43.811785c-27.813161 11.99071-51.288086 28.716043-70.248602 48.645505z m88.174108 199.151484a41.928946 41.928946 0 1 0 0 83.846882 41.928946 41.928946 0 0 0 0-83.846882z m83.857892-41.928946a41.928946 41.928946 0 1 1 83.846882 0 41.928946 41.928946 0 0 1-83.846882 0z" fill="#000000" p-id="5054"></path></svg>