<?xml version="1.0" standalone="no"?><!DOCTYPE svg PUBLIC "-//W3C//DTD SVG 1.1//EN" "http://www.w3.org/Graphics/SVG/1.1/DTD/svg11.dtd"><svg t="1705382070540" class="icon" viewBox="0 0 1024 1024" version="1.1" xmlns="http://www.w3.org/2000/svg" p-id="5450" xmlns:xlink="http://www.w3.org/1999/xlink" width="200" height="200"><path d="M896 469.333333v298.666667a85.333333 85.333333 0 0 1-85.333333 85.333333H213.333333a85.333333 85.333333 0 0 1-85.333333-85.333333v-298.666667h768zM128 256a85.333333 85.333333 0 0 1 85.333333-85.333333h125.44a85.333333 85.333333 0 0 1 70.997334 37.973333l47.573333 71.381333a42.666667 42.666667 0 0 0 35.498667 18.986667H810.666667a85.333333 85.333333 0 0 1 85.12 78.933333L896 384H128V256z" fill="#000000" p-id="5451"></path></svg>