<?xml version="1.0" standalone="no"?><!DOCTYPE svg PUBLIC "-//W3C//DTD SVG 1.1//EN" "http://www.w3.org/Graphics/SVG/1.1/DTD/svg11.dtd"><svg t="1705382034290" class="icon" viewBox="0 0 1024 1024" version="1.1" xmlns="http://www.w3.org/2000/svg" p-id="3702" xmlns:xlink="http://www.w3.org/1999/xlink" width="200" height="200"><path d="M512 149.333333a362.666667 362.666667 0 0 1 8.96 725.205334L512 874.666667H170.666667a21.333333 21.333333 0 0 1-15.061334-36.437334l85.333334-85.333333-3.072-3.413333a361.216 361.216 0 0 1-88.32-224.213334L149.333333 512A362.666667 362.666667 0 0 1 512 149.333333z m149.333333 405.333334h-298.666666l-4.992 0.298666A42.666667 42.666667 0 0 0 362.666667 640h298.666666l4.992-0.298667A42.666667 42.666667 0 0 0 661.333333 554.666667z m0-170.666667h-298.666666l-4.992 0.298667A42.666667 42.666667 0 0 0 362.666667 469.333333h298.666666l4.992-0.298666A42.666667 42.666667 0 0 0 661.333333 384z" fill="#000000" p-id="3703"></path></svg>