<?xml version="1.0" standalone="no"?><!DOCTYPE svg PUBLIC "-//W3C//DTD SVG 1.1//EN" "http://www.w3.org/Graphics/SVG/1.1/DTD/svg11.dtd"><svg t="1705382044931" class="icon" viewBox="0 0 1024 1024" version="1.1" xmlns="http://www.w3.org/2000/svg" p-id="4022" xmlns:xlink="http://www.w3.org/1999/xlink" width="200" height="200"><path d="M341.333333 192a128 128 0 0 1 128 128v512H341.333333a213.333333 213.333333 0 0 1-213.333333-213.333333v-341.333334a85.333333 85.333333 0 0 1 85.333333-85.333333h128z m469.333334 0a85.333333 85.333333 0 0 1 85.12 78.933333L896 277.333333l0.085333 334.293334A149.376 149.376 0 0 0 605.866667 661.333333a149.333333 149.333333 0 0 0 173.824 147.328 211.541333 211.541333 0 0 1-85.461334 23.04L682.666667 832h-128v-512a128 128 0 0 1 120.490666-127.786667L682.666667 192h128zM755.2 554.666667a106.666667 106.666667 0 0 1 97.194667 150.698666l3.541333 3.2 28.842667 29.696a42.666667 42.666667 0 0 1-57.216 63.061334l-3.968-3.584-28.842667-29.696a42.922667 42.922667 0 0 1-4.778667-5.888A106.666667 106.666667 0 1 1 755.2 554.666667z" fill="#000000" p-id="4023"></path></svg>