<?xml version="1.0" standalone="no"?><!DOCTYPE svg PUBLIC "-//W3C//DTD SVG 1.1//EN" "http://www.w3.org/Graphics/SVG/1.1/DTD/svg11.dtd"><svg t="1705382060800" class="icon" viewBox="0 0 1024 1024" version="1.1" xmlns="http://www.w3.org/2000/svg" p-id="4976" xmlns:xlink="http://www.w3.org/1999/xlink" width="200" height="200"><path d="M512 85.333333c235.648 0 426.666667 191.018667 426.666667 426.666667s-191.018667 426.666667-426.666667 426.666667S85.333333 747.648 85.333333 512 276.352 85.333333 512 85.333333z m72.832 225.834667a42.666667 42.666667 0 0 0-60.330667 0l-170.666666 170.666667-3.541334 4.010666a42.666667 42.666667 0 0 0 3.541334 56.32l170.666666 170.666667 4.010667 3.541333a42.666667 42.666667 0 0 0 56.32-3.541333l3.541333-4.010667a42.666667 42.666667 0 0 0-3.541333-56.32L444.373333 512l140.458667-140.501333 3.541333-4.010667a42.666667 42.666667 0 0 0-3.541333-56.32z" fill="#000000" p-id="4977"></path></svg>