<?xml version="1.0" standalone="no"?><!DOCTYPE svg PUBLIC "-//W3C//DTD SVG 1.1//EN" "http://www.w3.org/Graphics/SVG/1.1/DTD/svg11.dtd"><svg t="1705383680118" class="icon" viewBox="0 0 1024 1024" version="1.1" xmlns="http://www.w3.org/2000/svg" p-id="2010" xmlns:xlink="http://www.w3.org/1999/xlink" width="200" height="200"><path d="M716.8 85.312H605.888C469.312 85.312 384 170.688 384 307.2v172.8h266.688c17.472 0 32 14.528 32 32 0 17.536-14.528 32-32 32H384v172.8c0 136.576 85.312 221.888 221.888 221.888h110.464c136.576 0 221.888-85.312 221.888-221.888V307.2c0.448-136.512-84.928-221.824-221.44-221.824zM194.56 480l88.32-88.32c6.4-6.4 9.472-14.528 9.472-22.592a30.976 30.976 0 0 0-9.408-22.656 32.192 32.192 0 0 0-45.248 0L94.784 489.408a32.192 32.192 0 0 0 0 45.184l142.912 142.912a32.192 32.192 0 0 0 45.248 0 32.192 32.192 0 0 0 0-45.184L194.56 544H384v-64H194.56z" fill="#000000" p-id="2011"></path></svg>