<?xml version="1.0" standalone="no"?><!DOCTYPE svg PUBLIC "-//W3C//DTD SVG 1.1//EN" "http://www.w3.org/Graphics/SVG/1.1/DTD/svg11.dtd"><svg t="1705383724820" class="icon" viewBox="0 0 1024 1024" version="1.1" xmlns="http://www.w3.org/2000/svg" p-id="4054" xmlns:xlink="http://www.w3.org/1999/xlink" width="200" height="200"><path d="M802.112 422.784a147.84 147.84 0 0 0-118.144 59.328 147.84 147.84 0 0 0-118.208-59.328 148.16 148.16 0 0 0-147.648 148.48c0 31.616 5.12 61.056 13.696 87.936 41.792 132.672 171.52 212.48 235.52 234.24a61.44 61.44 0 0 0 32.832 0c64-21.76 193.728-101.12 235.52-234.24 8.96-27.328 13.632-56.32 13.632-87.936a147.456 147.456 0 0 0-147.2-148.48z" fill="#000000" p-id="4055"></path><path d="M885.376 355.904c0 9.856-9.792 16.256-19.2 13.696a205.248 205.248 0 0 0-168.512 31.552 26.24 26.24 0 0 1-31.168 0 198.4 198.4 0 0 0-117.76-38.4c-110.08 0-199.68 90.048-199.68 200.96 0 120.32 57.6 210.368 115.648 270.464 2.944 3.008 0.384 8.128-3.456 6.4-116.48-39.68-375.872-204.352-375.872-484.672a222.72 222.72 0 0 1 222.272-223.552 221.44 221.44 0 0 1 177.92 89.152 222.656 222.656 0 0 1 177.92-89.152c122.496 0 221.888 99.84 221.888 223.552z" fill="#000000" p-id="4056"></path></svg>