<?xml version="1.0" standalone="no"?><!DOCTYPE svg PUBLIC "-//W3C//DTD SVG 1.1//EN" "http://www.w3.org/Graphics/SVG/1.1/DTD/svg11.dtd"><svg t="1705383694064" class="icon" viewBox="0 0 1024 1024" version="1.1" xmlns="http://www.w3.org/2000/svg" p-id="2635" xmlns:xlink="http://www.w3.org/1999/xlink" width="200" height="200"><path d="M690.816 85.312H333.248c-155.264 0-247.872 92.608-247.872 247.936v357.12c0 155.712 92.608 248.32 247.872 248.32h357.12c155.328 0 247.936-92.608 247.936-247.872V333.248c0.384-155.328-92.16-247.872-247.488-247.872z m-341.76 630.208h-3.008a172.544 172.544 0 0 1-109.184-53.76c-68.288-71.68-68.288-188.16 0-259.84l93.44-98.112a172.8 172.8 0 0 1 125.824-54.592c47.808 0 92.608 19.2 125.888 54.592 68.288 71.68 68.288 188.16 0 259.84l-46.528 49.024a32.192 32.192 0 0 1-45.184 1.28 32.192 32.192 0 0 1-1.28-45.184l46.464-49.088c45.248-47.36 45.248-124.544 0-171.52-42.24-44.352-116.48-44.352-159.104 0L282.88 446.272c-45.248 47.36-45.248 124.608 0 171.52a109.44 109.44 0 0 0 69.12 34.176 32 32 0 0 1 18.304 55.424 31.552 31.552 0 0 1-21.312 8.128z m438.208-92.992l-93.44 98.112a172.928 172.928 0 0 1-125.888 54.656c-47.808 0-92.608-19.2-125.888-54.656-68.224-71.68-68.224-188.16 0-259.84l46.528-49.024a32.192 32.192 0 0 1 45.248-1.28c12.8 12.352 13.184 32.384 1.28 45.184l-46.528 49.088c-45.248 47.36-45.248 124.608 0 171.52 42.24 44.352 116.48 44.8 159.168 0l93.44-98.176c45.184-47.36 45.184-124.544 0-171.52a109.44 109.44 0 0 0-69.12-34.112 32 32 0 0 1 6.4-63.552 174.72 174.72 0 0 1 109.184 53.76c67.84 71.232 67.84 188.16-0.384 259.84z" fill="#000000" p-id="2636"></path></svg>