<?xml version="1.0" standalone="no"?><!DOCTYPE svg PUBLIC "-//W3C//DTD SVG 1.1//EN" "http://www.w3.org/Graphics/SVG/1.1/DTD/svg11.dtd"><svg t="1705382013369" class="icon" viewBox="0 0 1024 1024" version="1.1" xmlns="http://www.w3.org/2000/svg" p-id="2748" xmlns:xlink="http://www.w3.org/1999/xlink" width="200" height="200"><path d="M896 341.333333v469.333334a85.333333 85.333333 0 0 1-85.333333 85.333333H213.333333a85.333333 85.333333 0 0 1-85.333333-85.333333V341.333333h768z m-256 85.333334H384a42.666667 42.666667 0 0 0-4.992 85.034666L384 512h256a42.666667 42.666667 0 0 0 0-85.333333z m170.666667-298.666667a85.333333 85.333333 0 0 1 85.333333 85.333333v42.666667H128V213.333333a85.333333 85.333333 0 0 1 85.333333-85.333333h597.333334z" fill="#000000" p-id="2749"></path></svg>