<?xml version="1.0" standalone="no"?><!DOCTYPE svg PUBLIC "-//W3C//DTD SVG 1.1//EN" "http://www.w3.org/Graphics/SVG/1.1/DTD/svg11.dtd"><svg t="1705383707019" class="icon" viewBox="0 0 1024 1024" version="1.1" xmlns="http://www.w3.org/2000/svg" p-id="3265" xmlns:xlink="http://www.w3.org/1999/xlink" width="200" height="200"><path d="M943.24224 331.298133C891.22304 102.4 689.153707 0 512.001707 0h-0.477867C335.054507 0 133.46304 102.4 80.965973 330.820267c-59.050667 255.1808 98.986667 471.2448 242.0736 607.778133a273.476267 273.476267 0 0 0 377.582934 0c143.086933-136.533333 301.124267-352.119467 242.619733-607.300267z m-267.127467 41.096534l-200.021333 197.768533a37.341867 37.341867 0 0 1-26.487467 10.922667 37.341867 37.341867 0 0 1-26.555733-10.922667L348.025173 496.0256a37.0688 37.0688 0 0 1 0-52.4288 38.024533 38.024533 0 0 1 53.0432 0l48.469334 47.9232 173.602133-171.554133a38.024533 38.024533 0 0 1 52.974933 0 37.000533 37.000533 0 0 1 0 52.4288z" fill="#000000" p-id="3266"></path></svg>