<?xml version="1.0" standalone="no"?><!DOCTYPE svg PUBLIC "-//W3C//DTD SVG 1.1//EN" "http://www.w3.org/Graphics/SVG/1.1/DTD/svg11.dtd"><svg t="1705383675979" class="icon" viewBox="0 0 1024 1024" version="1.1" xmlns="http://www.w3.org/2000/svg" p-id="1854" xmlns:xlink="http://www.w3.org/1999/xlink" width="200" height="200"><path d="M879.744 371.2C835.392 173.632 663.04 85.376 512 85.376h-0.448c-150.592 0-322.56 88.32-367.36 285.44-50.368 220.16 84.48 406.592 206.528 524.352A231.936 231.936 0 0 0 512 960.448c57.984 0 116.032-21.76 160.832-65.28 122.048-117.76 256.896-303.808 206.912-523.968zM629.312 501.376H544v85.312c0 17.472-14.528 32-32 32a32.256 32.256 0 0 1-32-32V501.376H394.688a32.256 32.256 0 0 1-32-32c0-17.536 14.464-32 32-32H480V352c0-17.472 14.464-32 32-32 17.472 0 32 14.528 32 32v85.312h85.312c17.536 0 32 14.528 32 32 0 17.536-14.464 32-32 32z" fill="#000000" p-id="1855"></path></svg>