<?xml version="1.0" standalone="no"?><!DOCTYPE svg PUBLIC "-//W3C//DTD SVG 1.1//EN" "http://www.w3.org/Graphics/SVG/1.1/DTD/svg11.dtd"><svg t="1705383698185" class="icon" viewBox="0 0 1024 1024" version="1.1" xmlns="http://www.w3.org/2000/svg" p-id="2793" xmlns:xlink="http://www.w3.org/1999/xlink" width="200" height="200"><path d="M512 740.288a69.568 69.568 0 1 0 0-139.072 69.568 69.568 0 0 0 0 139.072z" fill="#000000" p-id="2794"></path><path d="M779.968 406.656V353.28c0-115.2-27.712-267.904-267.904-267.904-240.256 0-267.968 152.704-267.968 267.904v53.376c-119.488 14.912-158.72 75.52-158.72 224.384v79.36c0 174.976 53.312 228.288 228.288 228.288h396.8c174.912 0 228.224-53.312 228.224-228.288V631.04c0-148.864-39.232-209.472-158.72-224.384z m-267.904 392.96a129.024 129.024 0 0 1-128.896-128.896c0-71.232 58.048-128.832 128.896-128.832a129.28 129.28 0 0 1 128.832 128.832c0 71.296-57.6 128.832-128.832 128.832z m-198.4-396.8h-9.856V353.28c0-124.992 35.456-208.192 208.256-208.192s208.192 83.2 208.192 208.192v49.92H313.664v-0.384z" fill="#000000" p-id="2795"></path></svg>