<?xml version="1.0" standalone="no"?><!DOCTYPE svg PUBLIC "-//W3C//DTD SVG 1.1//EN" "http://www.w3.org/Graphics/SVG/1.1/DTD/svg11.dtd"><svg t="1705383689637" class="icon" viewBox="0 0 1024 1024" version="1.1" xmlns="http://www.w3.org/2000/svg" p-id="2479" xmlns:xlink="http://www.w3.org/1999/xlink" width="200" height="200"><path d="M448.448 478.72L354.624 102.016a21.568 21.568 0 0 0-21.376-16.64 247.808 247.808 0 0 0-247.872 247.872v243.2c0 14.528 14.08 25.152 28.16 20.928l320-92.608a21.312 21.312 0 0 0 14.912-26.048z m26.048 104.96a21.952 21.952 0 0 0-27.328-15.808l-345.984 100.672a22.4 22.4 0 0 0-15.808 21.376v0.832a247.808 247.808 0 0 0 247.872 247.872h201.408c14.08 0 24.768-13.248 21.312-27.328L474.496 583.68z m216.32-498.304H445.504a22.016 22.016 0 0 0-21.376 27.264l202.24 809.408c2.56 9.792 11.136 16.64 21.376 16.64h42.624a247.936 247.936 0 0 0 248.32-247.872V333.248a247.808 247.808 0 0 0-247.872-247.872z" fill="#000000" p-id="2480"></path></svg>