<?xml version="1.0" standalone="no"?><!DOCTYPE svg PUBLIC "-//W3C//DTD SVG 1.1//EN" "http://www.w3.org/Graphics/SVG/1.1/DTD/svg11.dtd"><svg t="1705382031336" class="icon" viewBox="0 0 1024 1024" version="1.1" xmlns="http://www.w3.org/2000/svg" p-id="3544" xmlns:xlink="http://www.w3.org/1999/xlink" width="200" height="200"><path d="M576 832a42.666667 42.666667 0 0 1 4.992 85.034667l-4.992 0.298666h-128a42.666667 42.666667 0 0 1-4.992-85.034666l4.992-0.298667h128zM512 85.333333a42.666667 42.666667 0 0 1 42.666667 42.666667l0.042666 45.952c130.901333 20.224 231.936 131.669333 236.885334 267.818667l0.213333 10.538666-0.042667 90.24 1.365334 0.298667c44.928 11.52 75.306667 41.344 90.752 82.901333l2.901333 8.448 2.218667 7.765334c9.045333 34.432 8.106667 67.2 3.968 90.88a42.538667 42.538667 0 0 1-36.693334 34.944l-5.12 0.298666H172.586667a42.453333 42.453333 0 0 1-40.576-30.293333l-1.194667-4.992-1.450667-11.050667a224.64 224.64 0 0 1 5.418667-79.786666c12.373333-47.018667 41.6-81.877333 87.125333-96.597334l8.746667-2.517333 1.28-0.298667 0.042667-90.24c0-141.013333 102.997333-257.792 237.397333-278.4V128a42.666667 42.666667 0 0 1 42.666667-42.666667z" fill="#000000" p-id="3545"></path></svg>