<?xml version="1.0" standalone="no"?><!DOCTYPE svg PUBLIC "-//W3C//DTD SVG 1.1//EN" "http://www.w3.org/Graphics/SVG/1.1/DTD/svg11.dtd"><svg t="1705382022860" class="icon" viewBox="0 0 1024 1024" version="1.1" xmlns="http://www.w3.org/2000/svg" p-id="3226" xmlns:xlink="http://www.w3.org/1999/xlink" width="200" height="200"><path d="M762.24 658.773333l43.52 123.605334A85.333333 85.333333 0 0 1 725.162667 896h-425.813334a85.333333 85.333333 0 0 1-80.512-113.664l43.349334-123.050667A340.394667 340.394667 0 0 0 512 768a340.394667 340.394667 0 0 0 250.24-109.226667zM512 128a298.666667 298.666667 0 0 1 217.514667 503.338667l-8.533334 8.704h-0.042666l-1.109334 1.066666-4.778666 4.522667-3.925334 3.626667a300.288 300.288 0 0 1-27.008 21.504l-3.072 2.133333a299.093333 299.093333 0 0 1-29.952 18.133333l-2.688 1.408a297.386667 297.386667 0 0 1-20.138666 9.386667l-1.450667 0.64a296.746667 296.746667 0 0 1-10.581333 4.181333l-2.773334 1.024c-7.253333 2.56-14.592 4.949333-22.058666 6.997334l-1.024 0.256a296.405333 296.405333 0 0 1-11.264 2.858666l-3.456 0.768a297.216 297.216 0 0 1-40.192 5.888l-7.424 0.469334-3.968 0.170666a301.226667 301.226667 0 0 1-1.792 0.085334L512 725.333333l-10.666667-0.213333-5.333333-0.213333-7.466667-0.469334a300.586667 300.586667 0 0 1-54.912-9.514666l-1.024-0.256a296.32 296.32 0 0 1-35.413333-12.202667l-1.450667-0.597333a297.258667 297.258667 0 0 1-20.138666-9.429334l-2.688-1.408a298.325333 298.325333 0 0 1-29.952-18.133333l-3.072-2.133333a299.648 299.648 0 0 1-36.864-30.72A298.666667 298.666667 0 0 1 512 128z m-2.688 173.354667a128 128 0 1 0 0.042667 256 128 128 0 0 0 0-256z m-0.085333 71.978666a53.333333 53.333333 0 1 1 0 106.666667 53.333333 53.333333 0 0 1 0-106.666667z" fill="#000000" p-id="3227"></path></svg>