<?xml version="1.0" standalone="no"?><!DOCTYPE svg PUBLIC "-//W3C//DTD SVG 1.1//EN" "http://www.w3.org/Graphics/SVG/1.1/DTD/svg11.dtd"><svg t="1705382004163" class="icon" viewBox="0 0 1024 1024" version="1.1" xmlns="http://www.w3.org/2000/svg" p-id="2270" xmlns:xlink="http://www.w3.org/1999/xlink" width="200" height="200"><path d="M837.12 158.506667c0.426667 2.261333 0.64 4.565333 0.64 6.869333v568.661333a87.210667 87.210667 0 0 1-87.168 87.210667h-115.541333a87.210667 87.210667 0 0 1 0-174.464h80.938666a24.917333 24.917333 0 0 0 24.917334-24.917333V334.165333a24.917333 24.917333 0 0 0-29.525334-24.490666L412.586667 365.738667a24.917333 24.917333 0 0 0-20.309334 24.490666v418.56C392.234667 856.96 316.16 896 268.074667 896H199.552a87.210667 87.210667 0 0 1 0-174.464h80.938667a24.917333 24.917333 0 0 0 24.917333-24.917333V235.52c0-18.005333 12.8-33.408 30.464-36.736l457.642667-70.101333a37.376 37.376 0 0 1 43.605333 29.866666z" fill="#000000" p-id="2271"></path></svg>