<?xml version="1.0" standalone="no"?><!DOCTYPE svg PUBLIC "-//W3C//DTD SVG 1.1//EN" "http://www.w3.org/Graphics/SVG/1.1/DTD/svg11.dtd"><svg t="1705382055821" class="icon" viewBox="0 0 1024 1024" version="1.1" xmlns="http://www.w3.org/2000/svg" p-id="4658" xmlns:xlink="http://www.w3.org/1999/xlink" width="200" height="200"><path d="M512 85.333333c235.648 0 426.666667 191.018667 426.666667 426.666667s-191.018667 426.666667-426.666667 426.666667S85.333333 747.648 85.333333 512 276.352 85.333333 512 85.333333z m0 341.333334a42.666667 42.666667 0 0 0-42.666667 42.666666v256l0.298667 4.992A42.666667 42.666667 0 0 0 554.666667 725.333333v-256l-0.298667-4.992A42.666667 42.666667 0 0 0 512 426.666667z m0-170.666667a64 64 0 1 0 0 128 64 64 0 0 0 0-128z" fill="#000000" p-id="4659"></path></svg>