<?xml version="1.0" standalone="no"?><!DOCTYPE svg PUBLIC "-//W3C//DTD SVG 1.1//EN" "http://www.w3.org/Graphics/SVG/1.1/DTD/svg11.dtd"><svg t="1705382073465" class="icon" viewBox="0 0 1024 1024" version="1.1" xmlns="http://www.w3.org/2000/svg" p-id="5610" xmlns:xlink="http://www.w3.org/1999/xlink" width="200" height="200"><path d="M810.666667 192A106.666667 106.666667 0 0 1 917.333333 298.666667v362.666666A106.666667 106.666667 0 0 1 810.666667 768h-362.538667l-169.386667 103.552a21.333333 21.333333 0 0 1-32.170666-14.762667L246.314667 853.333333l-0.042667-85.333333H213.333333a106.666667 106.666667 0 0 1-106.453333-99.669333L106.666667 661.333333V298.666667A106.666667 106.666667 0 0 1 213.333333 192z m-448 213.333333a64 64 0 1 0 0 128 64 64 0 0 0 0-128z m298.666666 0a64 64 0 1 0 0 128 64 64 0 0 0 0-128z" fill="#000000" p-id="5611"></path></svg>