<?xml version="1.0" standalone="no"?><!DOCTYPE svg PUBLIC "-//W3C//DTD SVG 1.1//EN" "http://www.w3.org/Graphics/SVG/1.1/DTD/svg11.dtd"><svg t="1705381993914" class="icon" viewBox="0 0 1024 1024" version="1.1" xmlns="http://www.w3.org/2000/svg" p-id="1792" xmlns:xlink="http://www.w3.org/1999/xlink" width="200" height="200"><path d="M469.333333 85.333333h85.333334a85.333333 85.333333 0 0 1 85.333333 85.333334v85.333333a85.333333 85.333333 0 0 1-85.333333 85.333333h-85.333334a85.333333 85.333333 0 0 1-85.333333-85.333333V170.666667a85.333333 85.333333 0 0 1 85.333333-85.333334z m85.333334 512a85.333333 85.333333 0 0 1 85.333333 85.333334v85.333333a85.333333 85.333333 0 0 1-85.333333 85.333333h-85.333334a85.333333 85.333333 0 0 1-85.333333-85.333333v-85.333333a85.333333 85.333333 0 0 1 85.333333-85.333334h85.333334z m-298.666667 0a85.333333 85.333333 0 0 1 85.333333 85.333334v85.333333a85.333333 85.333333 0 0 1-85.333333 85.333333H170.666667a85.333333 85.333333 0 0 1-85.333334-85.333333v-85.333333a85.333333 85.333333 0 0 1 85.333334-85.333334h85.333333z m597.333333 0a85.333333 85.333333 0 0 1 85.333334 85.333334v85.333333a85.333333 85.333333 0 0 1-85.333334 85.333333h-85.333333a85.333333 85.333333 0 0 1-85.333333-85.333333v-85.333333a85.333333 85.333333 0 0 1 85.333333-85.333334h85.333333z m-128-213.333333a128 128 0 0 1 127.786667 120.490667L853.333333 512v42.666667h-85.333333v-42.666667a42.666667 42.666667 0 0 0-37.674667-42.368L725.333333 469.333333H298.666667a42.666667 42.666667 0 0 0-42.368 37.674667L256 512v42.666667H170.666667v-42.666667a128 128 0 0 1 120.490666-127.786667L298.666667 384h426.666666z" fill="#000000" p-id="1793"></path></svg>