<?xml version="1.0" standalone="no"?><!DOCTYPE svg PUBLIC "-//W3C//DTD SVG 1.1//EN" "http://www.w3.org/Graphics/SVG/1.1/DTD/svg11.dtd"><svg t="1705382020037" class="icon" viewBox="0 0 1024 1024" version="1.1" xmlns="http://www.w3.org/2000/svg" p-id="3066" xmlns:xlink="http://www.w3.org/1999/xlink" width="200" height="200"><path d="M114.602667 316.586667c35.029333-78.976 120.234667-129.536 184.704-88.789334l7.210666 4.992 7.168 5.461334c66.304 52.309333 104.533333 131.584 76.416 184.32-4.992 9.386667-10.709333 17.834667-18.304 27.008l-7.125333 8.192-9.6 10.24 3.882667 7.253333c12.629333 22.186667 35.84 51.925333 64.896 82.005333l8.149333 8.234667 16.042667 15.488 14.037333 12.885333 20.138667 17.365334 6.869333 5.546666 13.653333 10.453334c2.133333 1.493333 4.138667 2.986667 6.144 4.352l11.093334 7.424 10.24 6.144 6.656 3.498666 4.053333-5.290666c11.434667-14.848 23.168-25.344 38.314667-33.28l7.850666-3.84c68.053333-29.994667 164.778667 25.557333 203.349334 114.346666 17.664 39.722667-2.56 85.12-48.256 129.749334l-7.722667 7.296-9.941333 8.661333c-14.805333 12.202667-28.032 20.437333-42.666667 25.514667l-9.984 2.56-6.869333 0.853333-7.424 0.554667-8.106667 0.256-8.96-0.128-9.642667-0.512-10.496-0.938667-10.837333-1.408-6.314667-0.981333-12.16-2.261334-20.053333-4.693333-13.354667-3.712c-83.754667-25.045333-169.813333-78.506667-254.293333-159.786667-90.197333-86.613333-153.258667-181.888-181.76-272.298666l-4.266667-14.72-3.584-14.08a303.658667 303.658667 0 0 1-4.565333-24.277334l-1.450667-11.946666-0.853333-11.733334c-0.938667-20.608 1.28-38.485333 7.722667-55.978666z m371.626666-209.92C712.533333 106.666667 896 288.128 896 512c0 23.552-19.328 42.666667-43.093333 42.666667-23.893333 0-43.178667-19.114667-43.178667-42.666667 0-176.725333-144.810667-320-323.498667-320-23.808 0-43.093333-19.114667-43.093333-42.666667s19.285333-42.666667 43.093333-42.666666z m-0.853333 164.821333c131.498667 0 238.08 105.472 238.08 235.52 0 23.125333-18.901333 41.813333-42.24 41.813333a42.026667 42.026667 0 0 1-42.24-41.813333c0-83.882667-68.778667-151.893333-153.6-151.893333a42.026667 42.026667 0 0 1-42.24-41.813334c0-23.082667 18.901333-41.813333 42.24-41.813333z" fill="#000000" p-id="3067"></path></svg>