<?xml version="1.0" standalone="no"?><!DOCTYPE svg PUBLIC "-//W3C//DTD SVG 1.1//EN" "http://www.w3.org/Graphics/SVG/1.1/DTD/svg11.dtd"><svg t="1705382053402" class="icon" viewBox="0 0 1024 1024" version="1.1" xmlns="http://www.w3.org/2000/svg" p-id="4498" xmlns:xlink="http://www.w3.org/1999/xlink" width="200" height="200"><path d="M810.666667 128a85.333333 85.333333 0 0 1 85.333333 85.333333v597.333334a85.333333 85.333333 0 0 1-85.333333 85.333333H213.333333a85.333333 85.333333 0 0 1-85.333333-85.333333V213.333333a85.333333 85.333333 0 0 1 85.333333-85.333333h597.333334z m-378.282667 318.293333c-27.349333 6.144-102.869333 105.898667-226.602667 299.178667a11.776 11.776 0 0 0 9.898667 18.133333h591.061333a11.776 11.776 0 0 0 9.514667-18.688c-106.538667-146.645333-170.453333-224.682667-191.744-234.069333-33.28-14.634667-65.706667 50.346667-78.378667 50.346667-12.714667 0-71.466667-124.373333-113.749333-114.901334z m264.96-185.898666a66.218667 66.218667 0 1 0 0 132.437333 66.218667 66.218667 0 0 0 0-132.437333z" fill="#000000" p-id="4499"></path></svg>