<?xml version="1.0" standalone="no"?><!DOCTYPE svg PUBLIC "-//W3C//DTD SVG 1.1//EN" "http://www.w3.org/Graphics/SVG/1.1/DTD/svg11.dtd"><svg t="1705382016753" class="icon" viewBox="0 0 1024 1024" version="1.1" xmlns="http://www.w3.org/2000/svg" p-id="2908" xmlns:xlink="http://www.w3.org/1999/xlink" width="200" height="200"><path d="M531.2 134.698667l7.509333 2.090666 327.978667 108.117334a42.666667 42.666667 0 0 1 29.013333 35.541333L896 285.44v58.752c0 451.84-364.16 556.288-384 556.288-239.786667-84.181333-367.573333-264.021333-383.189333-539.648L128 344.192V285.44a42.666667 42.666667 0 0 1 24.704-38.698667l4.608-1.834666 327.978667-108.117334a85.333333 85.333333 0 0 1 45.909333-2.133333zM512 299.648c-107.392 0-192 97.28-192 214.570667 0 117.333333 84.608 214.613333 192 214.613333 24.533333 0 47.872-5.12 69.290667-14.336l20.309333 27.178667 3.456 4.096c14.762667 15.36 38.869333 17.621333 56.277333 4.48a43.093333 43.093333 0 0 0 11.477334-55.552l-2.944-4.522667-19.84-26.624c33.536-38.826667 53.973333-91.648 53.973333-149.333333 0-117.333333-84.608-214.613333-192-214.613334z m0 85.802667c57.557333 0 106.666667 56.490667 106.666667 128.768 0 29.568-8.192 56.448-21.845334 77.952l-29.354666-39.338667-3.456-4.096a42.496 42.496 0 0 0-56.277334-4.48 43.093333 43.093333 0 0 0-11.477333 55.594667l2.944 4.48 27.818667 37.333333c-4.949333 0.853333-9.941333 1.28-15.018667 1.28-57.557333 0-106.666667-56.448-106.666667-128.725333s49.109333-128.768 106.666667-128.768z" fill="#000000" p-id="2909"></path></svg>