<?xml version="1.0" standalone="no"?><!DOCTYPE svg PUBLIC "-//W3C//DTD SVG 1.1//EN" "http://www.w3.org/Graphics/SVG/1.1/DTD/svg11.dtd"><svg t="1705382077203" class="icon" viewBox="0 0 1024 1024" version="1.1" xmlns="http://www.w3.org/2000/svg" p-id="5764" xmlns:xlink="http://www.w3.org/1999/xlink" width="200" height="200"><path d="M512 85.333333c235.648 0 426.666667 191.018667 426.666667 426.666667s-191.018667 426.666667-426.666667 426.666667S85.333333 747.648 85.333333 512 276.352 85.333333 512 85.333333z m10.666667 597.333334a53.333333 53.333333 0 1 0 0 106.666666 53.333333 53.333333 0 0 0 0-106.666666zM512 213.333333C412.586667 213.333333 350.933333 260.437333 341.546667 346.410667L341.333333 360.064l0.298667 4.565333c2.432 19.456 20.48 34.56 42.368 34.56 23.552 0 42.666667-17.493333 42.666667-39.125333v-9.813333l0.853333-5.888c6.229333-36.437333 30.293333-52.778667 84.48-52.778667 40.192 0 61.909333 12.202667 74.538667 33.408a80 80 0 0 1 10.666666 33.493333l0.128 1.578667c0 23.04-8.746667 36.266667-38.4 62.378667l-21.034666 18.602666C490.752 484.394667 469.333333 522.538667 469.333333 585.088c0 21.589333 19.114667 39.125333 42.666667 39.125333s42.666667-17.536 42.666667-39.125333c0-41.045333 12.928-61.952 50.858666-95.274667l20.565334-18.176C665.258667 435.669333 682.666667 406.4 682.666667 360.106667l-0.384-7.68a153.088 153.088 0 0 0-20.821334-64.853334C634.026667 241.493333 583.808 213.333333 512 213.333333z" fill="#000000" p-id="5765"></path></svg>