<?xml version="1.0" standalone="no"?><!DOCTYPE svg PUBLIC "-//W3C//DTD SVG 1.1//EN" "http://www.w3.org/Graphics/SVG/1.1/DTD/svg11.dtd"><svg t="1705381902447" class="icon" viewBox="0 0 1024 1024" version="1.1" xmlns="http://www.w3.org/2000/svg" p-id="1158" xmlns:xlink="http://www.w3.org/1999/xlink" width="200" height="200"><path d="M522.666667 85.333333a64 64 0 0 1 42.709333 111.658667L565.333333 256H725.333333a128 128 0 0 1 127.786667 120.490667L853.333333 384v341.333333a128 128 0 0 1-120.490666 127.786667L725.333333 853.333333H298.666667a128 128 0 0 1-127.786667-120.490666L170.666667 725.333333V384a128 128 0 0 1 120.490666-127.786667L298.666667 256h181.333333V197.034667a64 64 0 0 1 42.666667-111.701334z m53.333333 512h-128a42.666667 42.666667 0 0 0-4.992 85.034667L448 682.666667h128a42.666667 42.666667 0 0 0 0-85.333334z m-181.333333-170.666666a64 64 0 1 0 0 128 64 64 0 0 0 0-128z m256 0a64 64 0 1 0 0 128 64 64 0 0 0 0-128zM106.666667 426.666667a42.666667 42.666667 0 0 1 42.368 37.674666L149.333333 469.333333v170.666667a42.666667 42.666667 0 0 1-85.034666 4.992L64 640v-170.666667a42.666667 42.666667 0 0 1 42.666667-42.666666z m810.666666 0a42.666667 42.666667 0 0 1 42.368 37.674666L960 469.333333v170.666667a42.666667 42.666667 0 0 1-85.034667 4.992L874.666667 640v-170.666667a42.666667 42.666667 0 0 1 42.666666-42.666666z" fill="#000000" p-id="1159"></path></svg>