<?xml version="1.0" standalone="no"?><!DOCTYPE svg PUBLIC "-//W3C//DTD SVG 1.1//EN" "http://www.w3.org/Graphics/SVG/1.1/DTD/svg11.dtd"><svg t="1705383713182" class="icon" viewBox="0 0 1024 1024" version="1.1" xmlns="http://www.w3.org/2000/svg" p-id="3582" xmlns:xlink="http://www.w3.org/1999/xlink" width="200" height="200"><path d="M549.526588 223.774118H221.485176A131.553882 131.553882 0 0 0 90.352941 354.906353v478.991059c0 61.138824 43.851294 87.341176 97.400471 57.344l165.707294-92.340706c17.709176-9.637647 46.381176-9.637647 63.668706 0l165.707294 92.340706c53.970824 29.515294 97.822118 3.794824 97.822118-57.344V354.906353c0-72.101647-59.030588-131.132235-131.132236-131.132235z" fill="#000000" p-id="3583"></path><path d="M933.647059 191.367529v478.991059c0 61.138824-43.911529 86.859294-97.460706 57.344l-81.317647-45.537882a21.443765 21.443765 0 0 1-11.023059-18.552471V354.966588a194.680471 194.680471 0 0 0-194.379294-194.379294H377.856c-15.600941 0-26.503529-16.444235-19.395765-29.936941A131.312941 131.312941 0 0 1 474.413176 60.235294h328.041412C874.616471 60.235294 933.647059 119.265882 933.647059 191.367529z" fill="#000000" p-id="3584"></path></svg>