<?xml version="1.0" standalone="no"?><!DOCTYPE svg PUBLIC "-//W3C//DTD SVG 1.1//EN" "http://www.w3.org/Graphics/SVG/1.1/DTD/svg11.dtd"><svg t="1705383732897" class="icon" viewBox="0 0 1024 1024" version="1.1" xmlns="http://www.w3.org/2000/svg" p-id="4368" xmlns:xlink="http://www.w3.org/1999/xlink" width="200" height="200"><path d="M512 85.312A426.88 426.88 0 0 0 85.44 512a426.88 426.88 0 0 0 426.688 426.688A426.816 426.816 0 0 0 938.688 512a426.816 426.816 0 0 0-426.624-426.688z m-45.632 646.4a33.408 33.408 0 0 1-32.448 32.448 33.28 33.28 0 0 1-22.592-9.472L281.664 625.152a32.192 32.192 0 0 1 0-45.248 32.192 32.192 0 0 1 45.184 0l75.136 75.072V292.288c0-17.536 14.464-32 32-32 17.472 0 32 14.464 32 32v439.488h0.384z m275.648-287.104c-6.4 6.4-14.528 9.344-22.592 9.344a31.68 31.68 0 0 1-22.656-9.344L621.696 369.536v362.624c0 17.536-14.528 32-32 32a32.256 32.256 0 0 1-32-32V292.288a33.408 33.408 0 0 1 20.032-29.888 30.144 30.144 0 0 1 24.32 0c3.84 1.728 7.296 3.84 10.24 6.848l129.728 129.728c12.352 12.8 12.352 32.832 0 45.632z" fill="#000000" p-id="4369"></path></svg>