<?xml version="1.0" standalone="no"?><!DOCTYPE svg PUBLIC "-//W3C//DTD SVG 1.1//EN" "http://www.w3.org/Graphics/SVG/1.1/DTD/svg11.dtd"><svg t="1705382058187" class="icon" viewBox="0 0 1024 1024" version="1.1" xmlns="http://www.w3.org/2000/svg" p-id="4816" xmlns:xlink="http://www.w3.org/1999/xlink" width="200" height="200"><path d="M725.333333 128a85.333333 85.333333 0 0 1 85.333334 85.333333v256.426667a67.84 67.84 0 0 0-55.466667 19.498667l-244.906667 245.418666c-12.544 12.586667-19.626667 29.610667-19.626666 47.402667v89.258667c0 8.746667 4.224 17.066667 11.136 24.704L256 896a85.333333 85.333333 0 0 1-85.333333-85.333333V213.333333a85.333333 85.333333 0 0 1 85.333333-85.333333h469.333333z m-2.645333 454.186667l124.288 124.288-181.674667 182.186666a25.173333 25.173333 0 0 1-13.909333 7.04l-3.968 0.298667h-89.045333a24.917333 24.917333 0 0 1-24.746667-20.650667l-0.298667-4.010666V782.08c0-5.12 1.664-10.154667 4.693334-14.336l2.474666-2.944 182.186667-182.613333z m94.933333-65.706667l3.498667 2.901333 89.045333 89.258667c8.533333 8.533333 9.429333 21.632 2.816 31.146667l-2.816 3.413333-33.066666 33.066667-124.288-124.288 32.554666-32.597334a25.344 25.344 0 0 1 32.256-2.901333zM576 469.290667h-256l-4.992 0.256a42.666667 42.666667 0 0 0 0 84.778666l4.992 0.298667h256l4.992-0.298667a42.666667 42.666667 0 0 0-4.992-85.034666z m89.173333-213.333334H316.16l-4.565333 0.256c-19.285333 2.474667-34.261333 20.48-34.261334 42.410667 0 21.845333 14.933333 39.893333 34.261334 42.368l4.522666 0.298667h349.098667l4.522667-0.298667c19.285333-2.474667 34.261333-20.48 34.261333-42.368 0-23.594667-17.365333-42.666667-38.826667-42.666667z" fill="#000000" p-id="4817"></path></svg>