<?xml version="1.0" standalone="no"?><!DOCTYPE svg PUBLIC "-//W3C//DTD SVG 1.1//EN" "http://www.w3.org/Graphics/SVG/1.1/DTD/svg11.dtd"><svg t="1705383669806" class="icon" viewBox="0 0 1024 1024" version="1.1" xmlns="http://www.w3.org/2000/svg" p-id="1539" xmlns:xlink="http://www.w3.org/1999/xlink" width="200" height="200"><path d="M512 85.312C276.992 85.312 85.44 276.992 85.44 512c0 235.136 191.552 426.688 426.688 426.688 235.072 0 426.624-191.552 426.624-426.688 0-235.072-191.552-426.688-426.624-426.688z m185.6 579.008a31.872 31.872 0 0 1-43.904 11.072L521.408 596.48c-32.832-19.584-57.152-62.72-57.152-100.672V320.832c0-17.472 14.528-32 32-32s32 14.528 32 32v174.976c0 15.36 12.8 37.952 26.048 45.632l132.224 78.912c15.36 8.96 20.48 28.608 11.136 43.968z" fill="#000000" p-id="1540"></path></svg>