<?xml version="1.0" standalone="no"?><!DOCTYPE svg PUBLIC "-//W3C//DTD SVG 1.1//EN" "http://www.w3.org/Graphics/SVG/1.1/DTD/svg11.dtd"><svg t="1705379841364" class="icon" viewBox="0 0 1024 1024" version="1.1" xmlns="http://www.w3.org/2000/svg" p-id="4265" xmlns:xlink="http://www.w3.org/1999/xlink" width="200" height="200"><path d="M425.73913 156.260174a31.788522 31.788522 0 0 1 0-63.577044h149.837913a31.788522 31.788522 0 0 1 0 63.577044H425.73913zM278.683826 175.415652a31.788522 31.788522 0 0 1 0 44.944696l-105.961739 105.961739a31.788522 31.788522 0 1 1-44.944696-44.966957L233.73913 175.415652a31.788522 31.788522 0 0 1 44.944696 0z" fill="#000000" p-id="4266"></path><path d="M510.497391 219.080348c-198.956522 0-360.247652 161.28-360.247652 360.236522 0 198.967652 161.29113 360.247652 360.247652 360.247652s360.247652-161.28 360.247652-360.247652c0-198.956522-161.28-360.236522-360.247652-360.236522z m211.522783 157.273043a21.192348 21.192348 0 0 0-29.740522-29.740521l-134.511304 104.626087-87.963826 62.831304a60.772174 60.772174 0 1 0 84.758261 84.758261l62.831304-87.963826 104.626087-134.522435z" fill="#000000" p-id="4267"></path></svg>