<?xml version="1.0" standalone="no"?><!DOCTYPE svg PUBLIC "-//W3C//DTD SVG 1.1//EN" "http://www.w3.org/Graphics/SVG/1.1/DTD/svg11.dtd"><svg t="1705383686658" class="icon" viewBox="0 0 1024 1024" version="1.1" xmlns="http://www.w3.org/2000/svg" p-id="2323" xmlns:xlink="http://www.w3.org/1999/xlink" width="200" height="200"><path d="M326.4 892.16c-1.28 0-3.008 0.896-4.288 0.896A426.88 426.88 0 0 1 130.56 701.44c0-1.28 0.832-2.944 0.832-4.288 52.096 15.36 105.856 26.88 159.168 35.84 9.408 53.76 20.48 107.136 35.84 159.168z m567.04-190.272a430.656 430.656 0 0 1-198.4 194.944c16.256-54.144 29.888-108.8 38.848-163.84 53.76-8.96 106.688-20.48 158.72-35.84-0.384 1.728 0.896 3.456 0.896 4.736z m3.456-372.928c-53.76-16.192-107.968-29.44-163.008-38.784a1191.04 1191.04 0 0 0-38.784-163.008 428.864 428.864 0 0 1 201.792 201.792zM326.464 131.84c-15.36 52.032-26.496 104.96-35.456 158.72-55.04 8.512-109.632 22.144-163.84 38.4a430.656 430.656 0 0 1 195.008-198.4c1.28 0 3.008 1.28 4.288 1.28z m334.592 149.376a1336.64 1336.64 0 0 0-297.856 0c10.688-58.496 24.32-116.928 43.52-173.248 0.896-3.456 0.448-6.016 0.896-9.408a444.032 444.032 0 0 1 104.512-13.248c35.84 0 70.848 5.12 104.128 13.248 0.384 3.392 0.384 5.952 1.28 9.408 19.2 56.768 32.832 114.752 43.52 173.248z m-379.84 379.776a1196.8 1196.8 0 0 1-173.248-43.52c-3.392-0.832-5.952-0.384-9.344-0.832a443.968 443.968 0 0 1-13.248-104.512c0-35.84 5.12-70.848 13.248-104.128 3.392-0.448 5.952-0.448 9.344-1.28a1270.272 1270.272 0 0 1 173.248-43.52 1389.888 1389.888 0 0 0 0 297.792z m657.472-148.864a444.16 444.16 0 0 1-13.184 104.512c-3.456 0.448-6.016 0-9.408 0.832-56.768 18.752-114.752 32.896-173.248 43.52a1336.192 1336.192 0 0 0 0-297.792c58.496 10.688 116.928 24.32 173.248 43.52 3.392 0.832 5.952 1.28 9.408 1.28a443.52 443.52 0 0 1 13.184 104.128z m-277.632 230.72a1196.8 1196.8 0 0 1-43.52 173.248c-0.896 3.392-0.896 5.952-1.28 9.344a440.64 440.64 0 0 1-104.128 13.248 444.16 444.16 0 0 1-104.512-13.248c-0.448-3.392 0-5.952-0.896-9.408-18.56-56.64-33.088-114.56-43.52-173.184 49.536 5.568 99.008 9.408 148.928 9.408s99.84-3.84 148.928-9.408z m11.52-70.272a1281.28 1281.28 0 0 1-321.088 0 1281.664 1281.664 0 0 1 0-321.152c106.624-13.44 214.464-13.44 321.088 0a1281.28 1281.28 0 0 1 0 321.152z" fill="#000000" p-id="2324"></path></svg>