<?xml version="1.0" standalone="no"?><!DOCTYPE svg PUBLIC "-//W3C//DTD SVG 1.1//EN" "http://www.w3.org/Graphics/SVG/1.1/DTD/svg11.dtd"><svg t="1705382001021" class="icon" viewBox="0 0 1024 1024" version="1.1" xmlns="http://www.w3.org/2000/svg" p-id="2110" xmlns:xlink="http://www.w3.org/1999/xlink" width="200" height="200"><path d="M853.333333 512a42.666667 42.666667 0 0 1 42.368 37.674667L896 554.666667v298.666666a42.666667 42.666667 0 0 1-37.674667 42.368L853.333333 896h-298.666666a42.666667 42.666667 0 0 1-42.368-37.674667L512 853.333333v-256h42.666667a42.666667 42.666667 0 0 0 42.666666-42.666666v-42.666667h256zM234.368 639.488a277.76 277.76 0 0 0 150.186667 150.186667 42.666667 42.666667 0 1 1-32.725334 78.805333 363.093333 363.093333 0 0 1-196.266666-196.309333 42.666667 42.666667 0 1 1 78.805333-32.682667zM704 597.333333a21.333333 21.333333 0 0 0-20.992 17.493334L682.666667 618.666667v170.666666l0.341333 3.84a21.333333 21.333333 0 0 0 41.984 0L725.333333 789.333333v-170.666666l-0.341333-3.84A21.333333 21.333333 0 0 0 704 597.333333z m85.333333 0a21.333333 21.333333 0 0 0-20.992 17.493334L768 618.666667v170.666666l0.341333 3.84a21.333333 21.333333 0 0 0 41.984 0L810.666667 789.333333v-170.666666l-0.341334-3.84A21.333333 21.333333 0 0 0 789.333333 597.333333z m-170.666666 42.666667a21.333333 21.333333 0 0 0-20.992 17.493333L597.333333 661.333333v85.333334l0.341334 3.84a21.333333 21.333333 0 0 0 41.984 0L640 746.666667v-85.333334l-0.341333-3.84A21.333333 21.333333 0 0 0 618.666667 640zM512 128a42.666667 42.666667 0 0 1 42.666667 42.666667v341.333333a42.666667 42.666667 0 0 1-42.666667 42.666667H170.666667a42.666667 42.666667 0 0 1-42.666667-42.666667V170.666667a42.666667 42.666667 0 0 1 42.666667-42.666667h341.333333zM355.157333 215.210667h-27.648V258.986667H236.885333v124.928h26.88v-14.08h63.744v85.504h27.648V369.834667h64v14.08h26.88V258.986667h-90.88V215.210667z m317.013334-59.690667a363.093333 363.093333 0 0 1 196.266666 196.309333 42.666667 42.666667 0 0 1-78.805333 32.682667 277.76 277.76 0 0 0-150.186667-150.186667 42.666667 42.666667 0 1 1 32.725334-78.805333zM327.509333 285.098667v58.624H263.765333V285.098667h63.744z m91.648 0v58.624h-64V285.098667h64z" fill="#000000" p-id="2111"></path></svg>