<?xml version="1.0" standalone="no"?><!DOCTYPE svg PUBLIC "-//W3C//DTD SVG 1.1//EN" "http://www.w3.org/Graphics/SVG/1.1/DTD/svg11.dtd"><svg t="1705382036603" class="icon" viewBox="0 0 1024 1024" version="1.1" xmlns="http://www.w3.org/2000/svg" p-id="3862" xmlns:xlink="http://www.w3.org/1999/xlink" width="200" height="200"><path d="M665.002667 386.389333c127.658667 0 230.997333 98.474667 230.997333 219.946667 0 48.810667-16.682667 93.824-45.013333 130.261333l-6.741334 8.277334-0.341333 91.52c0 11.136-11.050667 18.346667-20.224 16.725333l-2.986667-0.896-84.394666-36.906667a240.512 240.512 0 0 1-71.253334 10.837334c-127.573333 0-230.954667-98.474667-230.954666-219.904 0-121.386667 103.381333-219.861333 230.912-219.861334zM404.437333 170.666667c123.562667 0 215.338667 71.466667 259.584 171.221333L655.488 341.333333 654.293333 341.333333l-9.002666 0.170667C513.28 346.453333 393.386667 461.824 393.386667 605.866667c0 49.194667 16.128 91.178667 14.848 91.178666a320.981333 320.981333 0 0 1-77.354667-9.6l-11.818667-3.328-100.992 44.117334c-10.453333 4.48-25.088-2.773333-27.477333-15.488l-0.341333-3.626667-0.426667-109.525333A254.549333 254.549333 0 0 1 128 433.834667C128 288.512 251.733333 170.666667 404.394667 170.666667z m182.314667 314.325333c-17.194667 0-31.146667 14.805333-31.146667 32.981333 0 16.682667 11.690667 30.506667 26.922667 32.682667l4.266667 0.298667c17.194667 0.042667 31.146667-14.762667 31.146666-32.981334 0-18.176-13.952-32.981333-31.146666-32.981333z m158.592 0c-17.152 0-31.146667 14.805333-31.146667 32.981333 0 16.682667 11.776 30.506667 26.965334 32.682667l4.181333 0.298667c17.322667 0.042667 31.232-14.762667 31.232-32.981334 0-18.176-14.037333-32.981333-31.232-32.981333zM308.266667 288.64l-4.693334 0.256c-18.346667 2.474667-32.64 19.072-32.64 39.210667 0 20.138667 14.208 36.778667 32.64 39.210666l4.693334 0.298667c20.608 0 37.290667-17.749333 37.290666-39.509333s-16.725333-39.466667-37.290666-39.466667z m189.866666 0l-2.645333 0.085333c-19.370667 1.450667-34.645333 18.517333-34.645333 39.381334 0 21.802667 16.682667 39.509333 37.290666 39.509333 20.565333 0 37.290667-17.749333 37.290667-39.509333s-16.64-39.509333-37.290667-39.509334z" fill="#000000" p-id="3863"></path></svg>