<?xml version="1.0" standalone="no"?><!DOCTYPE svg PUBLIC "-//W3C//DTD SVG 1.1//EN" "http://www.w3.org/Graphics/SVG/1.1/DTD/svg11.dtd"><svg t="1705376669128" class="icon" viewBox="0 0 1024 1024" version="1.1" xmlns="http://www.w3.org/2000/svg" p-id="3215" xmlns:xlink="http://www.w3.org/1999/xlink" width="200" height="200"><path d="M971.946667 394.666667a19.626667 19.626667 0 0 1-5.546667 14.08l-56.32 64a20.48 20.48 0 0 1-15.36 6.826666c-22.186667 0-140.373333-138.24-384-138.24s-360.533333 138.24-384 138.24a20.48 20.48 0 0 1-15.36-6.826666l-53.76-64a19.626667 19.626667 0 0 1-5.546667-14.08C52.053333 364.8 256 213.333333 512 213.333333c247.893333 0 459.946667 148.48 459.946667 181.333334zM512 469.333333c-154.026667 0-290.56 88.746667-290.56 116.906667a23.466667 23.466667 0 0 0 5.546667 14.506667l56.746666 64a20.437333 20.437333 0 0 0 15.36 6.826666c22.613333 0 75.52-74.24 213.333334-74.24s192 74.24 213.333333 74.24a20.48 20.48 0 0 0 15.36-6.826666l56.746667-64a23.466667 23.466667 0 0 0 5.546666-14.506667C802.56 558.506667 665.6 469.333333 512 469.333333z m0 256c-46.506667 0-120.32 24.746667-120.32 53.76 0 5.12 1.834667 10.112 5.12 14.08l42.666667 49.493334a31.146667 31.146667 0 0 0 23.893333 10.666666h94.72a31.232 31.232 0 0 0 23.893333-10.666666l42.666667-49.493334a22.186667 22.186667 0 0 0 5.12-14.08C632.32 750.506667 559.36 725.333333 512 725.333333z" fill="#000000" p-id="3216"></path></svg>