<?xml version="1.0" standalone="no"?><!DOCTYPE svg PUBLIC "-//W3C//DTD SVG 1.1//EN" "http://www.w3.org/Graphics/SVG/1.1/DTD/svg11.dtd"><svg t="1705382007153" class="icon" viewBox="0 0 1024 1024" version="1.1" xmlns="http://www.w3.org/2000/svg" p-id="2428" xmlns:xlink="http://www.w3.org/1999/xlink" width="200" height="200"><path d="M810.666667 640a85.333333 85.333333 0 0 1 85.333333 85.333333v85.333334a85.333333 85.333333 0 0 1-85.333333 85.333333h-170.666667a85.333333 85.333333 0 0 1-85.333333-85.333333v-85.333334a85.333333 85.333333 0 0 1 85.333333-85.333333h170.666667zM384 469.333333a85.333333 85.333333 0 0 1 85.333333 85.333334v256a85.333333 85.333333 0 0 1-85.333333 85.333333H213.333333a85.333333 85.333333 0 0 1-85.333333-85.333333v-256a85.333333 85.333333 0 0 1 85.333333-85.333334h170.666667z m426.666667-341.333333a85.333333 85.333333 0 0 1 85.333333 85.333333v256a85.333333 85.333333 0 0 1-85.333333 85.333334h-170.666667a85.333333 85.333333 0 0 1-85.333333-85.333334V213.333333a85.333333 85.333333 0 0 1 85.333333-85.333333h170.666667zM384 128a85.333333 85.333333 0 0 1 85.333333 85.333333v85.333334a85.333333 85.333333 0 0 1-85.333333 85.333333H213.333333a85.333333 85.333333 0 0 1-85.333333-85.333333V213.333333a85.333333 85.333333 0 0 1 85.333333-85.333333h170.666667z" fill="#000000" p-id="2429"></path></svg>