<?xml version="1.0" standalone="no"?><!DOCTYPE svg PUBLIC "-//W3C//DTD SVG 1.1//EN" "http://www.w3.org/Graphics/SVG/1.1/DTD/svg11.dtd"><svg t="1705376664816" class="icon" viewBox="0 0 1024 1024" version="1.1" xmlns="http://www.w3.org/2000/svg" p-id="3061" xmlns:xlink="http://www.w3.org/1999/xlink" width="200" height="200"><path d="M938.666667 384a85.333333 85.333333 0 0 0-85.333334-85.333333h-49.92a85.333333 85.333333 0 0 1-60.586666-25.173334l-65.28-65.28A128 128 0 0 0 587.093333 170.666667h-150.186666a128 128 0 0 0-90.453334 37.546666L281.173333 273.493333A85.333333 85.333333 0 0 1 220.586667 298.666667H170.666667a85.333333 85.333333 0 0 0-85.333334 85.333333v384a85.333333 85.333333 0 0 0 85.333334 85.333333h682.666666a85.333333 85.333333 0 0 0 85.333334-85.333333V384z m-426.666667 341.333333a170.666667 170.666667 0 1 1 0-341.333333 170.666667 170.666667 0 0 1 0 341.333333z" fill="#000000" p-id="3062"></path></svg>