<?xml version="1.0" standalone="no"?><!DOCTYPE svg PUBLIC "-//W3C//DTD SVG 1.1//EN" "http://www.w3.org/Graphics/SVG/1.1/DTD/svg11.dtd"><svg t="1705379859066" class="icon" viewBox="0 0 1035 1024" version="1.1" xmlns="http://www.w3.org/2000/svg" p-id="5211" xmlns:xlink="http://www.w3.org/1999/xlink" width="202.1484375" height="200"><path d="M519.145739 58.401391a31.788522 31.788522 0 0 1 31.788522 31.788522v42.384696a31.788522 31.788522 0 0 1-63.577044 0V90.189913a31.788522 31.788522 0 0 1 31.788522-31.788522zM519.145739 270.313739c-134.589217 0-243.689739 109.100522-243.689739 243.689739 0 134.589217 109.100522 243.70087 243.689739 243.70087 134.589217 0 243.70087-109.111652 243.70087-243.70087 0-134.589217-109.111652-243.689739-243.70087-243.689739zM241.942261 191.844174a31.788522 31.788522 0 1 0-44.955826 44.955826l29.974261 29.96313a31.788522 31.788522 0 1 0 44.944695-44.944695l-29.96313-29.974261zM974.747826 514.003478a31.788522 31.788522 0 0 1-31.788522 31.788522h-42.373565a31.788522 31.788522 0 0 1 0-63.577043h42.373565a31.788522 31.788522 0 0 1 31.788522 31.788521zM841.305043 236.8a31.788522 31.788522 0 1 0-44.944695-44.955826l-29.974261 29.974261a31.788522 31.788522 0 0 0 44.955826 44.944695l29.96313-29.96313zM519.145739 863.654957a31.788522 31.788522 0 0 1 31.788522 31.788521v42.384696a31.788522 31.788522 0 0 1-63.577044 0V895.443478a31.788522 31.788522 0 0 1 31.788522-31.788521zM811.341913 761.243826a31.788522 31.788522 0 1 0-44.955826 44.955826l29.974261 29.963131a31.788522 31.788522 0 0 0 44.944695-44.944696l-29.96313-29.974261zM169.494261 514.003478a31.788522 31.788522 0 0 1-31.777391 31.788522H95.332174a31.788522 31.788522 0 0 1 0-63.577043h42.384696a31.788522 31.788522 0 0 1 31.777391 31.788521zM271.905391 806.199652a31.788522 31.788522 0 1 0-44.955826-44.955826l-29.96313 29.974261a31.788522 31.788522 0 0 0 44.955826 44.944696l29.96313-29.963131z" fill="#000000" p-id="5212"></path></svg>