<?xml version="1.0" standalone="no"?><!DOCTYPE svg PUBLIC "-//W3C//DTD SVG 1.1//EN" "http://www.w3.org/Graphics/SVG/1.1/DTD/svg11.dtd"><svg t="1705379843814" class="icon" viewBox="0 0 1024 1024" version="1.1" xmlns="http://www.w3.org/2000/svg" p-id="4424" xmlns:xlink="http://www.w3.org/1999/xlink" width="200" height="200"><path d="M540.319656 73.342624a31.44671 31.44671 0 0 0-62.893419 0v43.16215C274.233806 132.349247 113.851183 300.714667 110.625032 507.232344a27.967312 27.967312 0 0 0 23.364817 27.989333 2280.282839 2280.282839 0 0 0 343.436388 30.808086v241.014366a31.44671 31.44671 0 0 1-62.882409 0v-20.964473a31.44671 31.44671 0 0 0-62.893419 0v20.964473a94.329118 94.329118 0 1 0 188.669247 0V566.040774a2280.282839 2280.282839 0 0 0 343.436387-30.808086 27.967312 27.967312 0 0 0 23.364817-27.989333c-3.21514-206.517677-163.597763-374.872086-366.801204-390.749592V73.342624z" fill="#000000" p-id="4425"></path></svg>